<!-- Created with Inkscape (http://www.inkscape.org/) --><svg xmlns:inkscape="http://www.inkscape.org/namespaces/inkscape" xmlns:sodipodi="http://sodipodi.sourceforge.net/DTD/sodipodi-0.dtd" xmlns="http://www.w3.org/2000/svg" xmlns:svg="http://www.w3.org/2000/svg" xmlns:bx="https://boxy-svg.com" width="40.500011mm" height="72.199997mm" viewBox="0 0 40.500011 72.199997" version="1.1" id="svg1187" inkscape:version="1.1.1 (3bf5ae0d25, 2021-09-20)" sodipodi:docname="input.svg">
  <sodipodi:namedview id="namedview1189" pagecolor="#ffffff" bordercolor="#666666" borderopacity="1.0" inkscape:pageshadow="2" inkscape:pageopacity="0.0" inkscape:pagecheckerboard="0" inkscape:document-units="mm" showgrid="false" inkscape:zoom="7.2907407" inkscape:cx="84.83363" inkscape:cy="59.87046" inkscape:window-width="2281" inkscape:window-height="1231" inkscape:window-x="2079" inkscape:window-y="1273" inkscape:window-maximized="0" inkscape:current-layer="layer1" inkscape:snap-text-baseline="true" fit-margin-top="0" fit-margin-left="0" fit-margin-right="0" fit-margin-bottom="0"/>
  <defs id="defs1184">
    <style bx:fonts="Antonio" bx:pinned="true" id="style1411">@import url(https://fonts.googleapis.com/css2?family=Antonio%3Aital%2Cwght%400%2C100%3B0%2C200%3B0%2C300%3B0%2C400%3B0%2C500%3B0%2C600%3B0%2C700&amp;display=swap);</style>
  </defs>
  <g inkscape:label="Layer 1" inkscape:groupmode="layer" id="layer1" style="display:inline">
    <g partid="854378190" transform="matrix(-0.3485371,0,0,-0.38363441,40.325741,72.008178)" id="breadboard" bx:origin="0.999999 1">
      <title id="title1415">Outer</title>
      <path id="rect1419" style="vector-effect:non-scaling-stroke;fill:#014cb1;stroke:#ffffff;stroke-opacity:0.21;paint-order:fill" transform="scale(-1)" d="M -115.2,-187.2 H 0 V 0 h -115.2 z">
        <title id="title1417">Base</title>
      </path>
      <g transform="translate(3.60432)" id="g1508" inkscape:label="Pins">
        <title id="title1421">Pins</title>
        <g transform="translate(-3.60432)" id="g1469" inkscape:label="pin names">
          <title id="title1423">Pin names</title>
          <g aria-label="GND" transform="matrix(-0.070144,0,0,-0.063938,95.857773,174.47205)" id="text1427" style="font-size:32.188px;line-height:68.6676px;font-family:'Droid Sans';-inkscape-font-specification:'Droid Sans, Normal';white-space:pre;fill:#ffffff" inkscape:label="GND">
            <path d="m 12.290535,-12.133367 h 7.60693 V -0.86442382 Q 19.033041,-0.58152148 18.1529,-0.36148633 17.27276,-0.14145117 16.345469,0 q -0.927291,0.15716797 -1.948883,0.23575195 -1.021592,0.078584 -2.200352,0.078584 -2.4675368,0 -4.3692692,-0.81727343 Q 5.9252324,-1.3359277 4.6207382,-2.860457 3.3162441,-4.4007031 2.6404219,-6.5853378 1.9645996,-8.7856894 1.9645996,-11.520412 q 0,-2.703289 0.7386894,-4.887924 0.7544063,-2.184635 2.1846348,-3.709164 1.4302285,-1.540246 3.5205625,-2.357519 2.1060507,-0.832991 4.7936227,-0.832991 1.744565,0 3.347678,0.34577 1.603113,0.345769 2.986191,1.005875 l -1.131609,2.546121 q -0.565805,-0.267186 -1.22591,-0.502937 -0.644389,-0.235752 -1.335928,-0.408637 -0.691539,-0.188602 -1.430228,-0.298619 -0.722973,-0.110018 -1.445946,-0.110018 -1.917449,0 -3.3948278,0.644389 -1.4773789,0.628672 -2.4832539,1.823148 -0.9901582,1.194477 -1.5088125,2.907608 -0.5186542,1.71313 -0.5186542,3.866332 0,2.0431832 0.4243535,3.7405972 0.4400703,1.6974141 1.3830781,2.9233242 0.9430078,1.2259101 2.4361035,1.9017324 1.4930953,0.6758223 3.5991463,0.6758223 0.691539,0 1.257344,-0.031434 0.581521,-0.04715 1.068742,-0.1100176 0.487221,-0.062867 0.911574,-0.1414512 0.440071,-0.094301 0.848707,-0.1728847 v -6.8525234 h -4.699322 z" style="font-size:32.188px;line-height:68.6676px;font-family:'Droid Sans';-inkscape-font-specification:'Droid Sans, Normal';white-space:pre;fill:#ffffff" id="path886"/>
            <path d="M 42.545369,0 H 39.166258 L 27.865881,-19.017324 h -0.125734 q 0.0943,1.210193 0.157168,2.40467 0.06287,1.021592 0.0943,2.137484 0.04715,1.115893 0.04715,2.01175 V 0 h -2.703289 v -22.977957 h 3.347678 l 11.253226,18.9230234 h 0.110018 q -0.04715,-1.1944765 -0.110018,-2.3575195 -0.01572,-0.5029375 -0.04715,-1.0215918 -0.01572,-0.534371 -0.04715,-1.0530253 -0.01572,-0.5343711 -0.03143,-1.0215918 0,-0.4872207 0,-0.895857 v -12.573438 h 2.734722 z" style="font-size:32.188px;line-height:68.6676px;font-family:'Droid Sans';-inkscape-font-specification:'Droid Sans, Normal';white-space:pre;fill:#ffffff" id="path888"/>
            <path d="m 65.727644,-11.709014 q 0,2.9076078 -0.754406,5.1079594 -0.754406,2.1846347 -2.184635,3.6620136 -1.430228,1.4616621 -3.520562,2.20035155 Q 57.193424,0 54.553002,0 h -5.752348 v -22.977957 h 6.396737 q 2.40467,0 4.353552,0.722973 1.948883,0.722972 3.316244,2.153201 1.367362,1.414512 2.106051,3.520562 0.754406,2.106051 0.754406,4.872207 z m -3.096209,0.0943 q 0,-2.294652 -0.518654,-3.960633 -0.518654,-1.681697 -1.508812,-2.766156 -0.990159,-1.084459 -2.436104,-1.603113 -1.445945,-0.534371 -3.28481,-0.534371 H 51.723979 V -2.5146875 H 54.2701 q 4.149234,0 6.255285,-2.2946523 2.10605,-2.2946523 2.10605,-6.8053732 z" style="font-size:32.188px;line-height:68.6676px;font-family:'Droid Sans';-inkscape-font-specification:'Droid Sans, Normal';white-space:pre;fill:#ffffff" id="path890"/>
          </g>
          <g aria-label="VCC" transform="matrix(-0.070144,0,0,-0.063938,88.462219,174.47205)" id="text1431" style="font-size:32.188px;line-height:68.6676px;font-family:'Droid Sans';-inkscape-font-specification:'Droid Sans, Normal';white-space:pre;fill:#ffffff" inkscape:label="VCC">
            <path d="m 15.166709,-22.977957 h 3.111926 L 10.593121,0 H 7.65408 L 0,-22.977957 h 3.096209 l 4.636455,14.5694707 q 0.4557871,1.4302285 0.7858398,2.7661563 0.3300528,1.3202109 0.5972383,2.4832539 0.235752,-1.163043 0.5972383,-2.4832539 0.3614866,-1.3359278 0.8487066,-2.860457 z" style="font-size:32.188px;line-height:68.6676px;font-family:'Droid Sans';-inkscape-font-specification:'Droid Sans, Normal';white-space:pre;fill:#ffffff" id="path893"/>
            <path d="m 30.097667,-20.730455 q -1.681698,0 -3.049059,0.644389 -1.367361,0.628672 -2.341803,1.823148 -0.958724,1.194477 -1.493095,2.907608 -0.518655,1.71313 -0.518655,3.866332 0,2.2160679 0.455787,3.9449156 0.471504,1.7131308 1.398795,2.8918906 0.927291,1.1787597 2.31037,1.7917148 1.383078,0.6129551 3.23766,0.6129551 1.398795,0 2.656138,-0.2671856 1.257344,-0.2829023 2.483254,-0.6443886 v 2.54612103 q -0.612955,0.23575195 -1.22591,0.42435351 -0.612955,0.17288476 -1.288777,0.28290234 -0.660106,0.11001758 -1.430229,0.15716797 -0.754406,0.0628672 -1.681697,0.0628672 -2.577555,0 -4.46357,-0.84870702 -1.886016,-0.84870701 -3.127643,-2.40466991 -1.22591,-1.5559629 -1.823148,-3.7405976 -0.597239,-2.1846348 -0.597239,-4.8407734 0,-2.608988 0.675823,-4.777906 0.691539,-2.168918 2.01175,-3.724881 1.335927,-1.555963 3.300527,-2.420387 1.9646,-0.864424 4.510721,-0.864424 1.697414,0 3.23766,0.34577 1.540246,0.345769 2.781873,1.005875 l -1.22591,2.45182 q -0.990159,-0.502937 -2.153202,-0.864424 -1.163042,-0.361486 -2.640421,-0.361486 z" style="font-size:32.188px;line-height:68.6676px;font-family:'Droid Sans';-inkscape-font-specification:'Droid Sans, Normal';white-space:pre;fill:#ffffff" id="path895"/>
            <path d="m 48.863521,-20.730455 q -1.681698,0 -3.049059,0.644389 -1.367361,0.628672 -2.341803,1.823148 -0.958724,1.194477 -1.493095,2.907608 -0.518655,1.71313 -0.518655,3.866332 0,2.2160679 0.455787,3.9449156 0.471504,1.7131308 1.398795,2.8918906 0.927291,1.1787597 2.310369,1.7917148 1.383079,0.6129551 3.237661,0.6129551 1.398794,0 2.656138,-0.2671856 1.257344,-0.2829023 2.483254,-0.6443886 v 2.54612103 q -0.612955,0.23575195 -1.22591,0.42435351 -0.612955,0.17288476 -1.288777,0.28290234 -0.660106,0.11001758 -1.430229,0.15716797 -0.754406,0.0628672 -1.681697,0.0628672 -2.577555,0 -4.46357,-0.84870702 Q 42.026714,-1.3830781 40.785087,-2.939041 39.559177,-4.4950039 38.961939,-6.6796386 38.3647,-8.8642734 38.3647,-11.520412 q 0,-2.608988 0.675823,-4.777906 0.691539,-2.168918 2.01175,-3.724881 1.335927,-1.555963 3.300527,-2.420387 1.964599,-0.864424 4.510721,-0.864424 1.697414,0 3.23766,0.34577 1.540246,0.345769 2.781873,1.005875 l -1.22591,2.45182 q -0.990159,-0.502937 -2.153202,-0.864424 -1.163043,-0.361486 -2.640421,-0.361486 z" style="font-size:32.188px;line-height:68.6676px;font-family:'Droid Sans';-inkscape-font-specification:'Droid Sans, Normal';white-space:pre;fill:#ffffff" id="path897"/>
          </g>
          <g aria-label="CLK" transform="matrix(-0.070144,0,0,-0.063938,81.066666,174.47205)" id="text1435" style="font-size:32.188px;line-height:68.6676px;font-family:'Droid Sans';-inkscape-font-specification:'Droid Sans, Normal';white-space:pre;fill:#ffffff" inkscape:label="CLK">
            <path d="m 12.46342,-20.730455 q -1.681697,0 -3.0490588,0.644389 -1.3673613,0.628672 -2.3418027,1.823148 -0.9587246,1.194477 -1.4930957,2.907608 -0.5186542,1.71313 -0.5186542,3.866332 0,2.2160679 0.4557871,3.9449156 0.4715039,1.7131308 1.3987949,2.8918906 0.927291,1.1787597 2.3103691,1.7917148 1.3830783,0.6129551 3.2376603,0.6129551 1.398795,0 2.656138,-0.2671856 1.257344,-0.2829023 2.483254,-0.6443886 v 2.54612103 q -0.612955,0.23575195 -1.22591,0.42435351 -0.612955,0.17288476 -1.288777,0.28290234 -0.660106,0.11001758 -1.430229,0.15716797 -0.754406,0.0628672 -1.681697,0.0628672 -2.5775545,0 -4.4635702,-0.84870702 Q 5.6266132,-1.3830781 4.3849863,-2.939041 3.1590761,-4.4950039 2.5618379,-6.6796386 1.9645996,-8.8642734 1.9645996,-11.520412 q 0,-2.608988 0.6758223,-4.777906 0.691539,-2.168918 2.0117499,-3.724881 1.3359278,-1.555963 3.3005274,-2.420387 1.9645995,-0.864424 4.5107208,-0.864424 1.697414,0 3.23766,0.34577 1.540246,0.345769 2.781873,1.005875 l -1.22591,2.45182 q -0.990158,-0.502937 -2.153201,-0.864424 -1.163043,-0.361486 -2.640422,-0.361486 z" style="font-size:32.188px;line-height:68.6676px;font-family:'Droid Sans';-inkscape-font-specification:'Droid Sans, Normal';white-space:pre;fill:#ffffff" id="path900"/>
            <path d="m 22.537887,0 v -22.977957 h 2.923324 v 20.3689687 h 9.005724 V 0 Z" style="font-size:32.188px;line-height:68.6676px;font-family:'Droid Sans';-inkscape-font-specification:'Droid Sans, Normal';white-space:pre;fill:#ffffff" id="path902"/>
            <path d="m 53.861461,0 h -3.316244 l -7.088275,-10.970324 -2.184635,1.7917147 V 0 h -2.923324 v -22.977957 h 2.923324 v 11.488979 l 1.901732,-2.640422 7.103992,-8.848557 h 3.284811 l -8.172734,10.0116 z" style="font-size:32.188px;line-height:68.6676px;font-family:'Droid Sans';-inkscape-font-specification:'Droid Sans, Normal';white-space:pre;fill:#ffffff" id="path904"/>
          </g>
          <g aria-label="MOSI" transform="matrix(-0.070144,0,0,-0.063938,73.955551,174.47205)" id="text1439" style="font-size:32.188px;line-height:68.6676px;font-family:'Droid Sans';-inkscape-font-specification:'Droid Sans, Normal';white-space:pre;fill:#ffffff" inkscape:label="MOSI">
            <path d="M 12.620588,0 5.6580468,-20.1175 H 5.5323125 q 0.094301,1.163043 0.1571679,2.310369 0.062867,0.990158 0.094301,2.090334 0.04715,1.084459 0.04715,1.980317 V 0 h -2.703289 v -22.977957 h 4.3378359 l 6.4753205,18.7344219 h 0.0943 l 6.506754,-18.7344219 h 4.337836 V 0 h -2.923324 v -13.940799 q 0,-0.817273 0.03143,-1.870299 0.03143,-1.053025 0.07858,-2.01175 0.06287,-1.115892 0.110017,-2.263218 H 22.050666 L 15.025258,0 Z" style="font-size:32.188px;line-height:68.6676px;font-family:'Droid Sans';-inkscape-font-specification:'Droid Sans, Normal';white-space:pre;fill:#ffffff" id="path907"/>
            <path d="m 49.90083,-11.520412 q 0,2.6561386 -0.644389,4.8407734 -0.628672,2.1846347 -1.886016,3.7405976 -1.257343,1.5559629 -3.127642,2.40466991 -1.854582,0.84870702 -4.290686,0.84870702 -2.561837,0 -4.447853,-0.84870702 -1.870299,-0.84870701 -3.111926,-2.40466991 -1.22591,-1.5559629 -1.823148,-3.7405976 -0.597239,-2.2003516 -0.597239,-4.8722074 0,-2.671855 0.597239,-4.840773 0.597238,-2.184635 1.838865,-3.724881 1.241627,-1.540246 3.127642,-2.373236 1.886016,-0.848707 4.447854,-0.848707 2.436103,0 4.274969,0.848707 1.854582,0.83299 3.111925,2.388953 1.257344,1.540246 1.886016,3.724881 0.644389,2.168918 0.644389,4.85649 z m -16.83269,0 q 0,2.1532011 0.408637,3.8820488 0.408637,1.7131308 1.241627,2.9233242 0.848707,1.1944765 2.137484,1.8388652 1.304495,0.6286719 3.096209,0.6286719 1.791715,0 3.080493,-0.6286719 1.304494,-0.6443887 2.137484,-1.8388652 0.848707,-1.2101934 1.241627,-2.9233242 0.39292,-1.7288477 0.39292,-3.8820488 0,-2.168918 -0.39292,-3.882049 -0.39292,-1.713131 -1.22591,-2.89189 -0.832991,-1.194477 -2.121768,-1.823149 -1.288777,-0.644388 -3.080492,-0.644388 -1.791715,0 -3.096209,0.644388 -1.304494,0.628672 -2.153201,1.823149 -0.848707,1.178759 -1.257344,2.89189 -0.408637,1.713131 -0.408637,3.882049 z" style="font-size:32.188px;line-height:68.6676px;font-family:'Droid Sans';-inkscape-font-specification:'Droid Sans, Normal';white-space:pre;fill:#ffffff" id="path909"/>
            <path d="m 67.126438,-6.1452675 q 0,1.5245293 -0.550088,2.7347226 -0.534371,1.1944766 -1.540246,2.0274668 -1.005875,0.83299021 -2.45182,1.27306052 -1.445945,0.42435351 -3.253377,0.42435351 -1.744565,0 -3.269094,-0.28290234 -1.508812,-0.26718554 -2.530404,-0.80155663 V -3.5677129 q 0.534371,0.2514688 1.210193,0.5029375 0.691539,0.235752 1.445946,0.4243535 0.754406,0.1886016 1.555962,0.314336 0.801557,0.1100176 1.587397,0.1100176 2.514687,0 3.709164,-0.9430078 1.210193,-0.9430078 1.210193,-2.7032891 0,-0.848707 -0.235752,-1.4773789 -0.220035,-0.6286718 -0.801556,-1.1473261 -0.565805,-0.5343711 -1.52453,-1.0215918 -0.958724,-0.502938 -2.420386,-1.084459 -1.398795,-0.550088 -2.436104,-1.194477 -1.021592,-0.660105 -1.697414,-1.477378 -0.660105,-0.817274 -0.990158,-1.854582 -0.314336,-1.037309 -0.314336,-2.35752 0,-1.383078 0.502938,-2.467537 0.502937,-1.084459 1.414511,-1.823148 0.911574,-0.754407 2.168918,-1.147327 1.273061,-0.39292 2.79759,-0.39292 1.870299,0 3.363395,0.361487 1.493095,0.345769 2.656138,0.895857 l -1.053025,2.45182 q -1.021592,-0.455787 -2.326086,-0.785839 -1.288777,-0.34577 -2.671856,-0.34577 -1.917449,0 -2.970474,0.895858 -1.053026,0.88014 -1.053026,2.388953 0,0.895857 0.235752,1.555962 0.235752,0.644389 0.78584,1.17876 0.550088,0.518655 1.445946,0.990158 0.911574,0.455788 2.231785,0.974442 1.430228,0.565805 2.49897,1.163043 1.084459,0.597238 1.807432,1.351644 0.722973,0.7544066 1.084459,1.7445648 0.377203,0.9901582 0.377203,2.3418027 z" style="font-size:32.188px;line-height:68.6676px;font-family:'Droid Sans';-inkscape-font-specification:'Droid Sans, Normal';white-space:pre;fill:#ffffff" id="path911"/>
            <path d="m 78.2225,0 h -8.329902 v -1.6031133 l 2.703289,-0.6443886 V -20.730455 l -2.703289,-0.644389 v -1.603113 H 78.2225 v 1.603113 l -2.703289,0.644389 v 18.4829531 l 2.703289,0.6443886 z" style="font-size:32.188px;line-height:68.6676px;font-family:'Droid Sans';-inkscape-font-specification:'Droid Sans, Normal';white-space:pre;fill:#ffffff" id="path913"/>
          </g>
          <g aria-label="RES" transform="matrix(-0.070144,0,0,-0.063938,66.275551,174.47205)" id="text1443" style="font-size:32.188px;line-height:68.6676px;font-family:'Droid Sans';-inkscape-font-specification:'Droid Sans, Normal';white-space:pre;fill:#ffffff" inkscape:label="RES">
            <path d="M 6.0509667,-9.4929452 V 0 H 3.1276426 v -22.977957 h 5.5951796 q 4.1806678,0 6.1767008,1.61883 1.996033,1.61883 1.996033,4.903641 0,1.367361 -0.392919,2.388953 -0.377204,1.021592 -1.021592,1.760281 -0.628672,0.722973 -1.445946,1.210194 -0.817273,0.48722 -1.681697,0.801556 L 18.608687,0 H 15.166709 L 9.6501132,-9.4929452 Z m 0,-2.4832538 h 2.5775547 q 1.4145116,0 2.4046696,-0.267186 0.990159,-0.282902 1.61883,-0.817273 0.644389,-0.550088 0.927291,-1.351645 0.29862,-0.817273 0.29862,-1.901732 0,-1.131609 -0.330053,-1.917449 -0.314336,-0.78584 -0.974442,-1.288778 -0.644388,-0.502937 -1.650263,-0.722972 -0.9901585,-0.235752 -2.3575198,-0.235752 H 6.0509667 Z" style="font-size:32.188px;line-height:68.6676px;font-family:'Droid Sans';-inkscape-font-specification:'Droid Sans, Normal';white-space:pre;fill:#ffffff" id="path916"/>
            <path d="M 34.042583,0 H 22.113534 v -22.977957 h 11.929049 v 2.577555 h -9.005725 v 7.103992 h 8.408486 v 2.546121 h -8.408486 v 8.1727343 h 9.005725 z" style="font-size:32.188px;line-height:68.6676px;font-family:'Droid Sans';-inkscape-font-specification:'Droid Sans, Normal';white-space:pre;fill:#ffffff" id="path918"/>
            <path d="m 51.205322,-6.1452675 q 0,1.5245293 -0.550088,2.7347226 -0.534371,1.1944766 -1.540246,2.0274668 -1.005875,0.83299021 -2.45182,1.27306052 -1.445945,0.42435351 -3.253377,0.42435351 -1.744564,0 -3.269094,-0.28290234 -1.508812,-0.26718554 -2.530404,-0.80155663 V -3.5677129 q 0.534371,0.2514688 1.210193,0.5029375 0.691539,0.235752 1.445946,0.4243535 0.754406,0.1886016 1.555963,0.314336 0.801556,0.1100176 1.587396,0.1100176 2.514687,0 3.709164,-0.9430078 1.210193,-0.9430078 1.210193,-2.7032891 0,-0.848707 -0.235752,-1.4773789 -0.220035,-0.6286718 -0.801556,-1.1473261 -0.565805,-0.5343711 -1.524529,-1.0215918 -0.958725,-0.502938 -2.420387,-1.084459 -1.398795,-0.550088 -2.436104,-1.194477 -1.021591,-0.660105 -1.697414,-1.477378 -0.660105,-0.817274 -0.990158,-1.854582 -0.314336,-1.037309 -0.314336,-2.35752 0,-1.383078 0.502938,-2.467537 0.502937,-1.084459 1.414511,-1.823148 0.911575,-0.754407 2.168918,-1.147327 1.273061,-0.39292 2.79759,-0.39292 1.870299,0 3.363395,0.361487 1.493095,0.345769 2.656138,0.895857 l -1.053025,2.45182 q -1.021592,-0.455787 -2.326086,-0.785839 -1.288777,-0.34577 -2.671855,-0.34577 -1.91745,0 -2.970475,0.895858 -1.053025,0.88014 -1.053025,2.388953 0,0.895857 0.235752,1.555962 0.235751,0.644389 0.785839,1.17876 0.550088,0.518655 1.445946,0.990158 0.911574,0.455788 2.231785,0.974442 1.430228,0.565805 2.49897,1.163043 1.084459,0.597238 1.807432,1.351644 0.722973,0.7544066 1.084459,1.7445648 0.377203,0.9901582 0.377203,2.3418027 z" style="font-size:32.188px;line-height:68.6676px;font-family:'Droid Sans';-inkscape-font-specification:'Droid Sans, Normal';white-space:pre;fill:#ffffff" id="path920"/>
          </g>
          <g aria-label="DC" transform="matrix(-0.070144,0,0,-0.063938,59.164436,174.47205)" id="text1447" style="font-size:32.188px;line-height:68.6676px;font-family:'Droid Sans';-inkscape-font-specification:'Droid Sans, Normal';white-space:pre;fill:#ffffff" inkscape:label="DC">
            <path d="m 20.054633,-11.709014 q 0,2.9076078 -0.754407,5.1079594 -0.754406,2.1846347 -2.184634,3.6620136 -1.430229,1.4616621 -3.520563,2.20035155 Q 11.520412,0 8.8799902,0 H 3.1276426 v -22.977957 h 6.3967362 q 2.4046702,0 4.3535532,0.722973 1.948882,0.722972 3.316244,2.153201 1.367361,1.414512 2.10605,3.520562 0.754407,2.106051 0.754407,4.872207 z m -3.096209,0.0943 q 0,-2.294652 -0.518655,-3.960633 -0.518654,-1.681697 -1.508812,-2.766156 -0.990158,-1.084459 -2.436104,-1.603113 -1.445945,-0.534371 -3.2848101,-0.534371 H 6.0509667 v 17.9642985 h 2.5461211 q 4.1492342,0 6.2552852,-2.2946523 2.106051,-2.2946523 2.106051,-6.8053732 z" style="font-size:32.188px;line-height:68.6676px;font-family:'Droid Sans';-inkscape-font-specification:'Droid Sans, Normal';white-space:pre;fill:#ffffff" id="path923"/>
            <path d="m 34.482652,-20.730455 q -1.681698,0 -3.049059,0.644389 -1.367361,0.628672 -2.341803,1.823148 -0.958724,1.194477 -1.493095,2.907608 -0.518655,1.71313 -0.518655,3.866332 0,2.2160679 0.455787,3.9449156 0.471504,1.7131308 1.398795,2.8918906 0.927291,1.1787597 2.310369,1.7917148 1.383079,0.6129551 3.237661,0.6129551 1.398795,0 2.656138,-0.2671856 1.257344,-0.2829023 2.483254,-0.6443886 v 2.54612103 q -0.612955,0.23575195 -1.22591,0.42435351 -0.612955,0.17288476 -1.288777,0.28290234 -0.660106,0.11001758 -1.430229,0.15716797 -0.754406,0.0628672 -1.681697,0.0628672 -2.577555,0 -4.46357,-0.84870702 -1.886016,-0.84870701 -3.127643,-2.40466991 -1.22591,-1.5559629 -1.823148,-3.7405976 -0.597239,-2.1846348 -0.597239,-4.8407734 0,-2.608988 0.675823,-4.777906 0.691539,-2.168918 2.01175,-3.724881 1.335927,-1.555963 3.300527,-2.420387 1.9646,-0.864424 4.510721,-0.864424 1.697414,0 3.23766,0.34577 1.540246,0.345769 2.781873,1.005875 l -1.22591,2.45182 q -0.990159,-0.502937 -2.153202,-0.864424 -1.163042,-0.361486 -2.640421,-0.361486 z" style="font-size:32.188px;line-height:68.6676px;font-family:'Droid Sans';-inkscape-font-specification:'Droid Sans, Normal';white-space:pre;fill:#ffffff" id="path925"/>
          </g>
          <g aria-label="BLK" transform="matrix(-0.070144,0,0,-0.063938,52.053326,174.47205)" id="text1451" style="font-size:32.188px;line-height:68.6676px;font-family:'Droid Sans';-inkscape-font-specification:'Droid Sans, Normal';white-space:pre;fill:#ffffff" inkscape:label="BLK">
            <path d="m 3.1276426,-22.977957 h 6.2710019 q 2.0117495,0 3.5362795,0.314336 1.540246,0.298619 2.561838,0.990158 1.037308,0.675823 1.555962,1.791715 0.518655,1.100176 0.518655,2.719006 0,0.974441 -0.314336,1.823148 -0.298619,0.848707 -0.880141,1.493096 -0.581521,0.644389 -1.445945,1.084459 -0.848707,0.424354 -1.933166,0.565805 v 0.157168 q 1.084459,0.188601 2.027467,0.550088 0.958724,0.345769 1.66598,0.974441 0.707256,0.6129551 1.115893,1.5559629 0.408636,0.9430078 0.408636,2.2946523 0,1.5716797 -0.518654,2.8133066 -0.502937,1.2259101 -1.477379,2.090334 -0.958724,0.84870699 -2.341802,1.30449409 Q 12.494853,0 10.750289,0 H 3.1276426 Z m 2.9233241,9.744414 h 3.8348985 q 1.3202108,0 2.2160678,-0.235752 0.895858,-0.235752 1.445946,-0.691539 0.550088,-0.471504 0.78584,-1.163043 0.251468,-0.707256 0.251468,-1.634547 0,-1.886015 -1.210193,-2.703289 -1.210193,-0.817273 -3.8191816,-0.817273 H 6.0509667 Z m 0,2.45182 v 8.2984691 h 4.1806683 q 1.383078,0 2.310369,-0.3143359 0.943008,-0.314336 1.508812,-0.8801406 0.581522,-0.5658047 0.832991,-1.3516446 0.251468,-0.8015566 0.251468,-1.7602812 0,-0.8801406 -0.267185,-1.6188301 -0.251469,-0.7386894 -0.848707,-1.2573437 -0.581522,-0.534371 -1.555963,-0.817273 -0.974442,-0.29862 -2.420387,-0.29862 z" style="font-size:32.188px;line-height:68.6676px;font-family:'Droid Sans';-inkscape-font-specification:'Droid Sans, Normal';white-space:pre;fill:#ffffff" id="path928"/>
            <path d="m 23.119409,0 v -22.977957 h 2.923324 v 20.3689687 h 9.005724 V 0 Z" style="font-size:32.188px;line-height:68.6676px;font-family:'Droid Sans';-inkscape-font-specification:'Droid Sans, Normal';white-space:pre;fill:#ffffff" id="path930"/>
            <path d="m 54.442985,0 h -3.316244 l -7.088275,-10.970324 -2.184635,1.7917147 V 0 h -2.923324 v -22.977957 h 2.923324 v 11.488979 l 1.901732,-2.640422 7.103992,-8.848557 h 3.284811 l -8.172734,10.0116 z" style="font-size:32.188px;line-height:68.6676px;font-family:'Droid Sans';-inkscape-font-specification:'Droid Sans, Normal';white-space:pre;fill:#ffffff" id="path932"/>
          </g>
          <g aria-label="MISO" transform="matrix(-0.070144,0,0,-0.063938,45.511105,174.47205)" id="text1455" style="font-size:32.188px;line-height:68.6676px;font-family:'Droid Sans';-inkscape-font-specification:'Droid Sans, Normal';white-space:pre;fill:#ffffff" inkscape:label="MISO">
            <path d="M 12.620588,0 5.6580468,-20.1175 H 5.5323125 q 0.094301,1.163043 0.1571679,2.310369 0.062867,0.990158 0.094301,2.090334 0.04715,1.084459 0.04715,1.980317 V 0 h -2.703289 v -22.977957 h 4.3378359 l 6.4753205,18.7344219 h 0.0943 l 6.506754,-18.7344219 h 4.337836 V 0 h -2.923324 v -13.940799 q 0,-0.817273 0.03143,-1.870299 0.03143,-1.053025 0.07858,-2.01175 0.06287,-1.115892 0.110017,-2.263218 H 22.050666 L 15.025258,0 Z" style="font-size:32.188px;line-height:68.6676px;font-family:'Droid Sans';-inkscape-font-specification:'Droid Sans, Normal';white-space:pre;fill:#ffffff" id="path935"/>
            <path d="m 37.626011,0 h -8.329902 v -1.6031133 l 2.703289,-0.6443886 V -20.730455 l -2.703289,-0.644389 v -1.603113 h 8.329902 v 1.603113 l -2.703289,0.644389 v 18.4829531 l 2.703289,0.6443886 z" style="font-size:32.188px;line-height:68.6676px;font-family:'Droid Sans';-inkscape-font-specification:'Droid Sans, Normal';white-space:pre;fill:#ffffff" id="path937"/>
            <path d="m 54.144363,-6.1452675 q 0,1.5245293 -0.550088,2.7347226 -0.534371,1.1944766 -1.540246,2.0274668 -1.005875,0.83299021 -2.45182,1.27306052 -1.445945,0.42435351 -3.253377,0.42435351 -1.744564,0 -3.269094,-0.28290234 -1.508812,-0.26718554 -2.530404,-0.80155663 V -3.5677129 q 0.534371,0.2514688 1.210194,0.5029375 0.691539,0.235752 1.445945,0.4243535 0.754406,0.1886016 1.555963,0.314336 0.801556,0.1100176 1.587396,0.1100176 2.514688,0 3.709164,-0.9430078 1.210194,-0.9430078 1.210194,-2.7032891 0,-0.848707 -0.235752,-1.4773789 -0.220036,-0.6286718 -0.801557,-1.1473261 -0.565805,-0.5343711 -1.524529,-1.0215918 -0.958725,-0.502938 -2.420387,-1.084459 -1.398795,-0.550088 -2.436104,-1.194477 -1.021591,-0.660105 -1.697414,-1.477378 -0.660105,-0.817274 -0.990158,-1.854582 -0.314336,-1.037309 -0.314336,-2.35752 0,-1.383078 0.502938,-2.467537 0.502937,-1.084459 1.414511,-1.823148 0.911575,-0.754407 2.168918,-1.147327 1.273061,-0.39292 2.79759,-0.39292 1.870299,0 3.363395,0.361487 1.493095,0.345769 2.656138,0.895857 l -1.053025,2.45182 q -1.021592,-0.455787 -2.326086,-0.785839 -1.288777,-0.34577 -2.671855,-0.34577 -1.91745,0 -2.970475,0.895858 -1.053025,0.88014 -1.053025,2.388953 0,0.895857 0.235752,1.555962 0.235752,0.644389 0.785839,1.17876 0.550088,0.518655 1.445946,0.990158 0.911574,0.455788 2.231785,0.974442 1.430228,0.565805 2.498971,1.163043 1.084459,0.597238 1.807431,1.351644 0.722973,0.7544066 1.084459,1.7445648 0.377203,0.9901582 0.377203,2.3418027 z" style="font-size:32.188px;line-height:68.6676px;font-family:'Droid Sans';-inkscape-font-specification:'Droid Sans, Normal';white-space:pre;fill:#ffffff" id="path939"/>
            <path d="m 77.51524,-11.520412 q 0,2.6561386 -0.644389,4.8407734 -0.628671,2.1846347 -1.886015,3.7405976 -1.257344,1.5559629 -3.127643,2.40466991 -1.854582,0.84870702 -4.290685,0.84870702 -2.561838,0 -4.447854,-0.84870702 -1.870299,-0.84870701 -3.111925,-2.40466991 -1.225911,-1.5559629 -1.823149,-3.7405976 -0.597238,-2.2003516 -0.597238,-4.8722074 0,-2.671855 0.597238,-4.840773 0.597238,-2.184635 1.838865,-3.724881 1.241627,-1.540246 3.127643,-2.373236 1.886015,-0.848707 4.447853,-0.848707 2.436104,0 4.274969,0.848707 1.854582,0.83299 3.111926,2.388953 1.257344,1.540246 1.886015,3.724881 0.644389,2.168918 0.644389,4.85649 z m -16.832689,0 q 0,2.1532011 0.408637,3.8820488 0.408636,1.7131308 1.241626,2.9233242 0.848707,1.1944765 2.137485,1.8388652 1.304494,0.6286719 3.096209,0.6286719 1.791715,0 3.080492,-0.6286719 1.304494,-0.6443887 2.137484,-1.8388652 0.848707,-1.2101934 1.241627,-2.9233242 0.39292,-1.7288477 0.39292,-3.8820488 0,-2.168918 -0.39292,-3.882049 -0.39292,-1.713131 -1.22591,-2.89189 -0.83299,-1.194477 -2.121767,-1.823149 -1.288778,-0.644388 -3.080493,-0.644388 -1.791714,0 -3.096209,0.644388 -1.304494,0.628672 -2.153201,1.823149 -0.848707,1.178759 -1.257343,2.89189 -0.408637,1.713131 -0.408637,3.882049 z" style="font-size:32.188px;line-height:68.6676px;font-family:'Droid Sans';-inkscape-font-specification:'Droid Sans, Normal';white-space:pre;fill:#ffffff" id="path941"/>
          </g>
          <g aria-label="CS1" transform="matrix(-0.070144,0,0,-0.063938,37.8311,174.47205)" id="text1459" style="font-size:32.188px;line-height:68.6676px;font-family:'Droid Sans';-inkscape-font-specification:'Droid Sans, Normal';white-space:pre;fill:#ffffff" inkscape:label="CS1">
            <path d="m 12.46342,-20.730455 q -1.681697,0 -3.0490588,0.644389 -1.3673613,0.628672 -2.3418027,1.823148 -0.9587246,1.194477 -1.4930957,2.907608 -0.5186542,1.71313 -0.5186542,3.866332 0,2.2160679 0.4557871,3.9449156 0.4715039,1.7131308 1.3987949,2.8918906 0.927291,1.1787597 2.3103691,1.7917148 1.3830783,0.6129551 3.2376603,0.6129551 1.398795,0 2.656138,-0.2671856 1.257344,-0.2829023 2.483254,-0.6443886 v 2.54612103 q -0.612955,0.23575195 -1.22591,0.42435351 -0.612955,0.17288476 -1.288777,0.28290234 -0.660106,0.11001758 -1.430229,0.15716797 -0.754406,0.0628672 -1.681697,0.0628672 -2.5775545,0 -4.4635702,-0.84870702 Q 5.6266132,-1.3830781 4.3849863,-2.939041 3.1590761,-4.4950039 2.5618379,-6.6796386 1.9645996,-8.8642734 1.9645996,-11.520412 q 0,-2.608988 0.6758223,-4.777906 0.691539,-2.168918 2.0117499,-3.724881 1.3359278,-1.555963 3.3005274,-2.420387 1.9645995,-0.864424 4.5107208,-0.864424 1.697414,0 3.23766,0.34577 1.540246,0.345769 2.781873,1.005875 l -1.22591,2.45182 q -0.990158,-0.502937 -2.153201,-0.864424 -1.163043,-0.361486 -2.640422,-0.361486 z" style="font-size:32.188px;line-height:68.6676px;font-family:'Droid Sans';-inkscape-font-specification:'Droid Sans, Normal';white-space:pre;fill:#ffffff" id="path944"/>
            <path d="m 34.63982,-6.1452675 q 0,1.5245293 -0.550088,2.7347226 -0.534371,1.1944766 -1.540246,2.0274668 -1.005875,0.83299021 -2.45182,1.27306052 -1.445946,0.42435351 -3.253377,0.42435351 -1.744565,0 -3.269094,-0.28290234 -1.508812,-0.26718554 -2.530404,-0.80155663 V -3.5677129 q 0.534371,0.2514688 1.210193,0.5029375 0.691539,0.235752 1.445945,0.4243535 0.754407,0.1886016 1.555963,0.314336 0.801557,0.1100176 1.587397,0.1100176 2.514687,0 3.709164,-0.9430078 1.210193,-0.9430078 1.210193,-2.7032891 0,-0.848707 -0.235752,-1.4773789 -0.220035,-0.6286718 -0.801556,-1.1473261 -0.565805,-0.5343711 -1.52453,-1.0215918 -0.958724,-0.502938 -2.420386,-1.084459 -1.398795,-0.550088 -2.436104,-1.194477 -1.021592,-0.660105 -1.697414,-1.477378 -0.660105,-0.817274 -0.990158,-1.854582 -0.314336,-1.037309 -0.314336,-2.35752 0,-1.383078 0.502937,-2.467537 0.502938,-1.084459 1.414512,-1.823148 0.911574,-0.754407 2.168918,-1.147327 1.273061,-0.39292 2.79759,-0.39292 1.870299,0 3.363394,0.361487 1.493096,0.345769 2.656139,0.895857 l -1.053025,2.45182 q -1.021592,-0.455787 -2.326086,-0.785839 -1.288778,-0.34577 -2.671856,-0.34577 -1.917449,0 -2.970474,0.895858 -1.053026,0.88014 -1.053026,2.388953 0,0.895857 0.235752,1.555962 0.235752,0.644389 0.78584,1.17876 0.550088,0.518655 1.445945,0.990158 0.911575,0.455788 2.231786,0.974442 1.430228,0.565805 2.49897,1.163043 1.084459,0.597238 1.807432,1.351644 0.722973,0.7544066 1.084459,1.7445648 0.377203,0.9901582 0.377203,2.3418027 z" style="font-size:32.188px;line-height:68.6676px;font-family:'Droid Sans';-inkscape-font-specification:'Droid Sans, Normal';white-space:pre;fill:#ffffff" id="path946"/>
            <path d="m 47.291841,0 h -2.766156 v -14.349435 q 0,-0.675823 0,-1.445946 0.01572,-0.770123 0.03143,-1.524529 0.03143,-0.770123 0.04715,-1.461662 0.03143,-0.707256 0.04715,-1.241627 -0.267186,0.282902 -0.471504,0.487221 -0.204319,0.204318 -0.424354,0.39292 -0.204318,0.188601 -0.44007,0.408636 -0.235752,0.204319 -0.565805,0.487221 l -2.326086,1.901732 -1.508812,-1.933166 6.019533,-4.699322 h 2.357519 z" style="font-size:32.188px;line-height:68.6676px;font-family:'Droid Sans';-inkscape-font-specification:'Droid Sans, Normal';white-space:pre;fill:#ffffff" id="path948"/>
          </g>
          <g aria-label="CS2" transform="matrix(-0.070144,0,0,-0.063938,30.151102,174.47205)" id="text1463" style="font-size:32.188px;line-height:68.6676px;font-family:'Droid Sans';-inkscape-font-specification:'Droid Sans, Normal';white-space:pre;fill:#ffffff" inkscape:label="CS2">
            <path d="m 12.46342,-20.730455 q -1.681697,0 -3.0490588,0.644389 -1.3673613,0.628672 -2.3418027,1.823148 -0.9587246,1.194477 -1.4930957,2.907608 -0.5186542,1.71313 -0.5186542,3.866332 0,2.2160679 0.4557871,3.9449156 0.4715039,1.7131308 1.3987949,2.8918906 0.927291,1.1787597 2.3103691,1.7917148 1.3830783,0.6129551 3.2376603,0.6129551 1.398795,0 2.656138,-0.2671856 1.257344,-0.2829023 2.483254,-0.6443886 v 2.54612103 q -0.612955,0.23575195 -1.22591,0.42435351 -0.612955,0.17288476 -1.288777,0.28290234 -0.660106,0.11001758 -1.430229,0.15716797 -0.754406,0.0628672 -1.681697,0.0628672 -2.5775545,0 -4.4635702,-0.84870702 Q 5.6266132,-1.3830781 4.3849863,-2.939041 3.1590761,-4.4950039 2.5618379,-6.6796386 1.9645996,-8.8642734 1.9645996,-11.520412 q 0,-2.608988 0.6758223,-4.777906 0.691539,-2.168918 2.0117499,-3.724881 1.3359278,-1.555963 3.3005274,-2.420387 1.9645995,-0.864424 4.5107208,-0.864424 1.697414,0 3.23766,0.34577 1.540246,0.345769 2.781873,1.005875 l -1.22591,2.45182 q -0.990158,-0.502937 -2.153201,-0.864424 -1.163043,-0.361486 -2.640422,-0.361486 z" style="font-size:32.188px;line-height:68.6676px;font-family:'Droid Sans';-inkscape-font-specification:'Droid Sans, Normal';white-space:pre;fill:#ffffff" id="path951"/>
            <path d="m 34.63982,-6.1452675 q 0,1.5245293 -0.550088,2.7347226 -0.534371,1.1944766 -1.540246,2.0274668 -1.005875,0.83299021 -2.45182,1.27306052 -1.445946,0.42435351 -3.253377,0.42435351 -1.744565,0 -3.269094,-0.28290234 -1.508812,-0.26718554 -2.530404,-0.80155663 V -3.5677129 q 0.534371,0.2514688 1.210193,0.5029375 0.691539,0.235752 1.445945,0.4243535 0.754407,0.1886016 1.555963,0.314336 0.801557,0.1100176 1.587397,0.1100176 2.514687,0 3.709164,-0.9430078 1.210193,-0.9430078 1.210193,-2.7032891 0,-0.848707 -0.235752,-1.4773789 -0.220035,-0.6286718 -0.801556,-1.1473261 -0.565805,-0.5343711 -1.52453,-1.0215918 -0.958724,-0.502938 -2.420386,-1.084459 -1.398795,-0.550088 -2.436104,-1.194477 -1.021592,-0.660105 -1.697414,-1.477378 -0.660105,-0.817274 -0.990158,-1.854582 -0.314336,-1.037309 -0.314336,-2.35752 0,-1.383078 0.502937,-2.467537 0.502938,-1.084459 1.414512,-1.823148 0.911574,-0.754407 2.168918,-1.147327 1.273061,-0.39292 2.79759,-0.39292 1.870299,0 3.363394,0.361487 1.493096,0.345769 2.656139,0.895857 l -1.053025,2.45182 q -1.021592,-0.455787 -2.326086,-0.785839 -1.288778,-0.34577 -2.671856,-0.34577 -1.917449,0 -2.970474,0.895858 -1.053026,0.88014 -1.053026,2.388953 0,0.895857 0.235752,1.555962 0.235752,0.644389 0.78584,1.17876 0.550088,0.518655 1.445945,0.990158 0.911575,0.455788 2.231786,0.974442 1.430228,0.565805 2.49897,1.163043 1.084459,0.597238 1.807432,1.351644 0.722973,0.7544066 1.084459,1.7445648 0.377203,0.9901582 0.377203,2.3418027 z" style="font-size:32.188px;line-height:68.6676px;font-family:'Droid Sans';-inkscape-font-specification:'Droid Sans, Normal';white-space:pre;fill:#ffffff" id="path953"/>
            <path d="M 51.95973,0 H 37.626011 v -2.4518203 l 5.500879,-5.9880995 q 1.17876,-1.2730606 2.106051,-2.3260862 0.927291,-1.053025 1.57168,-2.0589 0.660105,-1.005875 1.005875,-2.01175 0.345769,-1.021592 0.345769,-2.216068 0,-0.927291 -0.267185,-1.634547 -0.267186,-0.707256 -0.770123,-1.194477 -0.487221,-0.502937 -1.163043,-0.754406 -0.675823,-0.251469 -1.508813,-0.251469 -1.493095,0 -2.703289,0.612955 -1.194476,0.597238 -2.278935,1.540246 l -1.603114,-1.870299 q 0.628672,-0.565804 1.351645,-1.053025 0.722973,-0.502937 1.555963,-0.864424 0.83299,-0.361486 1.760281,-0.565804 0.927291,-0.220036 1.948883,-0.220036 1.508812,0 2.719006,0.424354 1.22591,0.424353 2.074617,1.22591 0.848707,0.78584 1.304494,1.933166 0.471504,1.131609 0.471504,2.561838 0,1.335928 -0.424354,2.546121 -0.408636,1.210193 -1.147326,2.388953 -0.722972,1.163043 -1.744564,2.3418028 -1.005875,1.1787598 -2.184635,2.4518203 l -4.41642,4.6993223 v 0.1257343 H 51.95973 Z" style="font-size:32.188px;line-height:68.6676px;font-family:'Droid Sans';-inkscape-font-specification:'Droid Sans, Normal';white-space:pre;fill:#ffffff" id="path955"/>
          </g>
          <g aria-label="PEN" transform="matrix(-0.070144,0,0,-0.063938,23.039989,174.47205)" id="text1467" style="font-size:32.188px;line-height:68.6676px;font-family:'Droid Sans';-inkscape-font-specification:'Droid Sans, Normal';white-space:pre;fill:#ffffff" inkscape:label="PEN">
            <path d="m 16.895556,-16.251168 q 0,1.430229 -0.44007,2.75044 -0.424353,1.320211 -1.414512,2.341802 -0.990158,1.005875 -2.624705,1.6188304 -1.61883,0.5972383 -4.0077827,0.5972383 H 6.0509667 V 0 H 3.1276426 V -22.977957 H 8.817123 q 2.106051,0 3.63058,0.455787 1.524529,0.440071 2.514687,1.304494 0.990159,0.848707 1.461663,2.106051 0.471503,1.257344 0.471503,2.860457 z m -10.8445893,4.825057 h 2.0274668 q 1.4616621,0 2.5461215,-0.251469 1.100175,-0.251469 1.807431,-0.801557 0.722973,-0.565804 1.084459,-1.445945 0.361487,-0.895857 0.361487,-2.168918 0,-2.231785 -1.288778,-3.300527 -1.288777,-1.084459 -4.0234998,-1.084459 H 6.0509667 Z" style="font-size:32.188px;line-height:68.6676px;font-family:'Droid Sans';-inkscape-font-specification:'Droid Sans, Normal';white-space:pre;fill:#ffffff" id="path958"/>
            <path d="M 33.602512,0 H 21.673463 v -22.977957 h 11.929049 v 2.577555 h -9.005725 v 7.103992 h 8.408486 v 2.546121 h -8.408486 v 8.1727343 h 9.005725 z" style="font-size:32.188px;line-height:68.6676px;font-family:'Droid Sans';-inkscape-font-specification:'Droid Sans, Normal';white-space:pre;fill:#ffffff" id="path960"/>
            <path d="M 55.87321,0 H 52.494099 L 41.193722,-19.017324 h -0.125734 q 0.0943,1.210193 0.157167,2.40467 0.06287,1.021592 0.0943,2.137484 0.04715,1.115893 0.04715,2.01175 V 0 h -2.703289 v -22.977957 h 3.347677 l 11.253227,18.9230234 h 0.110017 q -0.04715,-1.1944765 -0.110017,-2.3575195 -0.01572,-0.5029375 -0.04715,-1.0215918 -0.01572,-0.534371 -0.04715,-1.0530253 -0.01572,-0.5343711 -0.03143,-1.0215918 0,-0.4872207 0,-0.895857 v -12.573438 h 2.734723 z" style="font-size:32.188px;line-height:68.6676px;font-family:'Droid Sans';-inkscape-font-specification:'Droid Sans, Normal';white-space:pre;fill:#ffffff" id="path962"/>
          </g>
        </g>
        <g id="g1506" inkscape:label="pins">
          <path id="connector10pin" style="fill:none;stroke:#9a916c;stroke-width:1.0499" d="m 19.709528,180.136 a 1.969,1.7849497 0 0 1 -1.969,1.78495 1.969,1.7849497 0 0 1 -1.969,-1.78495 1.969,1.7849497 0 0 1 1.969,-1.78495 1.969,1.7849497 0 0 1 1.969,1.78495 z">
            <title id="title1503">connectorPEN</title>
          </path>
          <path id="connector9pin" style="fill:none;stroke:#9a916c;stroke-width:1.0499" d="m 26.997131,180.12784 a 1.969,1.7849497 0 0 1 -1.969,1.78495 1.969,1.7849497 0 0 1 -1.968999,-1.78495 1.969,1.7849497 0 0 1 1.968999,-1.78495 1.969,1.7849497 0 0 1 1.969,1.78495 z">
            <title id="title1500">connectorCS2</title>
          </path>
          <title id="title1471">Holes</title>
          <path id="connector8pin" style="fill:none;stroke:#9a916c;stroke-width:1.0499" d="m 34.284735,180.12784 a 1.969,1.7849497 0 0 1 -1.969,1.78495 1.969,1.7849497 0 0 1 -1.969,-1.78495 1.969,1.7849497 0 0 1 1.969,-1.78495 1.969,1.7849497 0 0 1 1.969,1.78495 z">
            <title id="title1497">connectorCS1</title>
          </path>
          <path id="connector7pin" style="fill:none;stroke:#9a916c;stroke-width:1.0499" d="m 41.572336,180.12784 a 1.969,1.7849497 0 0 1 -1.969,1.78495 1.969,1.7849497 0 0 1 -1.969,-1.78495 1.969,1.7849497 0 0 1 1.969,-1.78495 1.969,1.7849497 0 0 1 1.969,1.78495 z">
            <title id="title1494">connectorMISO</title>
          </path>
          <path id="connector6pin" style="fill:none;stroke:#9a916c;stroke-width:1.0499" d="m 48.859942,180.12784 a 1.969,1.7849497 0 0 1 -1.969,1.78495 1.969,1.7849497 0 0 1 -1.969,-1.78495 1.969,1.7849497 0 0 1 1.969,-1.78495 1.969,1.7849497 0 0 1 1.969,1.78495 z">
            <title id="title1491">connectorBLK</title>
          </path>
          <path id="connector5pin" style="fill:none;stroke:#9a916c;stroke-width:1.0499" d="m 56.147543,180.12784 a 1.969,1.7849497 0 0 1 -1.969,1.78495 1.969,1.7849497 0 0 1 -1.969,-1.78495 1.969,1.7849497 0 0 1 1.969,-1.78495 1.969,1.7849497 0 0 1 1.969,1.78495 z">
            <title id="title1488">connectorDC</title>
          </path>
          <path id="connector4pin" style="fill:none;stroke:#9a916c;stroke-width:1.0499" d="m 63.435145,180.12784 a 1.969,1.7849497 0 0 1 -1.969,1.78495 1.969,1.7849497 0 0 1 -1.969,-1.78495 1.969,1.7849497 0 0 1 1.969,-1.78495 1.969,1.7849497 0 0 1 1.969,1.78495 z">
            <title id="title1485">connectorRES</title>
          </path>
          <path id="connector3pin" style="fill:none;stroke:#9a916c;stroke-width:1.0499" d="m 70.722746,180.12784 a 1.969,1.7849497 0 0 1 -1.969,1.78495 1.969,1.7849497 0 0 1 -1.969,-1.78495 1.969,1.7849497 0 0 1 1.969,-1.78495 1.969,1.7849497 0 0 1 1.969,1.78495 z">
            <title id="title1482">connectorMOSI</title>
          </path>
          <path id="connector2pin" style="fill:none;stroke:#9a916c;stroke-width:1.0499" d="m 78.010351,180.12784 a 1.969,1.7849497 0 0 1 -1.969,1.78495 1.969,1.7849497 0 0 1 -1.969,-1.78495 1.969,1.7849497 0 0 1 1.969,-1.78495 1.969,1.7849497 0 0 1 1.969,1.78495 z">
            <title id="title1479">connectorCLK</title>
          </path>
          <path id="connector1pin" style="fill:none;stroke:#9a916c;stroke-width:1.0499" d="m 85.297957,180.12784 a 1.969,1.7849497 0 0 1 -1.969,1.78495 1.969,1.7849497 0 0 1 -1.969,-1.78495 1.969,1.7849497 0 0 1 1.969,-1.78495 1.969,1.7849497 0 0 1 1.969,1.78495 z">
            <title id="title1476">connectorVCC</title>
          </path>
          <path id="connector0pin" style="fill:none;stroke:#9a916c;stroke-width:1.0499" d="m 92.585554,180.12784 a 1.969,1.7849497 0 0 1 -1.969,1.78495 1.969,1.7849497 0 0 1 -1.969,-1.78495 1.969,1.7849497 0 0 1 1.969,-1.78495 1.969,1.7849497 0 0 1 1.969,1.78495 z">
            <title id="title1473">connectorGND</title>
          </path>
        </g>
      </g>
      <g id="g1516" inkscape:label="MountingHoles">
        <title id="title1510">Mounting holes</title>
        <path id="connector15pin" style="fill:none;stroke:#9a916c;stroke-width:1.44" d="M 112.26268,180 A 4.2626848,4.263 0 0 1 108,184.263 4.2626848,4.263 0 0 1 103.73732,180 4.2626848,4.263 0 0 1 108,175.737 4.2626848,4.263 0 0 1 112.26268,180 Z"/>
        <path id="connector16pin" style="fill:none;stroke:#9a916c;stroke-width:1.44" d="M 11.463,7.1999998 A 4.263,4.263 0 0 1 7.1999998,11.463 a 4.263,4.263 0 0 1 -4.263,-4.2630002 4.263,4.263 0 0 1 4.263,-4.263 4.263,4.263 0 0 1 4.2630002,4.263 z"/>
        <path id="connector17pin" style="fill:none;stroke:#9a916c;stroke-width:1.44" d="M 112.263,7.1999998 A 4.263,4.263 0 0 1 108,11.463 a 4.263,4.263 0 0 1 -4.263,-4.2630002 4.263,4.263 0 0 1 4.263,-4.263 4.263,4.263 0 0 1 4.263,4.263 z"/>
        <path id="connector18pin" style="fill:none;stroke:#9a916c;stroke-width:1.44" d="m 11.463,180 a 4.263,4.263 0 0 1 -4.2630002,4.263 4.263,4.263 0 0 1 -4.263,-4.263 4.263,4.263 0 0 1 4.263,-4.263 A 4.263,4.263 0 0 1 11.463,180 Z"/>
      </g>
      <g aria-label="2.4' TFT_LCD 240*320 RGB TOUCH" transform="matrix(-0.215933,0,0,-0.196829,97.717407,6.683867)" id="text1520" style="font-size:21.34px;font-family:'Droid Sans';-inkscape-font-specification:'Droid Sans, Normal';white-space:pre;fill:#ffffff">
        <path d="M 10.503281,0 H 1.0003125 v -1.6255078 l 3.6469727,-3.9699903 q 0.7814941,-0.8440137 1.3962695,-1.5421484 0.6147754,-0.6981348 1.0419922,-1.3650098 0.4376367,-0.666875 0.666875,-1.33375 0.2292383,-0.6772947 0.2292383,-1.4692087 0,-0.614776 -0.1771387,-1.083672 -0.1771386,-0.468897 -0.5105761,-0.791914 -0.3230176,-0.333438 -0.7710743,-0.500157 -0.4480566,-0.166718 -1.0003125,-0.166718 -0.9898926,0 -1.7922265,0.406377 -0.7919141,0.395957 -1.5108887,1.021152 l -1.0628321,-1.239971 q 0.4167969,-0.375117 0.8961133,-0.698134 0.4793164,-0.333438 1.0315723,-0.573096 0.5522559,-0.239658 1.1670313,-0.375117 0.6147754,-0.145879 1.2920703,-0.145879 1.0003125,0 1.8026465,0.281338 0.8127539,0.281338 1.3754297,0.812754 0.5626758,0.520996 0.8648535,1.28165 0.3125977,0.750234 0.3125977,1.698447 0,0.885694 -0.2813379,1.6880276 -0.270918,0.802334 -0.7606543,1.5838281 -0.4793165,0.7710742 -1.1566114,1.5525684 -0.666875,0.7814941 -1.4483691,1.6255078 l -2.9279981,3.1155567 v 0.083359 h 7.1793259 z" style="font-size:21.34px;font-family:'Droid Sans';-inkscape-font-specification:'Droid Sans, Normal';white-space:pre;fill:#ffffff" id="path991"/>
        <path d="m 13.2854,-1.1566113 q 0,-0.3959571 0.104199,-0.666875 0.1042,-0.2813379 0.281338,-0.4480567 0.177139,-0.1771387 0.416797,-0.2500781 0.239658,-0.083359 0.520996,-0.083359 0.270918,0 0.510576,0.083359 0.250079,0.072939 0.427217,0.2500781 0.177139,0.1667188 0.281338,0.4480567 0.104199,0.2709179 0.104199,0.666875 0,0.38553708 -0.104199,0.66687497 -0.104199,0.27091797 -0.281338,0.44805664 -0.177138,0.17713868 -0.427217,0.26049805 -0.239658,0.0833594 -0.510576,0.0833594 -0.281338,0 -0.520996,-0.0833594 Q 13.848076,0.13545899 13.670937,-0.04167969 13.493799,-0.21881836 13.389599,-0.48973633 13.2854,-0.77107422 13.2854,-1.1566113 Z" style="font-size:21.34px;font-family:'Droid Sans';-inkscape-font-specification:'Droid Sans, Normal';white-space:pre;fill:#ffffff" id="path993"/>
        <path d="M 28.800664,-3.4177344 H 26.581221 V 0 H 24.747314 V -3.4177344 H 17.713867 V -5.074502 l 6.908408,-10.242783 h 1.958946 v 10.1698436 h 2.219443 z m -4.05335,-1.729707 v -3.7094923 q 0,-0.5835156 0.01042,-1.2191313 0.02084,-0.646035 0.04168,-1.25039 0.02084,-0.614776 0.04168,-1.146192 0.03126,-0.531416 0.04168,-0.885693 h -0.09378 q -0.07294,0.208398 -0.187559,0.468897 -0.104199,0.250078 -0.239658,0.510576 -0.125039,0.250078 -0.260498,0.489736 -0.135459,0.239658 -0.250078,0.406377 l -4.282588,6.3353126 z" style="font-size:21.34px;font-family:'Droid Sans';-inkscape-font-specification:'Droid Sans, Normal';white-space:pre;fill:#ffffff" id="path995"/>
        <path d="m 32.666455,-15.233926 -0.427217,5.5017189 H 31.040947 L 30.61373,-15.233926 Z" style="font-size:21.34px;font-family:'Droid Sans';-inkscape-font-specification:'Droid Sans, Normal';white-space:pre;fill:#ffffff" id="path997"/>
        <path d="m 46.108154,0 h -1.948525 v -13.525059 h -4.355527 v -1.708867 h 10.64916 v 1.708867 h -4.345108 z" style="font-size:21.34px;font-family:'Droid Sans';-inkscape-font-specification:'Droid Sans, Normal';white-space:pre;fill:#ffffff" id="path999"/>
        <path d="m 54.683751,0 h -1.938106 v -15.233926 h 7.908721 v 1.708867 h -5.970615 v 5.37668 h 5.574658 v 1.7088672 h -5.574658 z" style="font-size:21.34px;font-family:'Droid Sans';-inkscape-font-specification:'Droid Sans, Normal';white-space:pre;fill:#ffffff" id="path1001"/>
        <path d="M 67.666973,0 H 65.718448 V -13.525059 H 61.36292 v -1.708867 h 10.649161 v 1.708867 h -4.345108 z" style="font-size:21.34px;font-family:'Droid Sans';-inkscape-font-specification:'Droid Sans, Normal';white-space:pre;fill:#ffffff" id="path1003"/>
        <path d="M 81.04615,3.3760547 H 72.189216 V 1.9172656 h 8.856934 z" style="font-size:21.34px;font-family:'Droid Sans';-inkscape-font-specification:'Droid Sans, Normal';white-space:pre;fill:#ffffff" id="path1005"/>
        <path d="m 83.078035,0 v -15.233926 h 1.938106 v 13.504219 h 5.970615 V 0 Z" style="font-size:21.34px;font-family:'Droid Sans';-inkscape-font-specification:'Droid Sans, Normal';white-space:pre;fill:#ffffff" id="path1007"/>
        <path d="m 99.541517,-13.743877 q -1.114932,0 -2.021465,0.427217 -0.906533,0.416797 -1.552568,1.208711 -0.635616,0.791914 -0.989893,1.927685 -0.343857,1.1357717 -0.343857,2.5633011 0,1.4692089 0.302177,2.6154004 0.312598,1.1357715 0.927373,1.9172656 0.614776,0.7814941 1.531729,1.1878711 0.916953,0.406377 2.146504,0.406377 0.927373,0 1.760963,-0.1771387 0.8336,-0.1875586 1.64635,-0.4272168 v 1.68802734 q -0.40638,0.15629883 -0.81275,0.2813379 -0.40638,0.11461914 -0.85444,0.18755859 -0.43763,0.07293946 -0.94821,0.10419922 -0.500155,0.0416797 -1.114931,0.0416797 -1.708867,0 -2.959258,-0.56267579 -1.25039,-0.56267578 -2.073564,-1.59424805 -0.812754,-1.0315723 -1.208711,-2.4799414 -0.395957,-1.4483692 -0.395957,-3.209336 0,-1.729707 0.448057,-3.1676562 0.458476,-1.437949 1.33375,-2.469522 0.885693,-1.031572 2.188183,-1.604668 1.30249,-0.573095 2.990518,-0.573095 1.125353,0 2.146503,0.229238 1.02115,0.229238 1.84433,0.666875 l -0.81276,1.625508 q -0.65645,-0.333438 -1.42753,-0.573096 -0.77107,-0.239658 -1.750543,-0.239658 z" style="font-size:21.34px;font-family:'Droid Sans';-inkscape-font-specification:'Droid Sans, Normal';white-space:pre;fill:#ffffff" id="path1009"/>
        <path d="m 117.44294,-7.7628419 q 0,1.9276856 -0.50016,3.3864747 -0.50015,1.4483691 -1.44837,2.4278418 -0.94821,0.96905274 -2.33406,1.45878907 Q 111.78492,0 110.03437,0 h -3.81369 v -15.233926 h 4.24091 q 1.59425,0 2.88632,0.479317 1.29207,0.479316 2.1986,1.427529 0.90654,0.937793 1.39627,2.334062 0.50016,1.3962699 0.50016,3.2301761 z m -2.05273,0.06252 q 0,-1.5213086 -0.34385,-2.6258207 -0.34386,-1.114931 -1.00032,-1.833906 -0.65645,-0.718975 -1.61508,-1.062832 -0.95864,-0.354277 -2.17777,-0.354277 h -2.0944 v 11.9099705 h 1.68802 q 2.75086,0 4.14713,-1.5213086 1.39627,-1.5213086 1.39627,-4.5118262 z" style="font-size:21.34px;font-family:'Droid Sans';-inkscape-font-specification:'Droid Sans, Normal';white-space:pre;fill:#ffffff" id="path1011"/>
        <path d="m 134.79211,0 h -9.50297 v -1.6255078 l 3.64697,-3.9699903 q 0.7815,-0.8440137 1.39627,-1.5421484 0.61478,-0.6981348 1.04199,-1.3650098 0.43764,-0.666875 0.66688,-1.33375 0.22924,-0.6772947 0.22924,-1.4692087 0,-0.614776 -0.17714,-1.083672 -0.17714,-0.468897 -0.51058,-0.791914 -0.32302,-0.333438 -0.77107,-0.500157 -0.44806,-0.166718 -1.00032,-0.166718 -0.98989,0 -1.79222,0.406377 -0.79192,0.395957 -1.51089,1.021152 l -1.06283,-1.239971 q 0.41679,-0.375117 0.89611,-0.698134 0.47932,-0.333438 1.03157,-0.573096 0.55226,-0.239658 1.16703,-0.375117 0.61478,-0.145879 1.29207,-0.145879 1.00032,0 1.80265,0.281338 0.81275,0.281338 1.37543,0.812754 0.56268,0.520996 0.86485,1.28165 0.3126,0.750234 0.3126,1.698447 0,0.885694 -0.28134,1.6880276 -0.27091,0.802334 -0.76065,1.5838281 -0.47932,0.7710742 -1.15661,1.5525684 -0.66688,0.7814941 -1.44837,1.6255078 l -2.928,3.1155567 v 0.083359 h 7.17933 z" style="font-size:21.34px;font-family:'Droid Sans';-inkscape-font-specification:'Droid Sans, Normal';white-space:pre;fill:#ffffff" id="path1013"/>
        <path d="m 147.36895,-3.4177344 h -2.21944 V 0 h -1.83391 v -3.4177344 h -7.03345 V -5.074502 l 6.90841,-10.242783 h 1.95895 v 10.1698436 h 2.21944 z m -4.05335,-1.729707 v -3.7094923 q 0,-0.5835156 0.0104,-1.2191313 0.0208,-0.646035 0.0417,-1.25039 0.0208,-0.614776 0.0417,-1.146192 0.0313,-0.531416 0.0417,-0.885693 h -0.0938 q -0.0729,0.208398 -0.18756,0.468897 -0.1042,0.250078 -0.23966,0.510576 -0.12503,0.250078 -0.26049,0.489736 -0.13546,0.239658 -0.25008,0.406377 l -4.28259,6.3353126 z" style="font-size:21.34px;font-family:'Droid Sans';-inkscape-font-specification:'Droid Sans, Normal';white-space:pre;fill:#ffffff" id="path1015"/>
        <path d="m 158.54953,-7.6378028 q 0,1.8443262 -0.27092,3.3031153 -0.26049,1.458789 -0.85443,2.4695215 -0.58351,1.0107324 -1.51089,1.54214842 -0.92737,0.53141602 -2.2507,0.53141602 -1.22955,0 -2.1465,-0.53141602 -0.90654,-0.53141602 -1.51089,-1.54214842 -0.59394,-1.0107325 -0.89612,-2.4695215 -0.29175,-1.4587891 -0.29175,-3.3031153 0,-1.8443262 0.26049,-3.3031152 0.27092,-1.458789 0.84402,-2.459102 0.58351,-1.010732 1.50047,-1.542148 0.92737,-0.531416 2.24028,-0.531416 1.23997,0 2.15692,0.531416 0.91696,0.520996 1.52131,1.531728 0.60436,1.000313 0.90653,2.459102 0.30218,1.4587891 0.30218,3.3135352 z m -7.80452,0 q 0,1.5629883 0.1563,2.7300196 0.1563,1.1670312 0.50016,1.9485254 0.34385,0.7710742 0.89611,1.1670312 0.56268,0.3855371 1.36501,0.3855371 0.80233,0 1.36501,-0.3855371 0.56267,-0.3855371 0.91695,-1.1566113 0.3647,-0.7710742 0.521,-1.9381055 0.16672,-1.1774512 0.16672,-2.7508594 0,-1.5629883 -0.16672,-2.7300192 -0.1563,-1.167032 -0.521,-1.938106 -0.35428,-0.771074 -0.91695,-1.156611 -0.56268,-0.385537 -1.36501,-0.385537 -0.80233,0 -1.36501,0.385537 -0.55226,0.385537 -0.89611,1.156611 -0.34386,0.771074 -0.50016,1.938106 -0.1563,1.1670309 -0.1563,2.7300192 z" style="font-size:21.34px;font-family:'Droid Sans';-inkscape-font-specification:'Droid Sans, Normal';white-space:pre;fill:#ffffff" id="path1017"/>
        <path d="m 166.46866,-16.213399 -0.44805,4.09503 4.13671,-1.156612 0.27091,2.011045 -3.93873,0.291758 2.55288,3.3968947 -1.85474,1.0003125 -1.83391,-3.7303322 -1.64635,3.7303322 -1.91726,-1.0003125 2.52162,-3.3968947 -3.90747,-0.291758 0.30218,-2.011045 4.07419,1.156612 -0.44806,-4.09503 z" style="font-size:21.34px;font-family:'Droid Sans';-inkscape-font-specification:'Droid Sans, Normal';white-space:pre;fill:#ffffff" id="path1019"/>
        <path d="m 181.31706,-11.670313 q 0,0.760655 -0.23966,1.38585 -0.23966,0.6251954 -0.6773,1.0836719 -0.42721,0.4584766 -1.03157,0.7606543 -0.60435,0.2917578 -1.34417,0.4167969 v 0.062519 q 1.84433,0.2292383 2.80296,1.1774512 0.95863,0.937793 0.95863,2.4486817 0,1.0003125 -0.34385,1.8339062 -0.33344,0.8335938 -1.02116,1.4379493 -0.68771,0.60435543 -1.74012,0.93779294 -1.05241,0.3334375 -2.49036,0.3334375 -1.13578,0 -2.14651,-0.17713867 -1.00031,-0.17713868 -1.886,-0.64603517 v -1.7713867 q 0.90653,0.4793164 1.95894,0.7398144 1.06283,0.2604981 2.03189,0.2604981 0.95863,0 1.65676,-0.2083985 0.69814,-0.2083984 1.1462,-0.5939355 0.45847,-0.3855371 0.66687,-0.9482129 0.21882,-0.5626758 0.21882,-1.2608106 0,-0.7085547 -0.28134,-1.2087109 -0.27092,-0.5105762 -0.78149,-0.8335938 -0.51058,-0.3334375 -1.25039,-0.4897363 -0.7294,-0.1562988 -1.65677,-0.1562988 h -1.38585 v -1.5734082 h 1.38585 q 0.84401,0 1.50047,-0.2083985 0.65645,-0.2083984 1.09409,-0.5939355 0.44806,-0.3855371 0.67729,-0.9169529 0.22924,-0.531416 0.22924,-1.167032 0,-0.541835 -0.18756,-0.969052 -0.18756,-0.427217 -0.53141,-0.718975 -0.34386,-0.302178 -0.82318,-0.458476 -0.47931,-0.156299 -1.06283,-0.156299 -1.11493,0 -1.96936,0.354277 -0.84402,0.343857 -1.61509,0.906533 l -0.95863,-1.30249 q 0.39595,-0.323018 0.87527,-0.604355 0.48974,-0.281338 1.06283,-0.489737 0.5731,-0.218818 1.21913,-0.343857 0.65646,-0.125039 1.38585,-0.125039 1.12535,0 1.96937,0.281338 0.85443,0.281338 1.42753,0.791914 0.57309,0.500156 0.86485,1.198291 0.29176,0.687715 0.29176,1.510888 z" style="font-size:21.34px;font-family:'Droid Sans';-inkscape-font-specification:'Droid Sans, Normal';white-space:pre;fill:#ffffff" id="path1021"/>
        <path d="m 193.56047,0 h -9.50297 v -1.6255078 l 3.64698,-3.9699903 q 0.78149,-0.8440137 1.39626,-1.5421484 0.61478,-0.6981348 1.042,-1.3650098 0.43763,-0.666875 0.66687,-1.33375 0.22924,-0.6772947 0.22924,-1.4692087 0,-0.614776 -0.17714,-1.083672 -0.17714,-0.468897 -0.51057,-0.791914 -0.32302,-0.333438 -0.77108,-0.500157 -0.44806,-0.166718 -1.00031,-0.166718 -0.98989,0 -1.79223,0.406377 -0.79191,0.395957 -1.51089,1.021152 l -1.06283,-1.239971 q 0.4168,-0.375117 0.89611,-0.698134 0.47932,-0.333438 1.03158,-0.573096 0.55225,-0.239658 1.16703,-0.375117 0.61477,-0.145879 1.29207,-0.145879 1.00031,0 1.80264,0.281338 0.81276,0.281338 1.37543,0.812754 0.56268,0.520996 0.86486,1.28165 0.3126,0.750234 0.3126,1.698447 0,0.885694 -0.28134,1.6880276 -0.27092,0.802334 -0.76066,1.5838281 -0.47931,0.7710742 -1.15661,1.5525684 -0.66687,0.7814941 -1.44837,1.6255078 l -2.92799,3.1155567 v 0.083359 h 7.17932 z" style="font-size:21.34px;font-family:'Droid Sans';-inkscape-font-specification:'Droid Sans, Normal';white-space:pre;fill:#ffffff" id="path1023"/>
        <path d="m 205.56421,-7.6378028 q 0,1.8443262 -0.27092,3.3031153 -0.26049,1.458789 -0.85443,2.4695215 -0.58352,1.0107324 -1.51089,1.54214842 -0.92737,0.53141602 -2.2507,0.53141602 -1.22955,0 -2.14651,-0.53141602 -0.90653,-0.53141602 -1.51088,-1.54214842 -0.59394,-1.0107325 -0.89612,-2.4695215 -0.29176,-1.4587891 -0.29176,-3.3031153 0,-1.8443262 0.2605,-3.3031152 0.27092,-1.458789 0.84402,-2.459102 0.58351,-1.010732 1.50046,-1.542148 0.92738,-0.531416 2.24029,-0.531416 1.23997,0 2.15692,0.531416 0.91696,0.520996 1.52131,1.531728 0.60436,1.000313 0.90653,2.459102 0.30218,1.4587891 0.30218,3.3135352 z m -7.80452,0 q 0,1.5629883 0.1563,2.7300196 0.1563,1.1670312 0.50016,1.9485254 0.34385,0.7710742 0.89611,1.1670312 0.56267,0.3855371 1.36501,0.3855371 0.80233,0 1.36501,-0.3855371 0.56267,-0.3855371 0.91695,-1.1566113 0.3647,-0.7710742 0.521,-1.9381055 0.16672,-1.1774512 0.16672,-2.7508594 0,-1.5629883 -0.16672,-2.7300192 -0.1563,-1.167032 -0.521,-1.938106 -0.35428,-0.771074 -0.91695,-1.156611 -0.56268,-0.385537 -1.36501,-0.385537 -0.80234,0 -1.36501,0.385537 -0.55226,0.385537 -0.89611,1.156611 -0.34386,0.771074 -0.50016,1.938106 -0.1563,1.1670309 -0.1563,2.7300192 z" style="font-size:21.34px;font-family:'Droid Sans';-inkscape-font-specification:'Droid Sans, Normal';white-space:pre;fill:#ffffff" id="path1025"/>
        <path d="M 216.1196,-6.2936329 V 0 h -1.93811 v -15.233926 h 3.70949 q 2.7717,0 4.09503,1.073252 1.32333,1.073252 1.32333,3.251016 0,0.906533 -0.2605,1.5838279 -0.25007,0.6772949 -0.67729,1.1670312 -0.4168,0.4793164 -0.95863,0.802334 -0.54184,0.3230176 -1.11494,0.531416 L 224.44511,0 h -2.28196 l -3.65739,-6.2936329 z m 0,-1.6463476 h 1.70886 q 0.9378,0 1.59425,-0.1771387 0.65646,-0.1875586 1.07325,-0.5418359 0.42722,-0.3646973 0.61478,-0.8961133 0.19798,-0.5418356 0.19798,-1.2608106 0,-0.750234 -0.21882,-1.27123 -0.2084,-0.520997 -0.64604,-0.854434 -0.42721,-0.333438 -1.09409,-0.479316 -0.65645,-0.156299 -1.56299,-0.156299 h -1.66718 z" style="font-size:21.34px;font-family:'Droid Sans';-inkscape-font-specification:'Droid Sans, Normal';white-space:pre;fill:#ffffff" id="path1027"/>
        <path d="m 232.84357,-8.0441797 h 5.04324 v 7.47108399 q -0.57309,0.1875586 -1.15661,0.33343751 Q 236.14668,-0.0937793 235.53191,0 q -0.61478,0.10419922 -1.29207,0.15629883 -0.6773,0.0520996 -1.45879,0.0520996 -1.63593,0 -2.89674,-0.54183594 -1.26081,-0.55225587 -2.12566,-1.5629883 -0.86486,-1.0211523 -1.31291,-2.4695215 -0.44806,-1.4587891 -0.44806,-3.2718555 0,-1.7922266 0.48974,-3.2405962 0.50015,-1.448369 1.44837,-2.459101 0.94821,-1.021152 2.33406,-1.562988 1.39627,-0.552256 3.17807,-0.552256 1.15662,0 2.21945,0.229238 1.06283,0.229238 1.97978,0.666875 l -0.75023,1.688027 q -0.37512,-0.177138 -0.81275,-0.333437 -0.42722,-0.156299 -0.8857,-0.270918 -0.45847,-0.125039 -0.94821,-0.197979 -0.47932,-0.07294 -0.95863,-0.07294 -1.27123,0 -2.25071,0.427217 -0.97947,0.416797 -1.64634,1.208711 -0.65646,0.791914 -1.00032,1.927685 -0.34385,1.1357717 -0.34385,2.5633011 0,1.3545898 0.28133,2.4799414 0.29176,1.1253515 0.91696,1.9381055 0.62519,0.8127539 1.61508,1.2608105 0.9899,0.4480567 2.38617,0.4480567 0.45847,0 0.83359,-0.02084 0.38554,-0.03126 0.70855,-0.072939 0.32302,-0.04168 0.60436,-0.093779 0.29176,-0.06252 0.56268,-0.1146192 v -4.5430859 h -3.11556 z" style="font-size:21.34px;font-family:'Droid Sans';-inkscape-font-specification:'Droid Sans, Normal';white-space:pre;fill:#ffffff" id="path1029"/>
        <path d="m 241.49211,-15.233926 h 4.15755 q 1.33375,0 2.34448,0.208399 1.02116,0.197978 1.69845,0.656455 0.68772,0.448056 1.03157,1.187871 0.34386,0.729394 0.34386,1.802646 0,0.646035 -0.2084,1.208711 -0.19798,0.562676 -0.58351,0.9898928 -0.38554,0.4272168 -0.95864,0.7189746 -0.56267,0.2813379 -1.28165,0.3751172 v 0.1041992 q 0.71898,0.1250391 1.34417,0.3646973 0.63562,0.2292382 1.10452,0.6460351 0.46889,0.406377 0.73981,1.0315723 0.27092,0.6251953 0.27092,1.5213086 0,1.0419922 -0.34386,1.865166 -0.33344,0.8127539 -0.97947,1.3858496 -0.63562,0.56267583 -1.55257,0.86485356 Q 247.70239,0 246.54578,0 h -5.05367 z m 1.93811,6.4603517 h 2.54246 q 0.87527,0 1.46921,-0.1562988 0.59393,-0.1562988 0.95863,-0.4584766 0.3647,-0.3125976 0.521,-0.7710743 0.16672,-0.468896 0.16672,-1.083672 0,-1.25039 -0.80234,-1.792226 -0.80233,-0.541836 -2.53204,-0.541836 h -2.32364 z m 0,1.6255078 v 5.5017188 h 2.7717 q 0.91695,0 1.53173,-0.2083984 0.62519,-0.2083984 1.00031,-0.5835156 0.38554,-0.3751172 0.55225,-0.8961133 0.16672,-0.531416 0.16672,-1.1670313 0,-0.5835156 -0.17714,-1.0732519 -0.16671,-0.4897364 -0.56267,-0.8335938 -0.38554,-0.3542773 -1.03157,-0.5418359 -0.64604,-0.1979786 -1.60467,-0.1979786 z" style="font-size:21.34px;font-family:'Droid Sans';-inkscape-font-specification:'Droid Sans, Normal';white-space:pre;fill:#ffffff" id="path1031"/>
        <path d="m 264.72855,0 h -1.94853 v -13.525059 h -4.35553 v -1.708867 h 10.64916 v 1.708867 h -4.3451 z" style="font-size:21.34px;font-family:'Droid Sans';-inkscape-font-specification:'Droid Sans, Normal';white-space:pre;fill:#ffffff" id="path1033"/>
        <path d="m 283.17178,-7.6378028 q 0,1.7609668 -0.42722,3.209336 -0.41679,1.4483691 -1.25039,2.4799414 -0.83359,1.03157227 -2.07356,1.59424805 -1.22955,0.56267579 -2.84464,0.56267579 -1.69845,0 -2.94884,-0.56267579 -1.23997,-0.56267578 -2.06314,-1.59424805 -0.81276,-1.0315723 -1.20871,-2.4799414 -0.39596,-1.4587891 -0.39596,-3.2301758 0,-1.7713868 0.39596,-3.2093364 0.39595,-1.448369 1.21913,-2.469521 0.82317,-1.021152 2.07356,-1.573408 1.25039,-0.562676 2.94884,-0.562676 1.61509,0 2.83422,0.562676 1.22955,0.552256 2.06314,1.583828 0.8336,1.021152 1.25039,2.469521 0.42722,1.4379496 0.42722,3.2197562 z m -11.15974,0 q 0,1.4275293 0.27092,2.5737207 0.27092,1.1357715 0.82318,1.9381055 0.56267,0.7919141 1.41711,1.2191309 0.86485,0.4167969 2.05272,0.4167969 1.18787,0 2.04231,-0.4167969 0.86485,-0.4272168 1.4171,-1.2191309 0.56268,-0.802334 0.82318,-1.9381055 0.2605,-1.1461914 0.2605,-2.5737207 0,-1.4379492 -0.2605,-2.5737212 -0.2605,-1.135771 -0.81276,-1.917265 -0.55225,-0.791914 -1.40668,-1.208711 -0.85444,-0.427217 -2.04231,-0.427217 -1.18787,0 -2.05272,0.427217 -0.86486,0.416797 -1.42753,1.208711 -0.56268,0.781494 -0.8336,1.917265 -0.27092,1.135772 -0.27092,2.5737212 z" style="font-size:21.34px;font-family:'Droid Sans';-inkscape-font-specification:'Droid Sans, Normal';white-space:pre;fill:#ffffff" id="path1035"/>
        <path d="m 297.46792,-15.254766 v 9.8780863 q 0,1.1878711 -0.34386,2.2090234 -0.34385,1.0211524 -1.04199,1.7713868 -0.68771,0.75023434 -1.74013,1.17745114 -1.04199,0.4272168 -2.4591,0.4272168 -1.33375,0 -2.3549,-0.39595704 -1.02115,-0.40637695 -1.71929,-1.1461914 -0.68771,-0.7398145 -1.04199,-1.7713867 -0.35428,-1.0419922 -0.35428,-2.3132227 v -9.8155666 h 1.94853 v 9.9197658 q 0,1.8234863 0.89611,2.8237989 0.90653,1.0003125 2.73002,1.0003125 0.92737,0 1.59425,-0.2813379 0.66687,-0.2813379 1.09409,-0.7919141 0.42722,-0.5105762 0.63562,-1.2191309 0.20839,-0.7085547 0.21881,-1.5525683 v -9.919766 z" style="font-size:21.34px;font-family:'Droid Sans';-inkscape-font-specification:'Droid Sans, Normal';white-space:pre;fill:#ffffff" id="path1037"/>
        <path d="m 307.65863,-13.743877 q -1.11493,0 -2.02147,0.427217 -0.90653,0.416797 -1.55257,1.208711 -0.63561,0.791914 -0.98989,1.927685 -0.34386,1.1357717 -0.34386,2.5633011 0,1.4692089 0.30218,2.6154004 0.3126,1.1357715 0.92738,1.9172656 0.61477,0.7814941 1.53172,1.1878711 0.91696,0.406377 2.14651,0.406377 0.92737,0 1.76096,-0.1771387 0.8336,-0.1875586 1.64635,-0.4272168 v 1.68802734 q -0.40637,0.15629883 -0.81275,0.2813379 -0.40638,0.11461914 -0.85444,0.18755859 -0.43763,0.07293946 -0.94821,0.10419922 -0.50015,0.0416797 -1.11493,0.0416797 -1.70887,0 -2.95926,-0.56267579 -1.25039,-0.56267578 -2.07356,-1.59424805 -0.81276,-1.0315723 -1.20871,-2.4799414 -0.39596,-1.4483692 -0.39596,-3.209336 0,-1.729707 0.44806,-3.1676562 0.45847,-1.437949 1.33375,-2.469522 0.88569,-1.031572 2.18818,-1.604668 1.30249,-0.573095 2.99052,-0.573095 1.12535,0 2.1465,0.229238 1.02115,0.229238 1.84433,0.666875 l -0.81276,1.625508 q -0.65645,-0.333438 -1.42753,-0.573096 -0.77107,-0.239658 -1.75054,-0.239658 z" style="font-size:21.34px;font-family:'Droid Sans';-inkscape-font-specification:'Droid Sans, Normal';white-space:pre;fill:#ffffff" id="path1039"/>
        <path d="m 325.15366,0 h -1.9381 v -7.1063868 h -6.93967 V 0 h -1.9381 v -15.233926 h 1.9381 v 6.418672 h 6.93967 v -6.418672 h 1.9381 z" style="font-size:21.34px;font-family:'Droid Sans';-inkscape-font-specification:'Droid Sans, Normal';white-space:pre;fill:#ffffff" id="path1041"/>
      </g>
      <g id="g1532" style="display:inline" inkscape:label="white frame">
        <title id="title1522">package:TM022HDH26_2.2IN_LCD</title>
        <path id="line1524" style="fill:none;stroke:#ffffff;stroke-width:0.36;stroke-linecap:round" d="M 0.198,14.573 H 115.001"/>
        <path id="line1526" style="fill:none;stroke:#ffffff;stroke-width:0.36;stroke-linecap:round" d="M 0.198,172.179 V 14.573"/>
        <path id="line1528" style="fill:none;stroke:#ffffff;stroke-width:0.36;stroke-linecap:round" d="M 115.001,14.573 V 172.179"/>
        <path id="line1530" style="fill:none;stroke:#ffffff;stroke-width:0.36;stroke-linecap:round" d="M 115.001,172.179 H 0.198"/>
      </g>
      <g id="g1544" style="display:inline" inkscape:label="ScreenArea">
        <title id="title1534">Screen</title>
        <path id="rect1538" style="fill:#d8d8d8;stroke:#000000;stroke-width:0px" inkscape:label="frame" transform="scale(-1)" d="M -115.2,-171.384 H 0 v 155.56799 h -115.2 z">
          <title id="title1536">Frame</title>
        </path>
        <path id="rect1542" style="display:inline;stroke:#000000;stroke-width:0px" inkscape:label="screen" transform="scale(-1)" d="M -112.64,-168.013 H -2.276001 V -18.975006 H -112.64 Z">
          <title id="title1540">Screen</title>
        </path>
      </g>
    </g>
  </g>
</svg>