<!-- Created with Inkscape (http://www.inkscape.org/) --><svg xmlns:inkscape="http://www.inkscape.org/namespaces/inkscape" xmlns:sodipodi="http://sodipodi.sourceforge.net/DTD/sodipodi-0.dtd" xmlns="http://www.w3.org/2000/svg" xmlns:svg="http://www.w3.org/2000/svg" width="35.560001mm" height="8.6359968mm" viewBox="0 0 35.560001 8.6359969" version="1.1" id="svg5" inkscape:version="1.1.1 (3bf5ae0d25, 2021-09-20)" sodipodi:docname="input.svg">
  <sodipodi:namedview id="namedview7" pagecolor="#ffffff" bordercolor="#666666" borderopacity="1.0" inkscape:pageshadow="2" inkscape:pageopacity="0.0" inkscape:pagecheckerboard="0" inkscape:document-units="mm" showgrid="true" inkscape:zoom="8" inkscape:cx="89.3125" inkscape:cy="-2.6875" inkscape:window-width="1783" inkscape:window-height="1368" inkscape:window-x="2840" inkscape:window-y="1200" inkscape:window-maximized="0" inkscape:current-layer="breadboard" objecttolerance="20" inkscape:snap-global="true" inkscape:snap-nodes="true" inkscape:snap-others="true" inkscape:snap-to-guides="true" guidetolerance="10000" inkscape:snap-object-midpoints="true" inkscape:snap-bbox="true" inkscape:snap-bbox-midpoints="true" inkscape:snap-bbox-edge-midpoints="true" inkscape:object-nodes="false" inkscape:snap-center="true" fit-margin-top="0" fit-margin-left="0" fit-margin-right="0" fit-margin-bottom="0" showguides="true" inkscape:guide-bbox="true" inkscape:bbox-nodes="true" inkscape:bbox-paths="true">
    <inkscape:grid type="xygrid" id="grid9" spacingx="0.254" spacingy="0.254" originx="36.167954" originy="-1.9429781"/>
    <sodipodi:guide position="0.099956618,2.9589753" orientation="1,0" id="guide137901"/>
  </sodipodi:namedview>
  <defs id="defs2">
    <linearGradient id="linearGradient2068" inkscape:swatch="solid">
      <stop style="stop-color:#7f3f98;stop-opacity:1;" offset="0" id="stop2066"/>
    </linearGradient>
  </defs>
  <g inkscape:label="Layer 1" inkscape:groupmode="layer" id="layer1" style="display:inline" transform="translate(36.040956,-2.0699781)">
    <g id="breadboard" transform="matrix(1.0857143,0,0,1.0545455,0.4971143,0.50107273)">
      <g id="breadboard-5" transform="matrix(0.3249269,0,0,0.33453064,-34.823222,-0.43914474)" style="display:inline" inkscape:label="original">
        <g id="g177390" inkscape:label="Pins">
          <path id="connector1pin" style="fill:#999999" d="m 5.7600002,27.360001 h 2.8800001 v 2.88 H 5.7600002 Z"/>
          <path id="connector2pin" style="fill:#999999" d="m 12.96,27.360001 h 2.88 v 2.88 h -2.88 z"/>
          <path id="connector3pin" style="fill:#999999" d="m 20.16,27.360001 h 2.88 v 2.88 h -2.88 z"/>
          <path id="connector4pin" style="fill:#999999" d="m 27.360001,27.360001 h 2.88 v 2.88 h -2.88 z"/>
          <path id="connector5pin" style="fill:#999999" d="m 34.560001,27.360001 h 2.88 v 2.88 h -2.88 z"/>
          <path id="connector6pin" style="fill:#999999" d="m 41.759998,27.360001 h 2.88 v 2.88 h -2.88 z"/>
          <path id="connector7pin" style="fill:#999999" d="m 48.959999,27.360001 h 2.88 v 2.88 h -2.88 z"/>
          <path id="connector8pin" style="fill:#999999" d="m 56.16,27.360001 h 2.88 v 2.88 h -2.88 z"/>
          <path id="connector9pin" style="fill:#999999" d="m 63.360001,27.360001 h 2.88 v 2.88 h -2.88 z"/>
          <path id="connector10pin" style="fill:#999999" d="m 70.559998,27.360001 h 2.88 v 2.88 h -2.88 z"/>
          <path id="connector11pin" style="fill:#999999" d="m 77.754044,27.36001 h 2.88 v 2.88 h -2.88 z"/>
          <path id="connector12pin" style="fill:#999999" d="m 84.95433,27.36001 h 2.88 v 2.88 h -2.88 z"/>
          <path id="connector13pin" style="fill:#999999" d="m 92.159996,27.36001 h 2.88 v 2.88 h -2.88 z"/>
          <path id="connector14pin" style="fill:#999999" d="M 99.360001,27.36001 H 102.24 v 2.88 h -2.879999 z"/>
          <path id="connector15pin" style="fill:#999999" d="M 99.360001,5.7600098 H 102.24 v 2.8800001 h -2.879999 z"/>
          <path id="connector16pin" style="fill:#999999" d="m 92.160004,5.7600098 h 2.88 v 2.8800001 h -2.88 z"/>
          <path id="connector17pin" style="fill:#999999" d="m 84.959999,5.7600098 h 2.88 v 2.8800001 h -2.88 z"/>
          <path id="connector18pin" style="fill:#999999" d="m 77.760002,5.7600098 h 2.88 v 2.8800001 h -2.88 z"/>
          <path id="connector19pin" style="fill:#999999" d="m 70.559998,5.7600098 h 2.88 v 2.8800001 h -2.88 z"/>
          <path id="connector20pin" style="fill:#999999" d="m 63.360001,5.7600098 h 2.88 v 2.8800001 h -2.88 z"/>
          <path id="connector21pin" style="fill:#999999" d="m 56.16,5.7600098 h 2.88 v 2.8800001 h -2.88 z"/>
          <path id="connector22pin" style="fill:#999999" d="m 48.959999,5.7600098 h 2.88 v 2.8800001 h -2.88 z"/>
          <path id="connector23pin" style="fill:#999999" d="m 41.759998,5.7600098 h 2.88 v 2.8800001 h -2.88 z"/>
          <path id="connector24pin" style="fill:#999999" d="m 34.560001,5.7600098 h 2.88 v 2.8800001 h -2.88 z"/>
          <path id="connector25pin" style="fill:#999999" d="m 27.360001,5.7600098 h 2.88 v 2.8800001 h -2.88 z"/>
          <path id="connector26pin" style="fill:#999999" d="m 20.16,5.7600098 h 2.88 v 2.8800001 h -2.88 z"/>
          <path id="connector27pin" style="fill:#999999" d="m 12.96,5.7600098 h 2.88 v 2.8800001 h -2.88 z"/>
          <path id="connector28pin" style="fill:#999999" d="M 5.7600002,5.7600098 H 8.6400003 V 8.6400099 H 5.7600002 Z"/>
        </g>
        <path d="M 12.96,27.36 11.88,26.64 V 25.2 h 5.04 v 1.44 l -1.08,0.72" id="path5756" fill-opacity="1" style="color:#000000;display:inline;overflow:visible;visibility:visible;fill-rule:nonzero;marker:none;enable-background:accumulate" stroke="none" stroke-width="0" fill="#999999"/>
        <path d="M 5.76,27.36 V 25.2 h 3.96 v 1.44 l -1.08,0.72" id="path5758" fill-opacity="1" style="color:#000000;display:inline;overflow:visible;visibility:visible;fill-rule:nonzero;marker:none;enable-background:accumulate" stroke="none" stroke-width="0" fill="#999999"/>
        <path d="M 20.16,27.36 19.08,26.64 V 25.2 h 5.04 v 1.44 l -1.08,0.72" id="path5760" fill-opacity="1" style="color:#000000;display:inline;overflow:visible;visibility:visible;fill-rule:nonzero;marker:none;enable-background:accumulate" stroke="none" stroke-width="0" fill="#999999"/>
        <path d="M 27.36,27.36 26.28,26.64 V 25.2 h 5.04 v 1.44 l -1.08,0.72" id="path5762" fill-opacity="1" style="color:#000000;display:inline;overflow:visible;visibility:visible;fill-rule:nonzero;marker:none;enable-background:accumulate" stroke="none" stroke-width="0" fill="#999999"/>
        <path d="M 34.56,27.36 33.48,26.64 V 25.2 h 5.04 v 1.44 l -1.08,0.72" id="path5764" fill-opacity="1" style="color:#000000;display:inline;overflow:visible;visibility:visible;fill-rule:nonzero;marker:none;enable-background:accumulate" stroke="none" stroke-width="0" fill="#999999"/>
        <path d="M 41.76,27.36 40.68,26.64 V 25.2 h 5.04 v 1.44 l -1.08,0.72" id="path5766" fill-opacity="1" style="color:#000000;display:inline;overflow:visible;visibility:visible;fill-rule:nonzero;marker:none;enable-background:accumulate" stroke="none" stroke-width="0" fill="#999999"/>
        <path d="M 48.96,27.36 47.88,26.64 V 25.2 h 5.04 v 1.44 l -1.08,0.72" id="path5768" fill-opacity="1" style="color:#000000;display:inline;overflow:visible;visibility:visible;fill-rule:nonzero;marker:none;enable-background:accumulate" stroke="none" stroke-width="0" fill="#999999"/>
        <path d="M 102.24,27.36 V 25.2 h -3.96 v 1.44 l 1.08,0.72" id="path5770" fill-opacity="1" style="color:#000000;display:inline;overflow:visible;visibility:visible;fill-rule:nonzero;marker:none;enable-background:accumulate" stroke="none" stroke-width="0" fill="#999999"/>
        <path d="m 12.96,8.64 -1.08,0.72 v 1.44 h 5.04 V 9.36 L 15.84,8.64" id="path5772" fill-opacity="1" style="color:#000000;display:inline;overflow:visible;visibility:visible;fill-rule:nonzero;marker:none;enable-background:accumulate" stroke="none" stroke-width="0" fill="#999999"/>
        <path d="M 5.76,8.64 V 10.8 H 9.72 V 9.36 L 8.64,8.64" id="path5774" fill-opacity="1" style="color:#000000;display:inline;overflow:visible;visibility:visible;fill-rule:nonzero;marker:none;enable-background:accumulate" stroke="none" stroke-width="0" fill="#999999"/>
        <path d="m 20.16,8.64 -1.08,0.72 v 1.44 h 5.04 V 9.36 L 23.04,8.64" id="path5776" fill-opacity="1" style="color:#000000;display:inline;overflow:visible;visibility:visible;fill-rule:nonzero;marker:none;enable-background:accumulate" stroke="none" stroke-width="0" fill="#999999"/>
        <path d="m 27.36,8.64 -1.08,0.72 v 1.44 h 5.04 V 9.36 L 30.24,8.64" id="path5778" fill-opacity="1" style="color:#000000;display:inline;overflow:visible;visibility:visible;fill-rule:nonzero;marker:none;enable-background:accumulate" stroke="none" stroke-width="0" fill="#999999"/>
        <path d="m 34.56,8.64 -1.08,0.72 v 1.44 h 5.04 V 9.36 L 37.44,8.64" id="path5780" fill-opacity="1" style="color:#000000;display:inline;overflow:visible;visibility:visible;fill-rule:nonzero;marker:none;enable-background:accumulate" stroke="none" stroke-width="0" fill="#999999"/>
        <path d="m 41.76,8.64 -1.08,0.72 v 1.44 h 5.04 V 9.36 L 44.64,8.64" id="path5782" fill-opacity="1" style="color:#000000;display:inline;overflow:visible;visibility:visible;fill-rule:nonzero;marker:none;enable-background:accumulate" stroke="none" stroke-width="0" fill="#999999"/>
        <path d="m 77.76,8.64 -1.08,0.72 v 1.44 h 5.04 V 9.36 L 80.64,8.64" id="path5784" fill-opacity="1" style="color:#000000;display:inline;overflow:visible;visibility:visible;fill-rule:nonzero;marker:none;enable-background:accumulate" stroke="none" stroke-width="0" fill="#999999"/>
        <path d="M 102.24,8.64 V 10.8 H 98.28 V 9.36 l 1.08,-0.72" id="path5786" fill-opacity="1" style="color:#000000;display:inline;overflow:visible;visibility:visible;fill-rule:nonzero;marker:none;enable-background:accumulate" stroke="none" stroke-width="0" fill="#999999"/>
        <path id="rect5716" style="display:inline;fill:#333333;fill-rule:evenodd" d="M 3.5999999,10.7934 H 104.4 V 25.2 H 3.5999999 Z"/>
        <g transform="translate(7.20831,-360.48)" id="g40952">
          <g xml:space="preserve" id="text5796" fill-opacity="1" style="font-style:normal;font-variant:normal;font-weight:normal;font-stretch:normal;line-height:125%;font-family:OCRA;-inkscape-font-specification:OCRA;text-align:center;letter-spacing:0px;word-spacing:0px;text-anchor:middle;display:inline" stroke="none" font-size="6.4px" fill="#000000">
<g id="tspan5798" fill-opacity="1" fill="#e2e2e2">
<g aria-label="MCP23017" id="tspan7125" style="fill:#ffffff;fill-opacity:0.235294"><path d="m 29.022512,380.6736 v -4.6656 h 0.8064 l 0.7872,1.12 0.7808,-1.12 h 0.8128 v 4.6656 q 0,0.1344 -0.096,0.2304 -0.096,0.096 -0.2304,0.096 -0.1344,0 -0.2304,-0.096 -0.0896,-0.096 -0.0896,-0.2304 v -3.776 l -0.6272,0.896 v 0.1664 q 0,0.1344 -0.096,0.2304 -0.096,0.096 -0.224,0.096 -0.1344,0 -0.2304,-0.096 -0.096,-0.096 -0.096,-0.2304 v -0.1664 l -0.6208,-0.8832 v 3.7632 q 0,0.1344 -0.096,0.2304 -0.096,0.096 -0.2304,0.096 -0.1344,0 -0.2304,-0.096 -0.0896,-0.096 -0.0896,-0.2304 z" style="font-size:6.4px;-inkscape-font-specification:'OCRA, Normal'" id="path996"/><path d="m 33.64971,378.504 q 0,-0.3392 0.1536,-0.6592 l 0.6464,-1.3056 q 0.1024,-0.2304 0.3392,-0.3776 0.2432,-0.1536 0.5312,-0.1536 h 1.1904 q 0.1344,0 0.2304,0.096 0.096,0.096 0.096,0.224 0,0.1344 -0.096,0.2304 -0.096,0.096 -0.2304,0.096 h -1.1904 q -0.1984,0 -0.2816,0.1792 l -0.6592,1.2992 q -0.0832,0.1792 -0.0832,0.3712 0,0.192 0.0832,0.3712 l 0.6592,1.2992 q 0.0832,0.1792 0.2816,0.1792 h 1.1904 q 0.1344,0 0.2304,0.096 0.096,0.096 0.096,0.224 0,0.1344 -0.096,0.2304 -0.096,0.096 -0.2304,0.096 h -1.1904 q -0.2816,0 -0.5184,-0.1536 -0.2304,-0.1536 -0.3456,-0.384 -0.4736,-0.9024 -0.6528,-1.2992 -0.1536,-0.3264 -0.1536,-0.6592 z" style="font-size:6.4px;-inkscape-font-specification:'OCRA, Normal'" id="path998"/><path d="m 38.276907,380.6736 v -4.6656 h 2.2144 q 0.3968,0 0.6848,0.288 0.288,0.2816 0.288,0.6784 v 1.152 q 0,0.3968 -0.288,0.6848 -0.288,0.288 -0.6848,0.288 h -1.568 v 1.5744 q 0,0.1344 -0.096,0.2304 -0.096,0.096 -0.2304,0.096 -0.1344,0 -0.2304,-0.096 -0.0896,-0.096 -0.0896,-0.2304 z m 0.6464,-2.2208 h 1.568 q 0.128,0 0.224,-0.096 0.1024,-0.096 0.1024,-0.2304 v -1.152 q 0,-0.128 -0.1024,-0.224 -0.096,-0.096 -0.224,-0.096 h -1.568 z" style="font-size:6.4px;-inkscape-font-specification:'OCRA, Normal'" id="path1000"/><path d="m 42.904104,381 v -2.176 q 0,-0.2624 0.192,-0.448 0.192,-0.192 0.4544,-0.192 h 1.8944 v -1.5296 h -2.2208 q -0.1344,0 -0.2304,-0.096 -0.0896,-0.096 -0.0896,-0.2304 0,-0.128 0.0896,-0.224 0.096,-0.096 0.2304,-0.096 h 2.2208 q 0.256,0 0.448,0.192 0.1984,0.192 0.1984,0.4544 v 1.5296 q 0,0.256 -0.192,0.448 -0.192,0.192 -0.4544,0.192 h -1.8944 v 1.5296 h 2.2144 q 0.1344,0 0.2304,0.096 0.096,0.096 0.096,0.224 0,0.1344 -0.096,0.2304 -0.096,0.096 -0.2304,0.096 z" style="font-size:6.4px;-inkscape-font-specification:'OCRA, Normal'" id="path1002"/><path d="m 47.531301,380.6736 q 0,-0.128 0.0896,-0.224 0.096,-0.096 0.2304,-0.096 h 2.2208 v -1.2032 q 0,-0.128 -0.1024,-0.224 -0.096,-0.1024 -0.224,-0.1024 h -1.2608 q -0.1344,0 -0.2304,-0.0896 -0.0896,-0.096 -0.0896,-0.2304 0,-0.1344 0.0896,-0.2304 0.096,-0.096 0.2304,-0.096 h 1.2608 q 0.1344,0 0.2304,-0.096 0.096,-0.096 0.096,-0.224 v -1.2032 h -2.2208 q -0.1344,0 -0.2304,-0.096 -0.0896,-0.096 -0.0896,-0.2304 0,-0.128 0.0896,-0.224 0.096,-0.096 0.2304,-0.096 h 2.2208 q 0.256,0 0.448,0.192 0.1984,0.192 0.1984,0.4544 v 1.2032 q 0,0.3712 -0.256,0.6464 0.256,0.2752 0.256,0.6464 v 1.2032 q 0,0.2624 -0.1984,0.4544 -0.192,0.192 -0.448,0.192 h -2.2208 q -0.1344,0 -0.2304,-0.096 -0.0896,-0.096 -0.0896,-0.2304 z" style="font-size:6.4px;-inkscape-font-specification:'OCRA, Normal'" id="path1004"/><path d="m 52.158499,380.3536 v -3.6992 q 0,-0.2624 0.192,-0.4544 0.192,-0.192 0.4544,-0.192 h 1.8944 q 0.256,0 0.448,0.192 0.1984,0.192 0.1984,0.4544 v 3.6992 q 0,0.2624 -0.1984,0.4544 -0.192,0.192 -0.448,0.192 h -1.8944 q -0.2624,0 -0.4544,-0.192 -0.192,-0.192 -0.192,-0.4544 z m 0.6464,0 h 1.8944 v -3.6992 h -1.8944 z" style="font-size:6.4px;-inkscape-font-specification:'OCRA, Normal'" id="path1006"/><path d="m 56.785696,380.6736 q 0,-0.128 0.0896,-0.224 0.096,-0.096 0.2304,-0.096 h 0.9472 v -3.6992 h -0.9472 q -0.1344,0 -0.2304,-0.096 -0.0896,-0.096 -0.0896,-0.2304 0,-0.128 0.0896,-0.224 0.096,-0.096 0.2304,-0.096 h 1.5936 v 4.3456 h 0.6272 v -1.3056 q 0,-0.1344 0.0896,-0.2304 0.096,-0.096 0.2304,-0.096 0.1344,0 0.2304,0.096 0.096,0.096 0.096,0.2304 v 1.6256 q 0,0.1344 -0.096,0.2304 -0.096,0.096 -0.2304,0.096 h -2.5408 q -0.1344,0 -0.2304,-0.096 -0.0896,-0.096 -0.0896,-0.2304 z" style="font-size:6.4px;-inkscape-font-specification:'OCRA, Normal'" id="path1008"/><path d="m 61.412893,376.6032 v -0.2752 q 0,-0.128 0.0896,-0.224 0.096,-0.096 0.2304,-0.096 h 2.8672 v 1.952 q 0,0.1472 -0.1152,0.2496 l -1.1584,0.9856 v 1.4784 q 0,0.1344 -0.096,0.2304 -0.096,0.096 -0.224,0.096 -0.1344,0 -0.2304,-0.096 -0.096,-0.096 -0.096,-0.2304 v -1.6256 q 0,-0.1472 0.1152,-0.2496 l 1.1584,-0.9856 v -1.1584 h -1.9008 q -0.0192,0.1152 -0.1088,0.192 -0.0896,0.0768 -0.2112,0.0768 -0.1344,0 -0.2304,-0.0896 -0.0896,-0.096 -0.0896,-0.2304 z" style="font-size:6.4px;-inkscape-font-specification:'OCRA, Normal'" id="path1010"/></g>
</g>
</g>
        </g>
        <path d="M 56.16,27.36 55.08,26.64 V 25.2 h 5.04 v 1.44 l -1.08,0.72" id="path3050" fill-opacity="1" style="color:#000000;display:inline;overflow:visible;visibility:visible;fill-rule:nonzero;marker:none;enable-background:accumulate" stroke="none" stroke-width="0" fill="#999999"/>
        <path d="M 63.36,27.36 62.28,26.64 V 25.2 h 5.04 v 1.44 l -1.08,0.72" id="path3052" fill-opacity="1" style="color:#000000;display:inline;overflow:visible;visibility:visible;fill-rule:nonzero;marker:none;enable-background:accumulate" stroke="none" stroke-width="0" fill="#999999"/>
        <path d="m 92.16,8.64 -1.08,0.72 v 1.44 h 5.04 V 9.36 L 95.04,8.64" id="path3054" fill-opacity="1" style="color:#000000;display:inline;overflow:visible;visibility:visible;fill-rule:nonzero;marker:none;enable-background:accumulate" stroke="none" stroke-width="0" fill="#999999"/>
        <path d="m 84.96,8.64 -1.08,0.72 v 1.44 h 5.04 V 9.36 L 87.84,8.64" id="path3056" fill-opacity="1" style="color:#000000;display:inline;overflow:visible;visibility:visible;fill-rule:nonzero;marker:none;enable-background:accumulate" stroke="none" stroke-width="0" fill="#999999"/>
        <path d="m 3.6,10.8 v 0.725 3.6 h 0.65 c 1.45882,0.153911 2.6,1.37442 2.6,2.875 0,1.50491 -1.13508,2.72687 -2.6,2.875 H 3.6 V 25.2 l 1.45,-1.45 v -1.6 c 1.84118,-0.486329 3.2,-2.15801 3.2,-4.15 0,-1.99199 -1.35882,-3.66367 -3.2,-4.15 v -1.6 h 69.1 28.8 L 104.4,10.8 H 75.6 74.15 4.325 Z" id="path3842" fill-opacity="0.156863" style="color:#000000;font-style:normal;font-variant:normal;font-weight:normal;font-stretch:normal;line-height:normal;font-family:OCRA;-inkscape-font-specification:OCRA;text-indent:0;text-align:start;text-decoration:none;text-decoration-line:none;letter-spacing:normal;word-spacing:normal;text-transform:none;writing-mode:lr-tb;direction:ltr;baseline-shift:baseline;text-anchor:start;display:inline;overflow:visible;visibility:visible;marker:none;enable-background:accumulate" stroke="none" font-size="medium" stroke-width="1.41732" fill="#ffffff"/>
        <path d="M 3.6,25.2 H 104.4 V 10.8 l -1.44,1.44 V 23.76 H 5.04 L 3.6,25.2" id="path7926" fill-opacity="0.235294" style="color:#000000;display:inline;overflow:visible;visibility:visible;marker:none;enable-background:accumulate" stroke="none" stroke-width="0.144" fill="#000000"/>
        <path d="M 70.56,27.36 69.48,26.64 V 25.2 h 5.04 v 1.44 l -1.08,0.72" id="path8471" fill-opacity="1" style="color:#000000;display:inline;overflow:visible;visibility:visible;fill-rule:nonzero;marker:none;enable-background:accumulate" stroke="none" stroke-width="0" fill="#999999"/>
        <path d="M 77.76,27.36 76.68,26.64 V 25.2 h 5.04 v 1.44 l -1.08,0.72" id="path8473" fill-opacity="1" style="color:#000000;display:inline;overflow:visible;visibility:visible;fill-rule:nonzero;marker:none;enable-background:accumulate" stroke="none" stroke-width="0" fill="#999999"/>
        <path d="M 84.96,27.36 83.88,26.64 V 25.2 h 5.04 v 1.44 l -1.08,0.72" id="path8475" fill-opacity="1" style="color:#000000;display:inline;overflow:visible;visibility:visible;fill-rule:nonzero;marker:none;enable-background:accumulate" stroke="none" stroke-width="0" fill="#999999"/>
        <path d="M 92.16,27.36 91.08,26.64 V 25.2 h 5.04 v 1.44 l -1.08,0.72" id="path8477" fill-opacity="1" style="color:#000000;display:inline;overflow:visible;visibility:visible;fill-rule:nonzero;marker:none;enable-background:accumulate" stroke="none" stroke-width="0" fill="#999999"/>
        <path d="m 48.96,8.64 -1.08,0.72 v 1.44 h 5.04 V 9.36 L 51.84,8.64" id="path8479" fill-opacity="1" style="color:#000000;display:inline;overflow:visible;visibility:visible;fill-rule:nonzero;marker:none;enable-background:accumulate" stroke="none" stroke-width="0" fill="#999999"/>
        <path d="m 63.36,8.64 -1.08,0.72 v 1.44 h 5.04 V 9.36 L 66.24,8.64" id="path8481" fill-opacity="1" style="color:#000000;display:inline;overflow:visible;visibility:visible;fill-rule:nonzero;marker:none;enable-background:accumulate" stroke="none" stroke-width="0" fill="#999999"/>
        <path d="m 56.16,8.64 -1.08,0.72 v 1.44 h 5.04 V 9.36 L 59.04,8.64" id="path8483" fill-opacity="1" style="color:#000000;display:inline;overflow:visible;visibility:visible;fill-rule:nonzero;marker:none;enable-background:accumulate" stroke="none" stroke-width="0" fill="#999999"/>
        <path d="m 70.56,8.64 -1.08,0.72 v 1.44 h 5.04 V 9.36 L 73.44,8.64" id="path8485" fill-opacity="1" style="color:#000000;display:inline;overflow:visible;visibility:visible;fill-rule:nonzero;marker:none;enable-background:accumulate" stroke="none" stroke-width="0" fill="#999999"/>
      </g>
      <g id="g125744" inkscape:label="PinNames" transform="translate(2.1188237,-1.2325594)">
        <g aria-label="GPB 0" id="text49490" style="font-size:0.824234px;line-height:1.25;font-family:OCRA;-inkscape-font-specification:'OCRA, Normal';text-align:center;text-anchor:middle;stroke-width:0.264583">
          <path d="M -35.311691,8.66633 V 8.4429626 q 0,-0.056872 0.03462,-0.1013808 l 0.112096,-0.1450652 q 0.03709,-0.047806 0.09891,-0.047806 h 0.122811 q 0.01731,0 0.02967,0.012363 0.01236,0.012364 0.01236,0.028848 0,0.017309 -0.01236,0.029672 -0.01236,0.012363 -0.02967,0.012363 h -0.122811 q -0.02061,0 -0.03297,0.016485 l -0.112095,0.1434167 q -0.01731,0.023078 -0.01731,0.051102 V 8.66633 q 0,0.017309 0.01236,0.029672 0.01236,0.012364 0.02885,0.012364 h 0.160726 q 0.01648,0 0.02885,-0.012364 0.01319,-0.012363 0.01319,-0.029672 v -0.084896 h -0.0816 q -0.01731,0 -0.02967,-0.011539 -0.01154,-0.012363 -0.01154,-0.029672 0,-0.017309 0.01154,-0.029672 0.01236,-0.012363 0.02967,-0.012363 h 0.164847 V 8.66633 q 0,0.051102 -0.03709,0.088193 -0.03709,0.037091 -0.08819,0.037091 h -0.160726 q -0.05193,0 -0.08819,-0.036266 -0.03627,-0.03709 -0.03627,-0.089017 z" style="fill:#ffffff" id="path1013"/>
          <path d="M -34.71577,8.7495776 V 8.1487111 h 0.285185 q 0.0511,0 0.08819,0.03709 0.03709,0.036266 0.03709,0.087369 v 0.1483621 q 0,0.051103 -0.03709,0.088193 -0.03709,0.037091 -0.08819,0.037091 h -0.201937 v 0.2027615 q 0,0.017309 -0.01236,0.029673 -0.01236,0.012363 -0.02967,0.012363 -0.01731,0 -0.02967,-0.012363 -0.01154,-0.012364 -0.01154,-0.029673 z m 0.08325,-0.2860092 h 0.201937 q 0.01649,0 0.02885,-0.012363 0.01319,-0.012364 0.01319,-0.029672 V 8.2731704 q 0,-0.016485 -0.01319,-0.028848 -0.01236,-0.012363 -0.02885,-0.012363 h -0.201937 z" style="fill:#ffffff" id="path1015"/>
          <path d="M -34.119849,8.7916136 V 8.1487111 h 0.243973 q 0.06759,0 0.117041,0.049454 0.04945,0.049454 0.04945,0.1170412 v 0.030497 q 0,0.073357 -0.0577,0.1244593 0.0577,0.051103 0.0577,0.1244594 v 0.030497 q 0,0.067587 -0.04945,0.1170412 -0.04945,0.049454 -0.117041,0.049454 z m 0.08325,-0.083248 h 0.160726 q 0.03379,0 0.05852,-0.024727 0.02473,-0.025551 0.02473,-0.058521 v -0.030497 q 0,-0.033794 -0.02473,-0.058521 -0.02473,-0.024727 -0.05852,-0.024727 h -0.160726 z m 0,-0.2802395 h 0.160726 q 0.03379,0 0.05852,-0.024727 0.02473,-0.024727 0.02473,-0.057696 v -0.030497 q 0,-0.032969 -0.02473,-0.057696 -0.02473,-0.025551 -0.05852,-0.025551 h -0.160726 z" style="fill:#ffffff" id="path1017"/>
          <path d="M -34.71577,9.7386585 V 9.2622512 q 0,-0.033794 0.02473,-0.058521 0.02473,-0.024727 0.05852,-0.024727 h 0.243974 q 0.03297,0 0.0577,0.024727 0.02555,0.024727 0.02555,0.058521 v 0.4764073 q 0,0.033793 -0.02555,0.058521 -0.02473,0.024727 -0.0577,0.024727 h -0.243974 q -0.03379,0 -0.05852,-0.024727 -0.02473,-0.024727 -0.02473,-0.058521 z m 0.08325,0 h 0.243974 V 9.2622512 h -0.243974 z" style="fill:#ffffff" id="path1019"/>
        </g>
        <g aria-label="GPB 1" id="text49490-8" style="font-size:0.824234px;line-height:1.25;font-family:OCRA;-inkscape-font-specification:'OCRA, Normal';text-align:center;text-anchor:middle;display:inline;stroke-width:0.264583">
          <path d="M -33.078102,8.6879021 V 8.4645347 q 0,-0.056872 0.03462,-0.1013808 l 0.112096,-0.1450652 q 0.03709,-0.047805 0.09891,-0.047805 h 0.122811 q 0.01731,0 0.02967,0.012363 0.01236,0.012364 0.01236,0.028848 0,0.017309 -0.01236,0.029672 -0.01236,0.012363 -0.02967,0.012363 h -0.122811 q -0.02061,0 -0.03297,0.016485 l -0.112096,0.1434167 q -0.01731,0.023078 -0.01731,0.051102 v 0.2233674 q 0,0.017309 0.01236,0.029672 0.01236,0.012364 0.02885,0.012364 h 0.160725 q 0.01649,0 0.02885,-0.012364 0.01319,-0.012363 0.01319,-0.029672 V 8.603006 h -0.0816 q -0.01731,0 -0.02967,-0.011539 -0.01154,-0.012363 -0.01154,-0.029672 0,-0.017309 0.01154,-0.029672 0.01236,-0.012363 0.02967,-0.012363 h 0.164847 v 0.1681437 q 0,0.051102 -0.03709,0.088193 -0.03709,0.03709 -0.08819,0.03709 h -0.160725 q -0.05193,0 -0.08819,-0.036266 -0.03627,-0.037091 -0.03627,-0.089017 z" style="fill:#ffffff" id="path1022"/>
          <path d="M -32.482181,8.7711498 V 8.1702832 h 0.285185 q 0.0511,0 0.08819,0.03709 0.03709,0.036266 0.03709,0.087369 v 0.1483621 q 0,0.051103 -0.03709,0.088193 -0.03709,0.03709 -0.08819,0.03709 h -0.201937 v 0.2027616 q 0,0.017309 -0.01236,0.029672 -0.01236,0.012363 -0.02967,0.012363 -0.01731,0 -0.02967,-0.012363 -0.01154,-0.012364 -0.01154,-0.029672 z m 0.08325,-0.2860092 h 0.201937 q 0.01648,0 0.02885,-0.012364 0.01319,-0.012364 0.01319,-0.029672 V 8.2947425 q 0,-0.016485 -0.01319,-0.028848 -0.01236,-0.012363 -0.02885,-0.012363 h -0.201937 z" style="fill:#ffffff" id="path1024"/>
          <path d="M -31.88626,8.8131857 V 8.1702832 h 0.243973 q 0.06759,0 0.117041,0.049454 0.04945,0.049454 0.04945,0.1170412 v 0.030497 q 0,0.073357 -0.0577,0.1244593 0.0577,0.051102 0.0577,0.1244594 v 0.030497 q 0,0.067587 -0.04945,0.1170413 -0.04945,0.049454 -0.117041,0.049454 z m 0.08325,-0.083248 h 0.160725 q 0.03379,0 0.05852,-0.024727 0.02473,-0.025551 0.02473,-0.058521 v -0.030497 q 0,-0.033794 -0.02473,-0.058521 -0.02473,-0.024727 -0.05852,-0.024727 h -0.160725 z m 0,-0.2802396 h 0.160725 q 0.03379,0 0.05852,-0.024727 0.02473,-0.024727 0.02473,-0.057696 v -0.030497 q 0,-0.032969 -0.02473,-0.057696 -0.02473,-0.025551 -0.05852,-0.025551 h -0.160725 z" style="fill:#ffffff" id="path1026"/>
          <path d="m -32.482181,9.8014423 q 0,-0.016485 0.01154,-0.028848 0.01236,-0.012363 0.02967,-0.012363 h 0.121986 V 9.2838233 h -0.121986 q -0.01731,0 -0.02967,-0.012363 -0.01154,-0.012364 -0.01154,-0.029672 0,-0.016485 0.01154,-0.028848 0.01236,-0.012363 0.02967,-0.012363 h 0.205234 v 0.5596549 h 0.08077 V 9.5920868 q 0,-0.017309 0.01154,-0.029672 0.01236,-0.012363 0.02967,-0.012363 0.01731,0 0.02967,0.012363 0.01236,0.012364 0.01236,0.029672 v 0.2093555 q 0,0.017309 -0.01236,0.029672 -0.01236,0.012363 -0.02967,0.012363 h -0.327221 q -0.01731,0 -0.02967,-0.012363 -0.01154,-0.012364 -0.01154,-0.029672 z" style="fill:#ffffff" id="path1028"/>
        </g>
        <g aria-label="GPB 2" id="text49490-8-0" style="font-size:0.824234px;line-height:1.25;font-family:OCRA;-inkscape-font-specification:'OCRA, Normal';text-align:center;text-anchor:middle;display:inline;stroke-width:0.264583">
          <path d="M -30.735058,8.6881405 V 8.4647731 q 0,-0.056872 0.03462,-0.1013808 l 0.112096,-0.1450651 q 0.03709,-0.047806 0.09891,-0.047806 h 0.122811 q 0.01731,0 0.02967,0.012363 0.01236,0.012363 0.01236,0.028848 0,0.017309 -0.01236,0.029672 -0.01236,0.012364 -0.02967,0.012364 h -0.122811 q -0.02061,0 -0.03297,0.016485 l -0.112096,0.1434167 q -0.01731,0.023079 -0.01731,0.051103 v 0.2233674 q 0,0.017309 0.01236,0.029673 0.01236,0.012364 0.02885,0.012364 h 0.160725 q 0.01648,0 0.02885,-0.012364 0.01319,-0.012363 0.01319,-0.029673 v -0.084896 h -0.0816 q -0.01731,0 -0.02967,-0.011539 -0.01154,-0.012363 -0.01154,-0.029673 0,-0.017309 0.01154,-0.029672 0.01236,-0.012364 0.02967,-0.012364 h 0.164847 v 0.1681437 q 0,0.051103 -0.03709,0.088193 -0.03709,0.037091 -0.08819,0.037091 h -0.160725 q -0.05193,0 -0.08819,-0.036266 -0.03627,-0.03709 -0.03627,-0.089017 z" style="fill:#ffffff" id="path1031"/>
          <path d="M -30.139137,8.7713882 V 8.1705216 h 0.285185 q 0.0511,0 0.08819,0.03709 0.03709,0.036266 0.03709,0.087369 V 8.443343 q 0,0.051102 -0.03709,0.088193 -0.03709,0.03709 -0.08819,0.03709 h -0.201937 v 0.2027616 q 0,0.017309 -0.01236,0.029672 -0.01236,0.012364 -0.02967,0.012364 -0.01731,0 -0.02967,-0.012364 -0.01154,-0.012363 -0.01154,-0.029672 z m 0.08325,-0.2860092 h 0.201937 q 0.01648,0 0.02885,-0.012363 0.01319,-0.012364 0.01319,-0.029673 V 8.2949809 q 0,-0.016485 -0.01319,-0.028848 -0.01236,-0.012363 -0.02885,-0.012363 h -0.201937 z" style="fill:#ffffff" id="path1033"/>
          <path d="M -29.543216,8.8134241 V 8.1705216 h 0.243973 q 0.06759,0 0.117042,0.049454 0.04945,0.049454 0.04945,0.1170413 v 0.030497 q 0,0.073357 -0.0577,0.1244593 0.0577,0.051103 0.0577,0.1244594 v 0.030497 q 0,0.067587 -0.04945,0.1170413 -0.04945,0.049454 -0.117042,0.049454 z m 0.08325,-0.083248 h 0.160725 q 0.03379,0 0.05852,-0.024727 0.02473,-0.025551 0.02473,-0.058521 v -0.030497 q 0,-0.033794 -0.02473,-0.058521 -0.02473,-0.024727 -0.05852,-0.024727 h -0.160725 z m 0,-0.2802396 h 0.160725 q 0.03379,0 0.05852,-0.024727 0.02473,-0.024727 0.02473,-0.057696 v -0.030497 q 0,-0.032969 -0.02473,-0.057696 -0.02473,-0.025551 -0.05852,-0.025551 h -0.160725 z" style="fill:#ffffff" id="path1035"/>
          <path d="M -30.139137,9.8437166 V 9.5634771 q 0,-0.033794 0.02473,-0.057696 0.02473,-0.024727 0.05852,-0.024727 h 0.243973 v -0.196992 h -0.286009 q -0.01731,0 -0.02967,-0.012364 -0.01154,-0.012363 -0.01154,-0.029672 0,-0.016485 0.01154,-0.028848 0.01236,-0.012363 0.02967,-0.012363 h 0.286009 q 0.03297,0 0.0577,0.024727 0.02555,0.024727 0.02555,0.058521 v 0.196992 q 0,0.032969 -0.02473,0.057696 -0.02473,0.024727 -0.05852,0.024727 h -0.243973 V 9.760469 h 0.285185 q 0.01731,0 0.02967,0.012363 0.01236,0.012363 0.01236,0.028848 0,0.017309 -0.01236,0.029672 -0.01236,0.012364 -0.02967,0.012364 z" style="fill:#ffffff" id="path1037"/>
        </g>
        <g aria-label="GPB 3" transform="scale(0.99987767,1.0001223)" id="text49490-8-8" style="font-size:0.824235px;line-height:1.25;font-family:OCRA;-inkscape-font-specification:'OCRA, Normal';text-align:center;text-anchor:middle;display:inline;stroke-width:0.264551">
          <path d="M -28.381604,8.6870618 V 8.4636941 q 0,-0.056872 0.03462,-0.1013809 l 0.112096,-0.1450654 q 0.03709,-0.047806 0.09891,-0.047806 h 0.122811 q 0.01731,0 0.02967,0.012363 0.01236,0.012363 0.01236,0.028848 0,0.017309 -0.01236,0.029673 -0.01236,0.012363 -0.02967,0.012363 h -0.122811 q -0.02061,0 -0.03297,0.016485 l -0.112096,0.1434169 q -0.01731,0.023079 -0.01731,0.051103 v 0.2233677 q 0,0.017309 0.01236,0.029672 0.01236,0.012364 0.02885,0.012364 h 0.160725 q 0.01648,0 0.02885,-0.012364 0.01319,-0.012363 0.01319,-0.029672 v -0.084896 h -0.0816 q -0.01731,0 -0.02967,-0.011539 -0.01154,-0.012364 -0.01154,-0.029673 0,-0.017309 0.01154,-0.029672 0.01236,-0.012364 0.02967,-0.012364 h 0.164847 v 0.168144 q 0,0.051103 -0.03709,0.088193 -0.03709,0.037091 -0.08819,0.037091 h -0.160725 q -0.05193,0 -0.08819,-0.036266 -0.03627,-0.037091 -0.03627,-0.089017 z" style="fill:#ffffff" id="path1040"/>
          <path d="M -27.785682,8.7703095 V 8.1694422 h 0.285185 q 0.0511,0 0.08819,0.037091 0.03709,0.036266 0.03709,0.087369 V 8.442264 q 0,0.051103 -0.03709,0.088193 -0.03709,0.037091 -0.08819,0.037091 h -0.201938 v 0.2027618 q 0,0.017309 -0.01236,0.029673 -0.01236,0.012363 -0.02967,0.012363 -0.01731,0 -0.02967,-0.012363 -0.01154,-0.012363 -0.01154,-0.029673 z M -27.702435,8.4843 h 0.201938 q 0.01648,0 0.02885,-0.012364 0.01319,-0.012364 0.01319,-0.029672 V 8.2939017 q 0,-0.016485 -0.01319,-0.028848 -0.01236,-0.012364 -0.02885,-0.012364 h -0.201938 z" style="fill:#ffffff" id="path1042"/>
          <path d="M -27.189761,8.8123455 V 8.1694422 h 0.243974 q 0.06759,0 0.117041,0.049454 0.04945,0.049454 0.04945,0.1170414 v 0.030497 q 0,0.073357 -0.0577,0.1244594 0.0577,0.051103 0.0577,0.1244595 V 8.64585 q 0,0.067587 -0.04945,0.1170414 -0.04945,0.049454 -0.117041,0.049454 z m 0.08325,-0.083248 h 0.160726 q 0.03379,0 0.05852,-0.024727 0.02473,-0.025551 0.02473,-0.058521 v -0.030497 q 0,-0.033794 -0.02473,-0.058521 -0.02473,-0.024727 -0.05852,-0.024727 h -0.160726 z m 0,-0.2802399 h 0.160726 q 0.03379,0 0.05852,-0.024727 0.02473,-0.024727 0.02473,-0.057696 v -0.030497 q 0,-0.032969 -0.02473,-0.057697 -0.02473,-0.025551 -0.05852,-0.025551 h -0.160726 z" style="fill:#ffffff" id="path1044"/>
          <path d="m -27.785682,9.8006033 q 0,-0.016485 0.01154,-0.028848 0.01236,-0.012364 0.02967,-0.012364 h 0.28601 V 9.6044354 q 0,-0.016485 -0.01319,-0.028848 -0.01236,-0.013188 -0.02885,-0.013188 h -0.162374 q -0.01731,0 -0.02967,-0.011539 -0.01154,-0.012363 -0.01154,-0.029673 0,-0.017309 0.01154,-0.029672 0.01236,-0.012364 0.02967,-0.012364 h 0.162374 q 0.01731,0 0.02967,-0.012363 0.01236,-0.012364 0.01236,-0.028848 V 9.2829837 h -0.28601 q -0.01731,0 -0.02967,-0.012364 -0.01154,-0.012363 -0.01154,-0.029673 0,-0.016485 0.01154,-0.028848 0.01236,-0.012364 0.02967,-0.012364 h 0.28601 q 0.03297,0 0.0577,0.024727 0.02555,0.024727 0.02555,0.058521 v 0.1549562 q 0,0.047806 -0.03297,0.083248 0.03297,0.035442 0.03297,0.083248 v 0.1549561 q 0,0.033794 -0.02555,0.058521 -0.02473,0.024727 -0.0577,0.024727 h -0.28601 q -0.01731,0 -0.02967,-0.012363 -0.01154,-0.012364 -0.01154,-0.029673 z" style="fill:#ffffff" id="path1046"/>
        </g>
        <g aria-label="GPB 4" id="text49490-8-1" style="font-size:0.824234px;line-height:1.25;font-family:OCRA;-inkscape-font-specification:'OCRA, Normal';text-align:center;text-anchor:middle;display:inline;stroke-width:0.264583">
          <path d="M -26.053417,8.6881405 V 8.4647731 q 0,-0.056872 0.03462,-0.1013808 l 0.112096,-0.1450651 q 0.03709,-0.047806 0.09891,-0.047806 h 0.122811 q 0.01731,0 0.02967,0.012363 0.01236,0.012363 0.01236,0.028848 0,0.017309 -0.01236,0.029672 -0.01236,0.012364 -0.02967,0.012364 h -0.122811 q -0.02061,0 -0.03297,0.016485 l -0.112095,0.1434167 q -0.01731,0.023079 -0.01731,0.051103 v 0.2233674 q 0,0.017309 0.01236,0.029673 0.01236,0.012364 0.02885,0.012364 h 0.160726 q 0.01648,0 0.02885,-0.012364 0.01319,-0.012363 0.01319,-0.029673 v -0.084896 h -0.0816 q -0.01731,0 -0.02967,-0.011539 -0.01154,-0.012363 -0.01154,-0.029673 0,-0.017309 0.01154,-0.029672 0.01236,-0.012364 0.02967,-0.012364 h 0.164847 v 0.1681437 q 0,0.051103 -0.03709,0.088193 -0.03709,0.037091 -0.08819,0.037091 h -0.160726 q -0.05193,0 -0.08819,-0.036266 -0.03627,-0.03709 -0.03627,-0.089017 z" style="fill:#ffffff" id="path1049"/>
          <path d="M -25.457496,8.7713882 V 8.1705216 h 0.285185 q 0.0511,0 0.08819,0.03709 0.03709,0.036266 0.03709,0.087369 V 8.443343 q 0,0.051102 -0.03709,0.088193 -0.03709,0.03709 -0.08819,0.03709 h -0.201937 v 0.2027616 q 0,0.017309 -0.01236,0.029672 -0.01236,0.012364 -0.02967,0.012364 -0.01731,0 -0.02967,-0.012364 -0.01154,-0.012363 -0.01154,-0.029672 z m 0.08325,-0.2860092 h 0.201937 q 0.01648,0 0.02885,-0.012363 0.01319,-0.012364 0.01319,-0.029673 V 8.2949809 q 0,-0.016485 -0.01319,-0.028848 -0.01236,-0.012363 -0.02885,-0.012363 h -0.201937 z" style="fill:#ffffff" id="path1051"/>
          <path d="M -24.861575,8.8134241 V 8.1705216 h 0.243973 q 0.06759,0 0.117041,0.049454 0.04945,0.049454 0.04945,0.1170413 v 0.030497 q 0,0.073357 -0.0577,0.1244593 0.0577,0.051103 0.0577,0.1244594 v 0.030497 q 0,0.067587 -0.04945,0.1170413 -0.04945,0.049454 -0.117041,0.049454 z m 0.08325,-0.083248 h 0.160726 q 0.03379,0 0.05852,-0.024727 0.02473,-0.025551 0.02473,-0.058521 v -0.030497 q 0,-0.033794 -0.02473,-0.058521 -0.02473,-0.024727 -0.05852,-0.024727 h -0.160726 z m 0,-0.2802396 h 0.160726 q 0.03379,0 0.05852,-0.024727 0.02473,-0.024727 0.02473,-0.057696 v -0.030497 q 0,-0.032969 -0.02473,-0.057696 -0.02473,-0.025551 -0.05852,-0.025551 h -0.160726 z" style="fill:#ffffff" id="path1053"/>
          <path d="M -25.437714,9.6335369 V 9.2420258 q 0,-0.016485 0.01236,-0.028848 0.01236,-0.012363 0.02967,-0.012363 0.01731,0 0.02885,0.012363 0.01236,0.012363 0.01236,0.028848 v 0.3082635 h 0.162374 V 9.3120857 q 0,-0.017309 0.01236,-0.028848 0.01236,-0.012364 0.02967,-0.012364 0.01648,0 0.02885,0.012364 0.01236,0.011539 0.01236,0.028848 v 0.2382036 q 0.01731,0 0.02885,0.012364 0.01236,0.012363 0.01236,0.029672 0,0.017309 -0.01236,0.029673 -0.01154,0.011539 -0.02885,0.011539 v 0.1681438 q 0,0.017309 -0.01236,0.029672 -0.01236,0.012364 -0.02885,0.012364 -0.01731,0 -0.02967,-0.012364 -0.01236,-0.012363 -0.01236,-0.029672 V 9.6335369 Z" style="fill:#ffffff" id="path1055"/>
        </g>
        <g aria-label="GPB 5" id="text49490-8-5" style="font-size:0.824234px;line-height:1.25;font-family:OCRA;-inkscape-font-specification:'OCRA, Normal';text-align:center;text-anchor:middle;display:inline;stroke-width:0.264583">
          <path d="M -23.71266,8.6881405 V 8.4647731 q 0,-0.056872 0.03462,-0.1013808 l 0.112096,-0.1450651 q 0.03709,-0.047806 0.09891,-0.047806 h 0.122811 q 0.01731,0 0.02967,0.012363 0.01236,0.012363 0.01236,0.028848 0,0.017309 -0.01236,0.029672 -0.01236,0.012364 -0.02967,0.012364 h -0.122811 q -0.02061,0 -0.03297,0.016485 l -0.112096,0.1434167 q -0.01731,0.023079 -0.01731,0.051103 v 0.2233674 q 0,0.017309 0.01236,0.029673 0.01236,0.012364 0.02885,0.012364 h 0.160725 q 0.01648,0 0.02885,-0.012364 0.01319,-0.012363 0.01319,-0.029673 v -0.084896 h -0.0816 q -0.01731,0 -0.02967,-0.011539 -0.01154,-0.012363 -0.01154,-0.029673 0,-0.017309 0.01154,-0.029672 0.01236,-0.012364 0.02967,-0.012364 h 0.164847 v 0.1681437 q 0,0.051103 -0.03709,0.088193 -0.03709,0.037091 -0.08819,0.037091 H -23.5882 q -0.05193,0 -0.08819,-0.036266 -0.03627,-0.03709 -0.03627,-0.089017 z" style="fill:#ffffff" id="path1058"/>
          <path d="M -23.116739,8.7713882 V 8.1705216 h 0.285185 q 0.0511,0 0.08819,0.03709 0.03709,0.036266 0.03709,0.087369 V 8.443343 q 0,0.051102 -0.03709,0.088193 -0.03709,0.03709 -0.08819,0.03709 h -0.201937 v 0.2027616 q 0,0.017309 -0.01236,0.029672 -0.01236,0.012364 -0.02967,0.012364 -0.01731,0 -0.02967,-0.012364 -0.01154,-0.012363 -0.01154,-0.029672 z m 0.08325,-0.2860092 h 0.201937 q 0.01648,0 0.02885,-0.012363 0.01319,-0.012364 0.01319,-0.029673 V 8.2949809 q 0,-0.016485 -0.01319,-0.028848 -0.01236,-0.012363 -0.02885,-0.012363 h -0.201937 z" style="fill:#ffffff" id="path1060"/>
          <path d="M -22.520818,8.8134241 V 8.1705216 h 0.243973 q 0.06759,0 0.117042,0.049454 0.04945,0.049454 0.04945,0.1170413 v 0.030497 q 0,0.073357 -0.0577,0.1244593 0.0577,0.051103 0.0577,0.1244594 v 0.030497 q 0,0.067587 -0.04945,0.1170413 -0.04945,0.049454 -0.117042,0.049454 z m 0.08325,-0.083248 h 0.160725 q 0.03379,0 0.05852,-0.024727 0.02473,-0.025551 0.02473,-0.058521 v -0.030497 q 0,-0.033794 -0.02473,-0.058521 -0.02473,-0.024727 -0.05852,-0.024727 h -0.160725 z m 0,-0.2802396 h 0.160725 q 0.03379,0 0.05852,-0.024727 0.02473,-0.024727 0.02473,-0.057696 v -0.030497 q 0,-0.032969 -0.02473,-0.057696 -0.02473,-0.025551 -0.05852,-0.025551 h -0.160725 z" style="fill:#ffffff" id="path1062"/>
          <path d="m -23.116739,9.7670629 q 0,-0.017309 0.01154,-0.028848 0.01236,-0.012364 0.02967,-0.012364 0.0099,0 0.01648,0.0033 l 0.07418,0.031321 h 0.195343 V 9.5634771 h -0.245622 v -0.362663 h 0.286834 q 0.01731,0 0.02967,0.012363 0.01236,0.012363 0.01236,0.028848 0,0.017309 -0.01236,0.029672 -0.01236,0.012364 -0.02967,0.012364 h -0.203586 v 0.1961677 h 0.162374 q 0.03297,0 0.0577,0.025551 0.02555,0.024727 0.02555,0.057696 V 9.760469 q 0,0.033794 -0.02555,0.058521 -0.02473,0.024727 -0.0577,0.024727 h -0.187101 q -0.01648,0 -0.03379,-0.00412 -0.01648,-0.00412 -0.0272,-0.00824 -0.01072,-0.00495 -0.02885,-0.013188 -0.01813,-0.00907 -0.02555,-0.012363 -0.02473,-0.010715 -0.02473,-0.038739 z" style="fill:#ffffff" id="path1064"/>
        </g>
        <g aria-label="GPB 6" id="text49490-8-53" style="font-size:0.824234px;line-height:1.25;font-family:OCRA;-inkscape-font-specification:'OCRA, Normal';text-align:center;text-anchor:middle;display:inline;stroke-width:0.264583">
          <path d="M -21.362531,8.6881405 V 8.4647731 q 0,-0.056872 0.03462,-0.1013808 l 0.112096,-0.1450651 q 0.03709,-0.047806 0.09891,-0.047806 h 0.122811 q 0.01731,0 0.02967,0.012363 0.01236,0.012363 0.01236,0.028848 0,0.017309 -0.01236,0.029672 -0.01236,0.012364 -0.02967,0.012364 h -0.122811 q -0.0206,0 -0.03297,0.016485 l -0.112096,0.1434167 q -0.01731,0.023079 -0.01731,0.051103 v 0.2233674 q 0,0.017309 0.01236,0.029673 0.01236,0.012364 0.02885,0.012364 h 0.160726 q 0.01648,0 0.02885,-0.012364 0.01319,-0.012363 0.01319,-0.029673 v -0.084896 h -0.0816 q -0.01731,0 -0.02967,-0.011539 -0.01154,-0.012363 -0.01154,-0.029673 0,-0.017309 0.01154,-0.029672 0.01236,-0.012364 0.02967,-0.012364 h 0.164847 v 0.1681437 q 0,0.051103 -0.03709,0.088193 -0.03709,0.037091 -0.08819,0.037091 h -0.160726 q -0.05193,0 -0.08819,-0.036266 -0.03627,-0.03709 -0.03627,-0.089017 z" style="fill:#ffffff" id="path1067"/>
          <path d="M -20.766611,8.7713882 V 8.1705216 h 0.285185 q 0.0511,0 0.08819,0.03709 0.03709,0.036266 0.03709,0.087369 V 8.443343 q 0,0.051102 -0.03709,0.088193 -0.03709,0.03709 -0.08819,0.03709 h -0.201937 v 0.2027616 q 0,0.017309 -0.01236,0.029672 -0.01236,0.012364 -0.02967,0.012364 -0.01731,0 -0.02967,-0.012364 -0.01154,-0.012363 -0.01154,-0.029672 z m 0.08325,-0.2860092 h 0.201937 q 0.01648,0 0.02885,-0.012363 0.01319,-0.012364 0.01319,-0.029673 V 8.2949809 q 0,-0.016485 -0.01319,-0.028848 -0.01236,-0.012363 -0.02885,-0.012363 h -0.201937 z" style="fill:#ffffff" id="path1069"/>
          <path d="M -20.17069,8.8134241 V 8.1705216 h 0.243974 q 0.06759,0 0.117041,0.049454 0.04945,0.049454 0.04945,0.1170413 v 0.030497 q 0,0.073357 -0.0577,0.1244593 0.0577,0.051103 0.0577,0.1244594 v 0.030497 q 0,0.067587 -0.04945,0.1170413 -0.04945,0.049454 -0.117041,0.049454 z m 0.08325,-0.083248 h 0.160726 q 0.03379,0 0.05852,-0.024727 0.02473,-0.025551 0.02473,-0.058521 v -0.030497 q 0,-0.033794 -0.02473,-0.058521 -0.02473,-0.024727 -0.05852,-0.024727 h -0.160726 z m 0,-0.2802396 h 0.160726 q 0.03379,0 0.05852,-0.024727 0.02473,-0.024727 0.02473,-0.057696 v -0.030497 q 0,-0.032969 -0.02473,-0.057696 -0.02473,-0.025551 -0.05852,-0.025551 h -0.160726 z" style="fill:#ffffff" id="path1071"/>
          <path d="M -20.766611,9.8016807 V 9.2420258 q 0,-0.016485 0.01154,-0.028848 0.01236,-0.012363 0.02967,-0.012363 h 0.04121 q 0.01731,0 0.02885,0.012363 0.01236,0.012363 0.01236,0.028848 0,0.017309 -0.01236,0.029672 -0.01154,0.012364 -0.02885,0.012364 v 0.2662276 h 0.286009 q 0.01731,0 0.02967,0.012364 0.01236,0.012363 0.01236,0.029672 v 0.2093555 q 0,0.017309 -0.01236,0.029672 -0.01236,0.012364 -0.02967,0.012364 h -0.327221 q -0.01731,0 -0.02967,-0.012364 -0.01154,-0.012363 -0.01154,-0.029672 z m 0.08242,-0.041212 h 0.244797 V 9.6335369 h -0.244797 z" style="fill:#ffffff" id="path1073"/>
        </g>
        <g aria-label="GPB 7" id="text49490-8-16" style="font-size:0.824234px;line-height:1.25;font-family:OCRA;-inkscape-font-specification:'OCRA, Normal';text-align:center;text-anchor:middle;display:inline;stroke-width:0.264583">
          <path d="M -19.025762,8.6881405 V 8.4647731 q 0,-0.056872 0.03462,-0.1013808 l 0.112095,-0.1450651 q 0.03709,-0.047806 0.09891,-0.047806 h 0.122811 q 0.01731,0 0.02967,0.012363 0.01236,0.012363 0.01236,0.028848 0,0.017309 -0.01236,0.029672 -0.01236,0.012364 -0.02967,0.012364 h -0.122811 q -0.0206,0 -0.03297,0.016485 l -0.112096,0.1434167 q -0.01731,0.023079 -0.01731,0.051103 v 0.2233674 q 0,0.017309 0.01236,0.029673 0.01236,0.012364 0.02885,0.012364 h 0.160726 q 0.01648,0 0.02885,-0.012364 0.01319,-0.012363 0.01319,-0.029673 v -0.084896 h -0.0816 q -0.01731,0 -0.02967,-0.011539 -0.01154,-0.012363 -0.01154,-0.029673 0,-0.017309 0.01154,-0.029672 0.01236,-0.012364 0.02967,-0.012364 h 0.164847 v 0.1681437 q 0,0.051103 -0.03709,0.088193 -0.03709,0.037091 -0.08819,0.037091 h -0.160726 q -0.05193,0 -0.08819,-0.036266 -0.03627,-0.03709 -0.03627,-0.089017 z" style="fill:#ffffff" id="path1076"/>
          <path d="M -18.429841,8.7713882 V 8.1705216 h 0.285185 q 0.0511,0 0.08819,0.03709 0.03709,0.036266 0.03709,0.087369 V 8.443343 q 0,0.051102 -0.03709,0.088193 -0.03709,0.03709 -0.08819,0.03709 h -0.201938 v 0.2027616 q 0,0.017309 -0.01236,0.029672 -0.01236,0.012364 -0.02967,0.012364 -0.01731,0 -0.02967,-0.012364 -0.01154,-0.012363 -0.01154,-0.029672 z m 0.08325,-0.2860092 h 0.201938 q 0.01648,0 0.02885,-0.012363 0.01319,-0.012364 0.01319,-0.029673 V 8.2949809 q 0,-0.016485 -0.01319,-0.028848 -0.01236,-0.012363 -0.02885,-0.012363 h -0.201938 z" style="fill:#ffffff" id="path1078"/>
          <path d="M -17.833921,8.8134241 V 8.1705216 h 0.243974 q 0.06759,0 0.117041,0.049454 0.04945,0.049454 0.04945,0.1170413 v 0.030497 q 0,0.073357 -0.0577,0.1244593 0.0577,0.051103 0.0577,0.1244594 v 0.030497 q 0,0.067587 -0.04945,0.1170413 -0.04945,0.049454 -0.117041,0.049454 z m 0.08325,-0.083248 h 0.160726 q 0.03379,0 0.05852,-0.024727 0.02473,-0.025551 0.02473,-0.058521 v -0.030497 q 0,-0.033794 -0.02473,-0.058521 -0.02473,-0.024727 -0.05852,-0.024727 h -0.160726 z m 0,-0.2802396 h 0.160726 q 0.03379,0 0.05852,-0.024727 0.02473,-0.024727 0.02473,-0.057696 v -0.030497 q 0,-0.032969 -0.02473,-0.057696 -0.02473,-0.025551 -0.05852,-0.025551 h -0.160726 z" style="fill:#ffffff" id="path1080"/>
          <path d="m -18.429841,9.2774679 v -0.035442 q 0,-0.016485 0.01154,-0.028848 0.01236,-0.012363 0.02967,-0.012363 h 0.369257 v 0.2513914 q 0,0.018957 -0.01484,0.032145 l -0.149186,0.126932 v 0.1903981 q 0,0.017309 -0.01236,0.029672 -0.01236,0.012364 -0.02885,0.012364 -0.01731,0 -0.02967,-0.012364 -0.01236,-0.012363 -0.01236,-0.029672 V 9.5923252 q 0,-0.018957 0.01484,-0.032145 l 0.149186,-0.126932 V 9.2840617 h -0.244797 q -0.0025,0.014836 -0.01401,0.024727 -0.01154,0.00989 -0.0272,0.00989 -0.01731,0 -0.02967,-0.011539 -0.01154,-0.012364 -0.01154,-0.029672 z" style="fill:#ffffff" id="path1082"/>
        </g>
        <g aria-label="VDD" id="text49490-8-16-4" style="font-size:0.824234px;line-height:1.25;font-family:OCRA;-inkscape-font-specification:'OCRA, Normal';text-align:center;text-anchor:middle;display:inline;stroke-width:0.264583">
          <path d="M -16.674443,8.3609196 V 8.2117333 q 0,-0.016485 0.01154,-0.028848 0.01236,-0.012363 0.02967,-0.012363 0.01731,0 0.02967,0.012363 0.01236,0.012363 0.01236,0.028848 V 8.344435 l 0.121986,0.3115604 0.121987,-0.3115604 V 8.2117333 q 0,-0.016485 0.01154,-0.028848 0.01236,-0.012363 0.02967,-0.012363 0.01731,0 0.02967,0.012363 0.01236,0.012363 0.01236,0.028848 v 0.1483621 l -0.166496,0.4269532 q -0.01072,0.026376 -0.03874,0.026376 -0.02885,0 -0.03956,-0.026376 z" style="fill:#ffffff" id="path1085"/>
          <path d="m -16.078522,8.7713882 q 0,-0.016485 0.01154,-0.028848 0.01236,-0.012363 0.02967,-0.012363 h 0.04039 V 8.2537692 h -0.04039 q -0.01731,0 -0.02967,-0.012364 -0.01154,-0.012363 -0.01154,-0.029672 0,-0.016485 0.01154,-0.028848 0.01236,-0.012363 0.02967,-0.012363 h 0.153307 q 0.03627,0 0.06594,0.019782 0.0305,0.019782 0.04533,0.049454 l 0.08407,0.1673195 q 0.0206,0.04286 0.0206,0.084896 0,0.042036 -0.0206,0.084896 l -0.08325,0.1681438 q -0.01319,0.029672 -0.04451,0.049454 -0.0305,0.018957 -0.06759,0.018957 h -0.153307 q -0.01731,0 -0.02967,-0.012364 -0.01154,-0.012363 -0.01154,-0.029672 z m 0.164847,-0.041212 h 0.02967 q 0.02555,0 0.03627,-0.023079 l 0.0849,-0.1673195 q 0.01154,-0.028024 0.01154,-0.047806 0,-0.024727 -0.01154,-0.047805 l -0.0849,-0.1673195 q -0.01071,-0.023079 -0.03627,-0.023079 h -0.02967 z" style="fill:#ffffff" id="path1087"/>
          <path d="m -15.482601,8.7713882 q 0,-0.016485 0.01154,-0.028848 0.01236,-0.012363 0.02967,-0.012363 h 0.04039 V 8.2537692 h -0.04039 q -0.01731,0 -0.02967,-0.012364 -0.01154,-0.012363 -0.01154,-0.029672 0,-0.016485 0.01154,-0.028848 0.01236,-0.012363 0.02967,-0.012363 h 0.153308 q 0.03627,0 0.06594,0.019782 0.0305,0.019782 0.04533,0.049454 l 0.08407,0.1673195 q 0.02061,0.04286 0.02061,0.084896 0,0.042036 -0.02061,0.084896 l -0.08325,0.1681438 q -0.01319,0.029672 -0.04451,0.049454 -0.0305,0.018957 -0.06759,0.018957 h -0.153308 q -0.01731,0 -0.02967,-0.012364 -0.01154,-0.012363 -0.01154,-0.029672 z m 0.164847,-0.041212 h 0.02967 q 0.02555,0 0.03627,-0.023079 l 0.0849,-0.1673195 q 0.01154,-0.028024 0.01154,-0.047806 0,-0.024727 -0.01154,-0.047805 l -0.0849,-0.1673195 q -0.01071,-0.023079 -0.03627,-0.023079 h -0.02967 z" style="fill:#ffffff" id="path1089"/>
        </g>
        <g aria-label="VSS" id="text49490-8-16-4-6" style="font-size:0.824234px;line-height:1.25;font-family:OCRA;-inkscape-font-specification:'OCRA, Normal';text-align:center;text-anchor:middle;display:inline;stroke-width:0.264583">
          <path d="M -14.334969,8.3609196 V 8.2117333 q 0,-0.016485 0.01154,-0.028848 0.01236,-0.012363 0.02967,-0.012363 0.01731,0 0.02967,0.012363 0.01236,0.012363 0.01236,0.028848 V 8.344435 l 0.121987,0.3115604 0.121987,-0.3115604 V 8.2117333 q 0,-0.016485 0.01154,-0.028848 0.01236,-0.012363 0.02967,-0.012363 0.01731,0 0.02967,0.012363 0.01236,0.012363 0.01236,0.028848 v 0.1483621 l -0.166495,0.4269532 q -0.01071,0.026376 -0.03874,0.026376 -0.02885,0 -0.03956,-0.026376 z" style="fill:#ffffff" id="path1092"/>
          <path d="m -13.739048,8.7021525 q 0,-0.017309 0.01154,-0.029672 0.01236,-0.012363 0.02967,-0.012363 0.01731,0 0.02967,0.012363 0.01236,0.012364 0.01236,0.029672 0,0.011539 0.0082,0.019782 0.0082,0.00824 0.01978,0.00824 h 0.205234 q 0.01072,0 0.01072,-0.010715 l -0.308264,-0.3972808 q -0.01896,-0.026375 -0.01896,-0.057696 v -0.00247 q 0,-0.037091 0.0272,-0.06429 0.02802,-0.0272 0.06594,-0.0272 h 0.205234 q 0.04533,0 0.0783,0.032969 0.03379,0.032969 0.03379,0.078302 0,0.017309 -0.01236,0.029672 -0.01236,0.012363 -0.02967,0.012363 -0.01731,0 -0.02967,-0.012363 -0.01154,-0.012363 -0.01154,-0.029672 0,-0.010715 -0.0091,-0.018957 -0.0082,-0.00907 -0.01978,-0.00907 h -0.205234 q -0.0099,0 -0.0099,0.00824 v 0.00247 0.0033 l 0.306615,0.3939839 q 0.02061,0.024727 0.02061,0.057696 -0.0016,0.038739 -0.02885,0.066763 -0.02638,0.0272 -0.06511,0.0272 h -0.205234 q -0.04533,0 -0.0783,-0.032969 -0.03297,-0.032969 -0.03297,-0.078302 z" style="fill:#ffffff" id="path1094"/>
          <path d="m -13.143128,8.7021525 q 0,-0.017309 0.01154,-0.029672 0.01236,-0.012363 0.02967,-0.012363 0.01731,0 0.02967,0.012363 0.01236,0.012364 0.01236,0.029672 0,0.011539 0.0082,0.019782 0.0082,0.00824 0.01978,0.00824 h 0.205234 q 0.01072,0 0.01072,-0.010715 L -13.12417,8.3221806 q -0.01896,-0.026375 -0.01896,-0.057696 v -0.00247 q 0,-0.037091 0.0272,-0.06429 0.02802,-0.0272 0.06594,-0.0272 h 0.205234 q 0.04533,0 0.0783,0.032969 0.03379,0.032969 0.03379,0.078302 0,0.017309 -0.01236,0.029672 -0.01236,0.012363 -0.02967,0.012363 -0.01731,0 -0.02967,-0.012363 -0.01154,-0.012363 -0.01154,-0.029672 0,-0.010715 -0.0091,-0.018957 -0.0082,-0.00907 -0.01978,-0.00907 h -0.205234 q -0.0099,0 -0.0099,0.00824 v 0.00247 0.0033 l 0.306615,0.3939839 q 0.02061,0.024727 0.02061,0.057696 -0.0016,0.038739 -0.02885,0.066763 -0.02638,0.0272 -0.06512,0.0272 h -0.205234 q -0.04533,0 -0.0783,-0.032969 -0.03297,-0.032969 -0.03297,-0.078302 z" style="fill:#ffffff" id="path1096"/>
        </g>
        <g aria-label="NC" id="text49490-8-16-4-6-0" style="font-size:0.824234px;line-height:1.25;font-family:OCRA;-inkscape-font-specification:'OCRA, Normal';text-align:center;text-anchor:middle;display:inline;stroke-width:0.264583">
          <path d="M -11.715519,8.7713882 V 8.1705216 h 0.109623 l 0.217597,0.4961889 V 8.2117333 q 0,-0.016485 0.01154,-0.028848 0.01236,-0.012363 0.02967,-0.012363 0.01731,0 0.02967,0.012363 0.01236,0.012363 0.01236,0.028848 v 0.6016908 h -0.110447 l -0.216774,-0.4945404 v 0.4525045 q 0,0.017309 -0.01236,0.029672 -0.01236,0.012364 -0.02967,0.012364 -0.01731,0 -0.02967,-0.012364 -0.01154,-0.012363 -0.01154,-0.029672 z" style="fill:#ffffff" id="path1099"/>
          <path d="m -11.119599,8.4919728 q 0,-0.043684 0.01978,-0.084896 l 0.08325,-0.1681437 q 0.01319,-0.029672 0.04368,-0.04863 0.03132,-0.019782 0.06841,-0.019782 h 0.153308 q 0.01731,0 0.02967,0.012363 0.01236,0.012363 0.01236,0.028848 0,0.017309 -0.01236,0.029672 -0.01236,0.012364 -0.02967,0.012364 h -0.153308 q -0.02555,0 -0.03627,0.023079 l -0.0849,0.1673195 q -0.01071,0.023079 -0.01071,0.047805 0,0.024727 0.01071,0.047806 l 0.0849,0.1673195 q 0.01071,0.023079 0.03627,0.023079 h 0.153308 q 0.01731,0 0.02967,0.012363 0.01236,0.012363 0.01236,0.028848 0,0.017309 -0.01236,0.029672 -0.01236,0.012364 -0.02967,0.012364 h -0.153308 q -0.03627,0 -0.06676,-0.019782 -0.02967,-0.019782 -0.04451,-0.049454 -0.06099,-0.116217 -0.08407,-0.1673196 -0.01978,-0.042036 -0.01978,-0.084896 z" style="fill:#ffffff" id="path1101"/>
        </g>
        <g aria-label="SCL" id="text49490-8-16-4-6-9" style="font-size:0.824234px;line-height:1.25;font-family:OCRA;-inkscape-font-specification:'OCRA, Normal';text-align:center;text-anchor:middle;display:inline;stroke-width:0.264583">
          <path d="m -9.6560218,8.7021525 q 0,-0.017309 0.011539,-0.029672 0.012364,-0.012363 0.029672,-0.012363 0.017309,0 0.029672,0.012363 0.012364,0.012364 0.012364,0.029672 0,0.011539 0.00824,0.019782 0.00824,0.00824 0.019782,0.00824 h 0.2052343 q 0.010715,0 0.010715,-0.010715 L -9.6370644,8.3221806 q -0.018957,-0.026375 -0.018957,-0.057696 v -0.00247 q 0,-0.037091 0.0272,-0.06429 0.028024,-0.0272 0.065939,-0.0272 h 0.2052342 q 0.045333,0 0.078302,0.032969 0.033794,0.032969 0.033794,0.078302 0,0.017309 -0.012364,0.029672 -0.012363,0.012363 -0.029672,0.012363 -0.017309,0 -0.029672,-0.012363 -0.011539,-0.012363 -0.011539,-0.029672 0,-0.010715 -0.00907,-0.018957 -0.00824,-0.00907 -0.019782,-0.00907 h -0.2052342 q -0.00989,0 -0.00989,0.00824 v 0.00247 0.0033 l 0.306615,0.3939839 q 0.020606,0.024727 0.020606,0.057696 -0.00165,0.038739 -0.028848,0.066763 -0.026376,0.0272 -0.065114,0.0272 h -0.2052343 q -0.045333,0 -0.078302,-0.032969 -0.032969,-0.032969 -0.032969,-0.078302 z" style="fill:#ffffff" id="path1104"/>
          <path d="m -9.0601009,8.4919728 q 0,-0.043684 0.019782,-0.084896 l 0.083248,-0.1681437 q 0.013188,-0.029672 0.043684,-0.04863 0.031321,-0.019782 0.068411,-0.019782 h 0.1533075 q 0.017309,0 0.029672,0.012363 0.012364,0.012363 0.012364,0.028848 0,0.017309 -0.012364,0.029672 -0.012363,0.012364 -0.029672,0.012364 h -0.1533075 q -0.025551,0 -0.036266,0.023079 l -0.084896,0.1673195 q -0.010715,0.023079 -0.010715,0.047805 0,0.024727 0.010715,0.047806 l 0.084896,0.1673195 q 0.010715,0.023079 0.036266,0.023079 h 0.1533075 q 0.017309,0 0.029672,0.012363 0.012364,0.012363 0.012364,0.028848 0,0.017309 -0.012364,0.029672 -0.012363,0.012364 -0.029672,0.012364 h -0.1533075 q -0.036266,0 -0.066763,-0.019782 -0.029672,-0.019782 -0.044509,-0.049454 -0.060993,-0.116217 -0.084072,-0.1673196 -0.019782,-0.042036 -0.019782,-0.084896 z" style="fill:#ffffff" id="path1106"/>
          <path d="M -8.4641801,8.8134241 V 8.2117333 q 0,-0.016485 0.011539,-0.028848 0.012363,-0.012363 0.029672,-0.012363 0.017309,0 0.029673,0.012363 0.012363,0.012363 0.012363,0.028848 v 0.5184432 h 0.2851849 q 0.017309,0 0.029673,0.012363 0.012363,0.012363 0.012363,0.028848 0,0.017309 -0.012363,0.029672 -0.012364,0.012364 -0.029673,0.012364 z" style="fill:#ffffff" id="path1108"/>
        </g>
        <g aria-label="SDA" id="text49490-8-16-4-6-1" style="font-size:0.824234px;line-height:1.25;font-family:OCRA;-inkscape-font-specification:'OCRA, Normal';text-align:center;text-anchor:middle;display:inline;stroke-width:0.264583">
          <path d="m -7.3490283,8.7021525 q 0,-0.017309 0.011539,-0.029672 0.012363,-0.012363 0.029672,-0.012363 0.017309,0 0.029672,0.012363 0.012364,0.012364 0.012364,0.029672 0,0.011539 0.00824,0.019782 0.00824,0.00824 0.019782,0.00824 h 0.2052343 q 0.010715,0 0.010715,-0.010715 L -7.3300709,8.3221806 q -0.018957,-0.026375 -0.018957,-0.057696 v -0.00247 q 0,-0.037091 0.0272,-0.06429 0.028024,-0.0272 0.065939,-0.0272 h 0.2052343 q 0.045333,0 0.078302,0.032969 0.033794,0.032969 0.033794,0.078302 0,0.017309 -0.012364,0.029672 -0.012363,0.012363 -0.029672,0.012363 -0.017309,0 -0.029672,-0.012363 -0.011539,-0.012363 -0.011539,-0.029672 0,-0.010715 -0.00907,-0.018957 -0.00824,-0.00907 -0.019782,-0.00907 h -0.2052343 q -0.00989,0 -0.00989,0.00824 v 0.00247 0.0033 l 0.3066151,0.3939839 q 0.020606,0.024727 0.020606,0.057696 -0.00165,0.038739 -0.028848,0.066763 -0.026375,0.0272 -0.065114,0.0272 h -0.2052343 q -0.045333,0 -0.078302,-0.032969 -0.032969,-0.032969 -0.032969,-0.078302 z" style="fill:#ffffff" id="path1111"/>
          <path d="m -6.7531074,8.7713882 q 0,-0.016485 0.011539,-0.028848 0.012364,-0.012363 0.029672,-0.012363 h 0.040387 V 8.2537692 h -0.040387 q -0.017309,0 -0.029672,-0.012364 -0.011539,-0.012363 -0.011539,-0.029672 0,-0.016485 0.011539,-0.028848 0.012364,-0.012363 0.029672,-0.012363 h 0.1533075 q 0.036266,0 0.065939,0.019782 0.030497,0.019782 0.045333,0.049454 l 0.084072,0.1673195 q 0.020606,0.04286 0.020606,0.084896 0,0.042036 -0.020606,0.084896 l -0.083248,0.1681438 q -0.013188,0.029672 -0.044509,0.049454 -0.030497,0.018957 -0.067587,0.018957 h -0.1533075 q -0.017309,0 -0.029672,-0.012364 -0.011539,-0.012363 -0.011539,-0.029672 z m 0.1648468,-0.041212 h 0.029672 q 0.025551,0 0.036266,-0.023079 l 0.084896,-0.1673195 q 0.011539,-0.028024 0.011539,-0.047806 0,-0.024727 -0.011539,-0.047805 l -0.084896,-0.1673195 q -0.010715,-0.023079 -0.036266,-0.023079 h -0.029672 z" style="fill:#ffffff" id="path1113"/>
          <path d="M -6.1596593,8.7713882 -5.9923398,8.200194 q 0.00412,-0.013188 0.014836,-0.02143 0.010715,-0.00824 0.024727,-0.00824 0.014012,0 0.025551,0.00824 0.011539,0.00824 0.014836,0.02143 l 0.1664953,0.5711942 q 0,0.017309 -0.013188,0.029672 -0.012364,0.012364 -0.029673,0.012364 -0.014012,0 -0.024727,-0.00824 -0.010715,-0.00824 -0.014836,-0.02143 l -0.032145,-0.1104474 h -0.1838042 l -0.032145,0.1104474 q -0.00412,0.013188 -0.015661,0.02143 -0.010715,0.00824 -0.024727,0.00824 -0.017309,0 -0.030497,-0.012364 -0.012364,-0.012363 -0.012364,-0.029672 z m 0.1401198,-0.1813315 h 0.1343501 l -0.067587,-0.2291371 z" style="fill:#ffffff" id="path1115"/>
        </g>
        <g aria-label="NC" id="text49490-8-16-4-6-6" style="font-size:0.824234px;line-height:1.25;font-family:OCRA;-inkscape-font-specification:'OCRA, Normal';text-align:center;text-anchor:middle;display:inline;stroke-width:0.264583">
          <path d="M -4.844935,8.7713882 V 8.1705216 h 0.1096231 l 0.2175978,0.4961889 V 8.2117333 q 0,-0.016485 0.011539,-0.028848 0.012364,-0.012363 0.029672,-0.012363 0.017309,0 0.029672,0.012363 0.012364,0.012363 0.012364,0.028848 V 8.8134241 H -4.5449138 L -4.7616874,8.3188837 v 0.4525045 q 0,0.017309 -0.012364,0.029672 -0.012364,0.012364 -0.029672,0.012364 -0.017309,0 -0.029672,-0.012364 -0.011539,-0.012363 -0.011539,-0.029672 z" style="fill:#ffffff" id="path1118"/>
          <path d="m -4.2490141,8.4919728 q 0,-0.043684 0.019782,-0.084896 l 0.083248,-0.1681437 q 0.013188,-0.029672 0.043684,-0.04863 0.031321,-0.019782 0.068411,-0.019782 h 0.1533076 q 0.017309,0 0.029672,0.012363 0.012364,0.012363 0.012364,0.028848 0,0.017309 -0.012364,0.029672 -0.012364,0.012364 -0.029672,0.012364 h -0.1533076 q -0.025551,0 -0.036266,0.023079 l -0.084896,0.1673195 q -0.010715,0.023079 -0.010715,0.047805 0,0.024727 0.010715,0.047806 l 0.084896,0.1673195 q 0.010715,0.023079 0.036266,0.023079 h 0.1533076 q 0.017309,0 0.029672,0.012363 0.012364,0.012363 0.012364,0.028848 0,0.017309 -0.012364,0.029672 -0.012364,0.012364 -0.029672,0.012364 h -0.1533076 q -0.036266,0 -0.066763,-0.019782 -0.029672,-0.019782 -0.044509,-0.049454 -0.060993,-0.116217 -0.084072,-0.1673196 -0.019782,-0.042036 -0.019782,-0.084896 z" style="fill:#ffffff" id="path1120"/>
        </g>
        <g aria-label="A0" id="text49490-8-16-4-6-6-8" style="font-size:0.824234px;line-height:1.25;font-family:OCRA;-inkscape-font-specification:'OCRA, Normal';text-align:center;text-anchor:middle;display:inline;stroke-width:0.264583">
          <path d="M -4.8750728,5.5064532 -4.7077533,4.935259 q 0.00412,-0.013188 0.014836,-0.02143 0.010715,-0.00824 0.024727,-0.00824 0.014012,0 0.025551,0.00824 0.011539,0.00824 0.014836,0.02143 l 0.1664952,0.5711942 q 0,0.017309 -0.013188,0.029672 -0.012363,0.012364 -0.029672,0.012364 -0.014012,0 -0.024727,-0.00824 -0.010715,-0.00824 -0.014836,-0.02143 l -0.032145,-0.1104474 h -0.1838042 l -0.032145,0.1104474 q -0.00412,0.013188 -0.01566,0.02143 -0.010715,0.00824 -0.024727,0.00824 -0.017309,0 -0.030497,-0.012364 -0.012364,-0.012364 -0.012364,-0.029672 z M -4.734953,5.3251217 h 0.1343501 l -0.067587,-0.2291371 z" style="fill:#ffffff" id="path1123"/>
          <path d="M -4.2766793,5.4652415 V 4.9888342 q 0,-0.033794 0.024727,-0.058521 0.024727,-0.024727 0.058521,-0.024727 h 0.2439732 q 0.032969,0 0.057696,0.024727 0.025551,0.024727 0.025551,0.058521 v 0.4764073 q 0,0.033794 -0.025551,0.058521 -0.024727,0.024727 -0.057696,0.024727 h -0.2439732 q -0.033794,0 -0.058521,-0.024727 -0.024727,-0.024727 -0.024727,-0.058521 z m 0.083248,0 h 0.2439732 V 4.9888342 h -0.2439732 z" style="fill:#ffffff" id="path1125"/>
        </g>
        <g aria-label="A1" id="text49490-8-16-4-6-6-8-9" style="font-size:0.824234px;line-height:1.25;font-family:OCRA;-inkscape-font-specification:'OCRA, Normal';text-align:center;text-anchor:middle;display:inline;stroke-width:0.264583">
          <path d="M -7.0609139,5.5064532 -6.8935944,4.935259 q 0.00412,-0.013188 0.014836,-0.02143 0.010715,-0.00824 0.024727,-0.00824 0.014012,0 0.025551,0.00824 0.011539,0.00824 0.014836,0.02143 l 0.1664953,0.5711942 q 0,0.017309 -0.013188,0.029672 -0.012364,0.012364 -0.029672,0.012364 -0.014012,0 -0.024727,-0.00824 -0.010715,-0.00824 -0.014836,-0.02143 L -6.761717,5.4083693 h -0.1838042 l -0.032145,0.1104474 q -0.00412,0.013188 -0.01566,0.02143 -0.010715,0.00824 -0.024727,0.00824 -0.017309,0 -0.030497,-0.012364 -0.012364,-0.012364 -0.012364,-0.029672 z m 0.1401198,-0.1813315 h 0.1343501 l -0.067587,-0.2291371 z" style="fill:#ffffff" id="path1128"/>
          <path d="m -6.4625203,5.5064532 q 0,-0.016485 0.011539,-0.028848 0.012364,-0.012363 0.029673,-0.012363 H -6.299322 V 4.9888342 h -0.1219866 q -0.017309,0 -0.029673,-0.012364 -0.011539,-0.012364 -0.011539,-0.029672 0,-0.016485 0.011539,-0.028848 0.012364,-0.012363 0.029673,-0.012363 h 0.2052342 v 0.5596549 h 0.080775 V 5.2970977 q 0,-0.017309 0.011539,-0.029672 0.012364,-0.012364 0.029673,-0.012364 0.017309,0 0.029672,0.012364 0.012364,0.012364 0.012364,0.029672 v 0.2093555 q 0,0.017309 -0.012364,0.029672 -0.012363,0.012364 -0.029672,0.012364 h -0.3272209 q -0.017309,0 -0.029673,-0.012364 -0.011539,-0.012364 -0.011539,-0.029672 z" style="fill:#ffffff" id="path1130"/>
        </g>
        <g aria-label="A2" id="text49490-8-16-4-6-6-8-95" style="font-size:0.824234px;line-height:1.25;font-family:OCRA;-inkscape-font-specification:'OCRA, Normal';text-align:center;text-anchor:middle;display:inline;stroke-width:0.264583">
          <path d="M -9.3884729,5.5064532 -9.2211534,4.935259 q 0.00412,-0.013188 0.014836,-0.02143 0.010715,-0.00824 0.024727,-0.00824 0.014012,0 0.025551,0.00824 0.011539,0.00824 0.014836,0.02143 l 0.1664953,0.5711942 q 0,0.017309 -0.013188,0.029672 -0.012363,0.012364 -0.029672,0.012364 -0.014012,0 -0.024727,-0.00824 -0.010715,-0.00824 -0.014836,-0.02143 L -9.089276,5.4083693 h -0.1838041 l -0.032145,0.1104474 q -0.00412,0.013188 -0.01566,0.02143 -0.010715,0.00824 -0.024727,0.00824 -0.017309,0 -0.030497,-0.012364 -0.012363,-0.012364 -0.012363,-0.029672 z m 0.1401198,-0.1813315 h 0.1343501 l -0.067587,-0.2291371 z" style="fill:#ffffff" id="path1133"/>
          <path d="M -8.7900793,5.5484891 V 5.2682495 q 0,-0.033794 0.024727,-0.057696 0.024727,-0.024727 0.058521,-0.024727 h 0.2439733 V 4.9888342 h -0.2860092 q -0.017309,0 -0.029673,-0.012364 -0.011539,-0.012364 -0.011539,-0.029672 0,-0.016485 0.011539,-0.028848 0.012364,-0.012363 0.029673,-0.012363 h 0.2860092 q 0.032969,0 0.057696,0.024727 0.025551,0.024727 0.025551,0.058521 v 0.1969919 q 0,0.032969 -0.024727,0.057696 -0.024727,0.024727 -0.058521,0.024727 h -0.2439733 v 0.196992 h 0.285185 q 0.017309,0 0.029672,0.012363 0.012363,0.012364 0.012363,0.028848 0,0.017309 -0.012363,0.029672 -0.012364,0.012364 -0.029672,0.012364 z" style="fill:#ffffff" id="path1135"/>
        </g>
        <g aria-label="RST" id="text49490-8-16-4-6-6-8-1" style="font-size:0.824234px;line-height:1.25;font-family:OCRA;-inkscape-font-specification:'OCRA, Normal';text-align:center;text-anchor:middle;display:inline;stroke-width:0.264583">
          <path d="M -11.96681,5.5062653 V 4.9053987 h 0.285185 q 0.0511,0 0.08819,0.03709 0.03709,0.037091 0.03709,0.088193 v 0.04286 q 0,0.051102 -0.03791,0.088193 -0.03709,0.037091 -0.08737,0.037091 h -0.04781 l 0.16732,0.2868334 q 0.0058,0.011539 0.0058,0.020606 0,0.017309 -0.01236,0.029672 -0.01236,0.012364 -0.02967,0.012364 -0.0239,0 -0.03627,-0.020606 L -11.82669,5.198826 h -0.05687 v 0.3074393 q 0,0.017309 -0.01236,0.029672 -0.01236,0.012364 -0.02967,0.012364 -0.01731,0 -0.02967,-0.012364 -0.01154,-0.012364 -0.01154,-0.029672 z m 0.08325,-0.3906869 h 0.201937 q 0.01649,0 0.02885,-0.012364 0.01319,-0.013188 0.01319,-0.029673 v -0.04286 q 0,-0.017309 -0.01319,-0.029672 -0.01236,-0.012364 -0.02885,-0.012364 h -0.201937 z" style="fill:#ffffff" id="path1138"/>
          <path d="m -11.370889,5.4370296 q 0,-0.017309 0.01154,-0.029672 0.01236,-0.012364 0.02967,-0.012364 0.01731,0 0.02967,0.012364 0.01236,0.012364 0.01236,0.029672 0,0.011539 0.0082,0.019782 0.0082,0.00824 0.01978,0.00824 h 0.205234 q 0.01071,0 0.01071,-0.010715 l -0.308264,-0.3972807 q -0.01896,-0.026376 -0.01896,-0.057696 v -0.00247 q 0,-0.037091 0.0272,-0.06429 0.02802,-0.0272 0.06594,-0.0272 h 0.205235 q 0.04533,0 0.0783,0.032969 0.03379,0.032969 0.03379,0.078302 0,0.017309 -0.01236,0.029672 -0.01236,0.012363 -0.02967,0.012363 -0.01731,0 -0.02967,-0.012363 -0.01154,-0.012364 -0.01154,-0.029672 0,-0.010715 -0.0091,-0.018957 -0.0082,-0.00907 -0.01978,-0.00907 h -0.205235 q -0.0099,0 -0.0099,0.00824 v 0.00247 0.0033 l 0.306615,0.3939839 q 0.0206,0.024727 0.0206,0.057696 -0.0016,0.038739 -0.02885,0.066763 -0.02637,0.0272 -0.06511,0.0272 h -0.205234 q -0.04533,0 -0.0783,-0.032969 -0.03297,-0.032969 -0.03297,-0.078302 z" style="fill:#ffffff" id="path1140"/>
          <path d="M -10.774968,5.0166703 V 4.9053987 h 0.410468 v 0.1112716 q 0,0.017309 -0.01236,0.029672 -0.01236,0.012363 -0.02967,0.012363 -0.01731,0 -0.02967,-0.012363 -0.01154,-0.012364 -0.01154,-0.029672 v -0.028024 h -0.08078 v 0.517619 q 0,0.017309 -0.01236,0.029672 -0.01236,0.012364 -0.02885,0.012364 -0.01731,0 -0.02967,-0.012364 -0.01236,-0.012364 -0.01236,-0.029672 v -0.517619 h -0.07995 v 0.028024 q 0,0.017309 -0.01236,0.029672 -0.01236,0.012363 -0.02967,0.012363 -0.01731,0 -0.02967,-0.012363 -0.01154,-0.012364 -0.01154,-0.029672 z" style="fill:#ffffff" id="path1142"/>
        </g>
        <g aria-label="B INT" id="text49490-8-16-4-6-6-8-4" style="font-size:0.824234px;line-height:1.25;font-family:OCRA;-inkscape-font-specification:'OCRA, Normal';text-align:center;text-anchor:middle;display:inline;stroke-width:0.264583">
          <path d="M -13.763671,4.4560757 V 3.8131731 h 0.243973 q 0.06759,0 0.117041,0.049454 0.04945,0.049454 0.04945,0.1170412 v 0.030497 q 0,0.073357 -0.0577,0.1244593 0.0577,0.051102 0.0577,0.1244593 v 0.030497 q 0,0.067587 -0.04945,0.1170412 -0.04945,0.049454 -0.117041,0.049454 z m 0.08325,-0.083248 h 0.160726 q 0.03379,0 0.05852,-0.024727 0.02473,-0.025551 0.02473,-0.058521 v -0.030497 q 0,-0.033794 -0.02473,-0.058521 -0.02473,-0.024727 -0.05852,-0.024727 h -0.160726 z m 0,-0.2802395 h 0.160726 q 0.03379,0 0.05852,-0.024727 0.02473,-0.024727 0.02473,-0.057696 v -0.030497 q 0,-0.032969 -0.02473,-0.057696 -0.02473,-0.025551 -0.05852,-0.025551 h -0.160726 z" style="fill:#ffffff" id="path1145"/>
          <path d="m -14.359592,5.4443322 q 0,-0.016485 0.01154,-0.028848 0.01236,-0.012364 0.02967,-0.012364 h 0.121986 V 4.9267133 h -0.121986 q -0.01731,0 -0.02967,-0.012364 -0.01154,-0.012364 -0.01154,-0.029672 0,-0.016485 0.01154,-0.028848 0.01236,-0.012363 0.02967,-0.012363 h 0.32722 q 0.01731,0 0.02967,0.012363 0.01236,0.012364 0.01236,0.028848 0,0.017309 -0.01236,0.029672 -0.01236,0.012364 -0.02967,0.012364 h -0.121986 v 0.4764072 h 0.121986 q 0.01731,0 0.02967,0.012364 0.01236,0.012364 0.01236,0.028848 0,0.017309 -0.01236,0.029673 -0.01236,0.012364 -0.02967,0.012364 h -0.32722 q -0.01731,0 -0.02967,-0.012364 -0.01154,-0.012364 -0.01154,-0.029673 z" style="fill:#ffffff" id="path1147"/>
          <path d="M -13.763671,5.4443322 V 4.8434657 h 0.109623 l 0.217598,0.4961888 V 4.8846774 q 0,-0.016485 0.01154,-0.028848 0.01236,-0.012363 0.02967,-0.012363 0.01731,0 0.02967,0.012363 0.01236,0.012364 0.01236,0.028848 v 0.6016908 h -0.110447 l -0.216774,-0.4945404 v 0.4525044 q 0,0.017309 -0.01236,0.029673 -0.01236,0.012364 -0.02967,0.012364 -0.01731,0 -0.02967,-0.012364 -0.01154,-0.012364 -0.01154,-0.029673 z" style="fill:#ffffff" id="path1149"/>
          <path d="M -13.16775,4.9547372 V 4.8434657 h 0.410468 v 0.1112715 q 0,0.017309 -0.01236,0.029672 -0.01236,0.012364 -0.02967,0.012364 -0.01731,0 -0.02967,-0.012364 -0.01154,-0.012363 -0.01154,-0.029672 v -0.028024 h -0.08077 v 0.5176189 q 0,0.017309 -0.01236,0.029673 -0.01236,0.012364 -0.02885,0.012364 -0.01731,0 -0.02967,-0.012364 -0.01236,-0.012364 -0.01236,-0.029673 V 4.9267133 h -0.07995 v 0.028024 q 0,0.017309 -0.01236,0.029672 -0.01236,0.012364 -0.02967,0.012364 -0.01731,0 -0.02967,-0.012364 -0.01154,-0.012363 -0.01154,-0.029672 z" style="fill:#ffffff" id="path1151"/>
        </g>
        <g aria-label="A INT" id="text49490-8-16-4-6-6-8-6" style="font-size:0.824234px;line-height:1.25;font-family:OCRA;-inkscape-font-specification:'OCRA, Normal';text-align:center;text-anchor:middle;display:inline;stroke-width:0.264583">
          <path d="m -16.100135,4.4140397 0.167319,-0.5711941 q 0.0041,-0.013188 0.01484,-0.02143 0.01072,-0.00824 0.02473,-0.00824 0.01401,0 0.02555,0.00824 0.01154,0.00824 0.01484,0.02143 l 0.166495,0.5711941 q 0,0.017309 -0.01319,0.029673 -0.01236,0.012364 -0.02967,0.012364 -0.01401,0 -0.02473,-0.00824 -0.01071,-0.00824 -0.01484,-0.02143 l -0.03214,-0.1104473 h -0.183804 l -0.03214,0.1104473 q -0.0041,0.013188 -0.01566,0.02143 -0.01072,0.00824 -0.02473,0.00824 -0.01731,0 -0.0305,-0.012364 -0.01236,-0.012364 -0.01236,-0.029673 z m 0.14012,-0.1813314 h 0.13435 l -0.06759,-0.2291371 z" style="fill:#ffffff" id="path1154"/>
          <path d="m -16.693583,5.4443322 q 0,-0.016485 0.01154,-0.028848 0.01236,-0.012364 0.02967,-0.012364 h 0.121986 V 4.9267133 h -0.121986 q -0.01731,0 -0.02967,-0.012364 -0.01154,-0.012364 -0.01154,-0.029672 0,-0.016485 0.01154,-0.028848 0.01236,-0.012363 0.02967,-0.012363 h 0.32722 q 0.01731,0 0.02967,0.012363 0.01236,0.012364 0.01236,0.028848 0,0.017309 -0.01236,0.029672 -0.01236,0.012364 -0.02967,0.012364 h -0.121986 v 0.4764072 h 0.121986 q 0.01731,0 0.02967,0.012364 0.01236,0.012364 0.01236,0.028848 0,0.017309 -0.01236,0.029673 -0.01236,0.012364 -0.02967,0.012364 h -0.32722 q -0.01731,0 -0.02967,-0.012364 -0.01154,-0.012364 -0.01154,-0.029673 z" style="fill:#ffffff" id="path1156"/>
          <path d="M -16.097662,5.4443322 V 4.8434657 h 0.109623 l 0.217598,0.4961888 V 4.8846774 q 0,-0.016485 0.01154,-0.028848 0.01236,-0.012363 0.02967,-0.012363 0.01731,0 0.02967,0.012363 0.01236,0.012364 0.01236,0.028848 v 0.6016908 h -0.110447 l -0.216774,-0.4945404 v 0.4525044 q 0,0.017309 -0.01236,0.029673 -0.01236,0.012364 -0.02967,0.012364 -0.01731,0 -0.02967,-0.012364 -0.01154,-0.012364 -0.01154,-0.029673 z" style="fill:#ffffff" id="path1158"/>
          <path d="M -15.501741,4.9547372 V 4.8434657 h 0.410468 v 0.1112715 q 0,0.017309 -0.01236,0.029672 -0.01236,0.012364 -0.02967,0.012364 -0.01731,0 -0.02967,-0.012364 -0.01154,-0.012363 -0.01154,-0.029672 v -0.028024 h -0.08077 v 0.5176189 q 0,0.017309 -0.01236,0.029673 -0.01236,0.012364 -0.02885,0.012364 -0.01731,0 -0.02967,-0.012364 -0.01236,-0.012364 -0.01236,-0.029673 V 4.9267133 h -0.07995 v 0.028024 q 0,0.017309 -0.01236,0.029672 -0.01236,0.012364 -0.02967,0.012364 -0.01731,0 -0.02967,-0.012364 -0.01154,-0.012363 -0.01154,-0.029672 z" style="fill:#ffffff" id="path1160"/>
        </g>
        <g aria-label="0 GPA" id="text49490-8-16-4-6-6-8-2" style="font-size:0.824234px;line-height:1.25;font-family:OCRA;-inkscape-font-specification:'OCRA, Normal';text-align:center;text-anchor:middle;display:inline;stroke-width:0.264583">
          <path d="M -18.427389,4.372828 V 3.8964208 q 0,-0.033794 0.02473,-0.058521 0.02473,-0.024727 0.05852,-0.024727 h 0.243973 q 0.03297,0 0.0577,0.024727 0.02555,0.024727 0.02555,0.058521 V 4.372828 q 0,0.033794 -0.02555,0.058521 -0.02473,0.024727 -0.0577,0.024727 h -0.243973 q -0.03379,0 -0.05852,-0.024727 -0.02473,-0.024727 -0.02473,-0.058521 z m 0.08325,0 h 0.243973 V 3.8964208 h -0.243973 z" style="fill:#ffffff" id="path1163"/>
          <path d="M -19.023309,5.3610846 V 5.1377172 q 0,-0.056872 0.03462,-0.1013808 l 0.112096,-0.1450652 q 0.03709,-0.047805 0.09891,-0.047805 h 0.122811 q 0.01731,0 0.02967,0.012363 0.01236,0.012364 0.01236,0.028848 0,0.017309 -0.01236,0.029672 -0.01236,0.012364 -0.02967,0.012364 h -0.122811 q -0.02061,0 -0.03297,0.016485 l -0.112096,0.1434167 q -0.01731,0.023078 -0.01731,0.051102 v 0.2233674 q 0,0.017309 0.01236,0.029672 0.01236,0.012364 0.02885,0.012364 h 0.160726 q 0.01648,0 0.02885,-0.012364 0.01319,-0.012364 0.01319,-0.029672 v -0.084896 h -0.0816 q -0.01731,0 -0.02967,-0.011539 -0.01154,-0.012364 -0.01154,-0.029672 0,-0.017309 0.01154,-0.029672 0.01236,-0.012364 0.02967,-0.012364 h 0.164847 v 0.1681437 q 0,0.051102 -0.03709,0.088193 -0.03709,0.037091 -0.08819,0.037091 h -0.160726 q -0.05193,0 -0.08819,-0.036266 -0.03627,-0.03709 -0.03627,-0.089017 z" style="fill:#ffffff" id="path1165"/>
          <path d="M -18.427389,5.4443322 V 4.8434657 h 0.285185 q 0.0511,0 0.08819,0.03709 0.03709,0.036266 0.03709,0.087369 v 0.1483621 q 0,0.051102 -0.03709,0.088193 -0.03709,0.037091 -0.08819,0.037091 h -0.201937 v 0.2027615 q 0,0.017309 -0.01236,0.029673 -0.01236,0.012364 -0.02967,0.012364 -0.01731,0 -0.02967,-0.012364 -0.01154,-0.012364 -0.01154,-0.029673 z m 0.08325,-0.2860092 h 0.201937 q 0.01648,0 0.02885,-0.012364 0.01319,-0.012364 0.01319,-0.029672 V 4.967925 q 0,-0.016485 -0.01319,-0.028848 -0.01236,-0.012363 -0.02885,-0.012363 h -0.201937 z" style="fill:#ffffff" id="path1167"/>
          <path d="m -17.83394,5.4443322 0.167319,-0.5711941 q 0.0041,-0.013188 0.01484,-0.02143 0.01072,-0.00824 0.02473,-0.00824 0.01401,0 0.02555,0.00824 0.01154,0.00824 0.01484,0.02143 l 0.166495,0.5711941 q 0,0.017309 -0.01319,0.029673 -0.01236,0.012364 -0.02967,0.012364 -0.01401,0 -0.02473,-0.00824 -0.01072,-0.00824 -0.01484,-0.02143 l -0.03214,-0.1104474 h -0.183805 l -0.03214,0.1104474 q -0.0041,0.013188 -0.01566,0.02143 -0.01072,0.00824 -0.02473,0.00824 -0.01731,0 -0.0305,-0.012364 -0.01236,-0.012364 -0.01236,-0.029673 z m 0.140119,-0.1813314 h 0.134351 l -0.06759,-0.2291371 z" style="fill:#ffffff" id="path1169"/>
        </g>
        <g aria-label="1 GPA" id="text49490-8-16-4-6-6-8-67" style="font-size:0.824234px;line-height:1.25;font-family:OCRA;-inkscape-font-specification:'OCRA, Normal';text-align:center;text-anchor:middle;display:inline;stroke-width:0.264583">
          <path d="m -20.785407,4.4140397 q 0,-0.016485 0.01154,-0.028848 0.01236,-0.012364 0.02967,-0.012364 h 0.121987 V 3.8964208 h -0.121987 q -0.01731,0 -0.02967,-0.012364 -0.01154,-0.012363 -0.01154,-0.029672 0,-0.016485 0.01154,-0.028848 0.01236,-0.012364 0.02967,-0.012364 h 0.205235 V 4.372828 h 0.08077 V 4.2046843 q 0,-0.017309 0.01154,-0.029672 0.01236,-0.012364 0.02967,-0.012364 0.01731,0 0.02967,0.012364 0.01236,0.012363 0.01236,0.029672 v 0.2093554 q 0,0.017309 -0.01236,0.029673 -0.01236,0.012364 -0.02967,0.012364 h -0.327221 q -0.01731,0 -0.02967,-0.012364 -0.01154,-0.012364 -0.01154,-0.029673 z" style="fill:#ffffff" id="path1172"/>
          <path d="M -21.381328,5.3610846 V 5.1377172 q 0,-0.056872 0.03462,-0.1013808 l 0.112095,-0.1450652 q 0.03709,-0.047805 0.09891,-0.047805 h 0.122811 q 0.01731,0 0.02967,0.012363 0.01236,0.012364 0.01236,0.028848 0,0.017309 -0.01236,0.029672 -0.01236,0.012364 -0.02967,0.012364 h -0.122811 q -0.0206,0 -0.03297,0.016485 l -0.112096,0.1434167 q -0.01731,0.023078 -0.01731,0.051102 v 0.2233674 q 0,0.017309 0.01236,0.029672 0.01236,0.012364 0.02885,0.012364 h 0.160726 q 0.01648,0 0.02885,-0.012364 0.01319,-0.012364 0.01319,-0.029672 v -0.084896 h -0.0816 q -0.01731,0 -0.02967,-0.011539 -0.01154,-0.012364 -0.01154,-0.029672 0,-0.017309 0.01154,-0.029672 0.01236,-0.012364 0.02967,-0.012364 h 0.164847 v 0.1681437 q 0,0.051102 -0.03709,0.088193 -0.03709,0.037091 -0.08819,0.037091 h -0.160726 q -0.05193,0 -0.08819,-0.036266 -0.03627,-0.03709 -0.03627,-0.089017 z" style="fill:#ffffff" id="path1174"/>
          <path d="M -20.785407,5.4443322 V 4.8434657 h 0.285185 q 0.0511,0 0.08819,0.03709 0.03709,0.036266 0.03709,0.087369 v 0.1483621 q 0,0.051102 -0.03709,0.088193 -0.03709,0.037091 -0.08819,0.037091 h -0.201938 v 0.2027615 q 0,0.017309 -0.01236,0.029673 -0.01236,0.012364 -0.02967,0.012364 -0.01731,0 -0.02967,-0.012364 -0.01154,-0.012364 -0.01154,-0.029673 z m 0.08325,-0.2860092 h 0.201938 q 0.01648,0 0.02885,-0.012364 0.01319,-0.012364 0.01319,-0.029672 V 4.967925 q 0,-0.016485 -0.01319,-0.028848 -0.01236,-0.012363 -0.02885,-0.012363 h -0.201938 z" style="fill:#ffffff" id="path1176"/>
          <path d="m -20.191959,5.4443322 0.167319,-0.5711941 q 0.0041,-0.013188 0.01484,-0.02143 0.01071,-0.00824 0.02473,-0.00824 0.01401,0 0.02555,0.00824 0.01154,0.00824 0.01484,0.02143 l 0.166495,0.5711941 q 0,0.017309 -0.01319,0.029673 -0.01236,0.012364 -0.02967,0.012364 -0.01401,0 -0.02473,-0.00824 -0.01072,-0.00824 -0.01484,-0.02143 l -0.03214,-0.1104474 h -0.183805 l -0.03214,0.1104474 q -0.0041,0.013188 -0.01566,0.02143 -0.01071,0.00824 -0.02473,0.00824 -0.01731,0 -0.0305,-0.012364 -0.01236,-0.012364 -0.01236,-0.029673 z m 0.14012,-0.1813314 h 0.13435 l -0.06759,-0.2291371 z" style="fill:#ffffff" id="path1178"/>
        </g>
        <g aria-label="2 GPA" id="text49490-8-16-4-6-6-8-10" style="font-size:0.824234px;line-height:1.25;font-family:OCRA;-inkscape-font-specification:'OCRA, Normal';text-align:center;text-anchor:middle;display:inline;stroke-width:0.264583">
          <path d="M -23.106336,4.4560757 V 4.1758361 q 0,-0.033794 0.02473,-0.057696 0.02473,-0.024727 0.05852,-0.024727 h 0.243973 V 3.8964208 h -0.286009 q -0.01731,0 -0.02967,-0.012364 -0.01154,-0.012363 -0.01154,-0.029672 0,-0.016485 0.01154,-0.028848 0.01236,-0.012364 0.02967,-0.012364 h 0.286009 q 0.03297,0 0.0577,0.024727 0.02555,0.024727 0.02555,0.058521 v 0.1969919 q 0,0.032969 -0.02473,0.057696 -0.02473,0.024727 -0.05852,0.024727 h -0.243973 V 4.372828 h 0.285185 q 0.01731,0 0.02967,0.012364 0.01236,0.012364 0.01236,0.028848 0,0.017309 -0.01236,0.029673 -0.01236,0.012364 -0.02967,0.012364 z" style="fill:#ffffff" id="path1181"/>
          <path d="M -23.702257,5.3610846 V 5.1377172 q 0,-0.056872 0.03462,-0.1013808 l 0.112096,-0.1450652 q 0.03709,-0.047805 0.09891,-0.047805 h 0.122811 q 0.01731,0 0.02967,0.012363 0.01236,0.012364 0.01236,0.028848 0,0.017309 -0.01236,0.029672 -0.01236,0.012364 -0.02967,0.012364 h -0.122811 q -0.02061,0 -0.03297,0.016485 L -23.6017,5.0866147 q -0.01731,0.023078 -0.01731,0.051102 v 0.2233674 q 0,0.017309 0.01236,0.029672 0.01236,0.012364 0.02885,0.012364 h 0.160726 q 0.01648,0 0.02885,-0.012364 0.01319,-0.012364 0.01319,-0.029672 v -0.084896 h -0.0816 q -0.01731,0 -0.02967,-0.011539 -0.01154,-0.012364 -0.01154,-0.029672 0,-0.017309 0.01154,-0.029672 0.01236,-0.012364 0.02967,-0.012364 h 0.164847 v 0.1681437 q 0,0.051102 -0.03709,0.088193 -0.03709,0.037091 -0.08819,0.037091 h -0.160726 q -0.05193,0 -0.08819,-0.036266 -0.03627,-0.03709 -0.03627,-0.089017 z" style="fill:#ffffff" id="path1183"/>
          <path d="M -23.106336,5.4443322 V 4.8434657 h 0.285185 q 0.0511,0 0.08819,0.03709 0.03709,0.036266 0.03709,0.087369 v 0.1483621 q 0,0.051102 -0.03709,0.088193 -0.03709,0.037091 -0.08819,0.037091 h -0.201937 v 0.2027615 q 0,0.017309 -0.01236,0.029673 -0.01236,0.012364 -0.02967,0.012364 -0.01731,0 -0.02967,-0.012364 -0.01154,-0.012364 -0.01154,-0.029673 z m 0.08325,-0.2860092 h 0.201937 q 0.01648,0 0.02885,-0.012364 0.01319,-0.012364 0.01319,-0.029672 V 4.967925 q 0,-0.016485 -0.01319,-0.028848 -0.01236,-0.012363 -0.02885,-0.012363 h -0.201937 z" style="fill:#ffffff" id="path1185"/>
          <path d="m -22.512888,5.4443322 0.16732,-0.5711941 q 0.0041,-0.013188 0.01484,-0.02143 0.01072,-0.00824 0.02473,-0.00824 0.01401,0 0.02555,0.00824 0.01154,0.00824 0.01484,0.02143 l 0.166496,0.5711941 q 0,0.017309 -0.01319,0.029673 -0.01236,0.012364 -0.02967,0.012364 -0.01401,0 -0.02473,-0.00824 -0.01072,-0.00824 -0.01484,-0.02143 l -0.03214,-0.1104474 h -0.183804 l -0.03214,0.1104474 q -0.0041,0.013188 -0.01566,0.02143 -0.01072,0.00824 -0.02473,0.00824 -0.01731,0 -0.0305,-0.012364 -0.01236,-0.012364 -0.01236,-0.029673 z m 0.14012,-0.1813314 h 0.13435 l -0.06759,-0.2291371 z" style="fill:#ffffff" id="path1187"/>
        </g>
        <g aria-label="3 GPA" id="text49490-8-16-4-6-6-8-23" style="font-size:0.824234px;line-height:1.25;font-family:OCRA;-inkscape-font-specification:'OCRA, Normal';text-align:center;text-anchor:middle;display:inline;stroke-width:0.264583">
          <path d="m -25.458871,4.4140397 q 0,-0.016485 0.01154,-0.028848 0.01236,-0.012364 0.02967,-0.012364 h 0.28601 V 4.217872 q 0,-0.016485 -0.01319,-0.028848 -0.01236,-0.013188 -0.02885,-0.013188 h -0.162374 q -0.01731,0 -0.02967,-0.011539 -0.01154,-0.012364 -0.01154,-0.029672 0,-0.017309 0.01154,-0.029672 0.01236,-0.012364 0.02967,-0.012364 h 0.162374 q 0.01731,0 0.02967,-0.012363 0.01236,-0.012364 0.01236,-0.028848 v -0.154956 h -0.28601 q -0.01731,0 -0.02967,-0.012364 -0.01154,-0.012363 -0.01154,-0.029672 0,-0.016485 0.01154,-0.028848 0.01236,-0.012364 0.02967,-0.012364 h 0.28601 q 0.03297,0 0.0577,0.024727 0.02555,0.024727 0.02555,0.058521 v 0.154956 q 0,0.047805 -0.03297,0.083248 0.03297,0.035442 0.03297,0.083248 v 0.154956 q 0,0.033794 -0.02555,0.058521 -0.02473,0.024727 -0.0577,0.024727 h -0.28601 q -0.01731,0 -0.02967,-0.012364 -0.01154,-0.012364 -0.01154,-0.029673 z" style="fill:#ffffff" id="path1190"/>
          <path d="M -26.054792,5.3610846 V 5.1377172 q 0,-0.056872 0.03462,-0.1013808 l 0.112096,-0.1450652 q 0.03709,-0.047805 0.09891,-0.047805 h 0.12281 q 0.01731,0 0.02967,0.012363 0.01236,0.012364 0.01236,0.028848 0,0.017309 -0.01236,0.029672 -0.01236,0.012364 -0.02967,0.012364 h -0.12281 q -0.02061,0 -0.03297,0.016485 l -0.112096,0.1434167 q -0.01731,0.023078 -0.01731,0.051102 v 0.2233674 q 0,0.017309 0.01236,0.029672 0.01236,0.012364 0.02885,0.012364 h 0.160726 q 0.01648,0 0.02885,-0.012364 0.01319,-0.012364 0.01319,-0.029672 v -0.084896 h -0.0816 q -0.01731,0 -0.02967,-0.011539 -0.01154,-0.012364 -0.01154,-0.029672 0,-0.017309 0.01154,-0.029672 0.01236,-0.012364 0.02967,-0.012364 h 0.164846 v 0.1681437 q 0,0.051102 -0.03709,0.088193 -0.03709,0.037091 -0.08819,0.037091 h -0.160726 q -0.05193,0 -0.08819,-0.036266 -0.03627,-0.03709 -0.03627,-0.089017 z" style="fill:#ffffff" id="path1192"/>
          <path d="M -25.458871,5.4443322 V 4.8434657 h 0.285185 q 0.0511,0 0.08819,0.03709 0.03709,0.036266 0.03709,0.087369 v 0.1483621 q 0,0.051102 -0.03709,0.088193 -0.03709,0.037091 -0.08819,0.037091 h -0.201938 v 0.2027615 q 0,0.017309 -0.01236,0.029673 -0.01236,0.012364 -0.02967,0.012364 -0.01731,0 -0.02967,-0.012364 -0.01154,-0.012364 -0.01154,-0.029673 z m 0.08325,-0.2860092 h 0.201938 q 0.01648,0 0.02885,-0.012364 0.01319,-0.012364 0.01319,-0.029672 V 4.967925 q 0,-0.016485 -0.01319,-0.028848 -0.01236,-0.012363 -0.02885,-0.012363 h -0.201938 z" style="fill:#ffffff" id="path1194"/>
          <path d="m -24.865423,5.4443322 0.167319,-0.5711941 q 0.0041,-0.013188 0.01484,-0.02143 0.01072,-0.00824 0.02473,-0.00824 0.01401,0 0.02555,0.00824 0.01154,0.00824 0.01484,0.02143 l 0.166495,0.5711941 q 0,0.017309 -0.01319,0.029673 -0.01236,0.012364 -0.02967,0.012364 -0.01401,0 -0.02473,-0.00824 -0.01071,-0.00824 -0.01484,-0.02143 l -0.03214,-0.1104474 h -0.183804 l -0.03214,0.1104474 q -0.0041,0.013188 -0.01566,0.02143 -0.01072,0.00824 -0.02473,0.00824 -0.01731,0 -0.0305,-0.012364 -0.01236,-0.012364 -0.01236,-0.029673 z m 0.14012,-0.1813314 h 0.13435 l -0.06759,-0.2291371 z" style="fill:#ffffff" id="path1196"/>
        </g>
        <g aria-label="4 GPA" id="text49490-8-16-4-6-6-8-93" style="font-size:0.824234px;line-height:1.25;font-family:OCRA;-inkscape-font-specification:'OCRA, Normal';text-align:center;text-anchor:middle;display:inline;stroke-width:0.264583">
          <path d="M -27.765502,4.245896 V 3.8543848 q 0,-0.016485 0.01236,-0.028848 0.01236,-0.012364 0.02967,-0.012364 0.01731,0 0.02885,0.012364 0.01236,0.012364 0.01236,0.028848 v 0.3082636 h 0.162374 V 3.9244447 q 0,-0.017309 0.01236,-0.028848 0.01236,-0.012363 0.02967,-0.012363 0.01648,0 0.02885,0.012363 0.01236,0.011539 0.01236,0.028848 v 0.2382037 q 0.01731,0 0.02885,0.012364 0.01236,0.012363 0.01236,0.029672 0,0.017309 -0.01236,0.029672 -0.01154,0.011539 -0.02885,0.011539 v 0.1681437 q 0,0.017309 -0.01236,0.029673 -0.01236,0.012364 -0.02885,0.012364 -0.01731,0 -0.02967,-0.012364 -0.01236,-0.012364 -0.01236,-0.029673 V 4.245896 Z" style="fill:#ffffff" id="path1199"/>
          <path d="M -28.381204,5.3610846 V 5.1377172 q 0,-0.056872 0.03462,-0.1013808 l 0.112095,-0.1450652 q 0.03709,-0.047805 0.09891,-0.047805 h 0.122811 q 0.01731,0 0.02967,0.012363 0.01236,0.012364 0.01236,0.028848 0,0.017309 -0.01236,0.029672 -0.01236,0.012364 -0.02967,0.012364 h -0.122811 q -0.0206,0 -0.03297,0.016485 l -0.112096,0.1434167 q -0.01731,0.023078 -0.01731,0.051102 v 0.2233674 q 0,0.017309 0.01236,0.029672 0.01236,0.012364 0.02885,0.012364 h 0.160726 q 0.01648,0 0.02885,-0.012364 0.01319,-0.012364 0.01319,-0.029672 v -0.084896 h -0.0816 q -0.01731,0 -0.02967,-0.011539 -0.01154,-0.012364 -0.01154,-0.029672 0,-0.017309 0.01154,-0.029672 0.01236,-0.012364 0.02967,-0.012364 h 0.164847 v 0.1681437 q 0,0.051102 -0.03709,0.088193 -0.03709,0.037091 -0.08819,0.037091 h -0.160726 q -0.05193,0 -0.08819,-0.036266 -0.03627,-0.03709 -0.03627,-0.089017 z" style="fill:#ffffff" id="path1201"/>
          <path d="M -27.785283,5.4443322 V 4.8434657 h 0.285185 q 0.0511,0 0.08819,0.03709 0.03709,0.036266 0.03709,0.087369 v 0.1483621 q 0,0.051102 -0.03709,0.088193 -0.03709,0.037091 -0.08819,0.037091 h -0.201938 v 0.2027615 q 0,0.017309 -0.01236,0.029673 -0.01236,0.012364 -0.02967,0.012364 -0.01731,0 -0.02967,-0.012364 -0.01154,-0.012364 -0.01154,-0.029673 z m 0.08325,-0.2860092 h 0.201938 q 0.01648,0 0.02885,-0.012364 0.01319,-0.012364 0.01319,-0.029672 V 4.967925 q 0,-0.016485 -0.01319,-0.028848 -0.01236,-0.012363 -0.02885,-0.012363 h -0.201938 z" style="fill:#ffffff" id="path1203"/>
          <path d="m -27.191835,5.4443322 0.167319,-0.5711941 q 0.0041,-0.013188 0.01484,-0.02143 0.01072,-0.00824 0.02473,-0.00824 0.01401,0 0.02555,0.00824 0.01154,0.00824 0.01484,0.02143 l 0.166495,0.5711941 q 0,0.017309 -0.01319,0.029673 -0.01236,0.012364 -0.02967,0.012364 -0.01401,0 -0.02473,-0.00824 -0.01072,-0.00824 -0.01484,-0.02143 l -0.03214,-0.1104474 h -0.183805 l -0.03214,0.1104474 q -0.0041,0.013188 -0.01566,0.02143 -0.01071,0.00824 -0.02473,0.00824 -0.01731,0 -0.0305,-0.012364 -0.01236,-0.012364 -0.01236,-0.029673 z m 0.140119,-0.1813314 h 0.134351 l -0.06759,-0.2291371 z" style="fill:#ffffff" id="path1205"/>
        </g>
        <g aria-label="5 GPA" id="text49490-8-16-4-6-6-8-49" style="font-size:0.824234px;line-height:1.25;font-family:OCRA;-inkscape-font-specification:'OCRA, Normal';text-align:center;text-anchor:middle;display:inline;stroke-width:0.264583">
          <path d="m -30.135686,4.3794219 q 0,-0.017309 0.01154,-0.028848 0.01236,-0.012364 0.02967,-0.012364 0.0099,0 0.01648,0.0033 l 0.07418,0.031321 h 0.195344 V 4.1758361 h -0.245622 v -0.362663 h 0.286833 q 0.01731,0 0.02967,0.012364 0.01236,0.012364 0.01236,0.028848 0,0.017309 -0.01236,0.029672 -0.01236,0.012364 -0.02967,0.012364 h -0.203586 v 0.1961677 h 0.162375 q 0.03297,0 0.0577,0.025551 0.02555,0.024727 0.02555,0.057696 V 4.372828 q 0,0.033794 -0.02555,0.058521 -0.02473,0.024727 -0.0577,0.024727 h -0.187102 q -0.01648,0 -0.03379,-0.00412 -0.01648,-0.00412 -0.0272,-0.00824 -0.01071,-0.00495 -0.02885,-0.013188 -0.01813,-0.00907 -0.02555,-0.012364 -0.02473,-0.010715 -0.02473,-0.038739 z" style="fill:#ffffff" id="path1208"/>
          <path d="M -30.731607,5.3610846 V 5.1377172 q 0,-0.056872 0.03462,-0.1013808 l 0.112096,-0.1450652 q 0.03709,-0.047805 0.09891,-0.047805 h 0.12281 q 0.01731,0 0.02967,0.012363 0.01236,0.012364 0.01236,0.028848 0,0.017309 -0.01236,0.029672 -0.01236,0.012364 -0.02967,0.012364 h -0.12281 q -0.02061,0 -0.03297,0.016485 l -0.112096,0.1434167 q -0.01731,0.023078 -0.01731,0.051102 v 0.2233674 q 0,0.017309 0.01236,0.029672 0.01236,0.012364 0.02885,0.012364 h 0.160726 q 0.01648,0 0.02885,-0.012364 0.01319,-0.012364 0.01319,-0.029672 v -0.084896 h -0.0816 q -0.01731,0 -0.02967,-0.011539 -0.01154,-0.012364 -0.01154,-0.029672 0,-0.017309 0.01154,-0.029672 0.01236,-0.012364 0.02967,-0.012364 h 0.164846 v 0.1681437 q 0,0.051102 -0.03709,0.088193 -0.03709,0.037091 -0.08819,0.037091 h -0.160726 q -0.05193,0 -0.08819,-0.036266 -0.03627,-0.03709 -0.03627,-0.089017 z" style="fill:#ffffff" id="path1210"/>
          <path d="M -30.135686,5.4443322 V 4.8434657 h 0.285185 q 0.0511,0 0.08819,0.03709 0.03709,0.036266 0.03709,0.087369 v 0.1483621 q 0,0.051102 -0.03709,0.088193 -0.03709,0.037091 -0.08819,0.037091 h -0.201938 v 0.2027615 q 0,0.017309 -0.01236,0.029673 -0.01236,0.012364 -0.02967,0.012364 -0.01731,0 -0.02967,-0.012364 -0.01154,-0.012364 -0.01154,-0.029673 z m 0.08325,-0.2860092 h 0.201938 q 0.01648,0 0.02885,-0.012364 0.01319,-0.012364 0.01319,-0.029672 V 4.967925 q 0,-0.016485 -0.01319,-0.028848 -0.01236,-0.012363 -0.02885,-0.012363 h -0.201938 z" style="fill:#ffffff" id="path1212"/>
          <path d="m -29.542238,5.4443322 0.167319,-0.5711941 q 0.0041,-0.013188 0.01484,-0.02143 0.01071,-0.00824 0.02473,-0.00824 0.01401,0 0.02555,0.00824 0.01154,0.00824 0.01484,0.02143 l 0.166495,0.5711941 q 0,0.017309 -0.01319,0.029673 -0.01236,0.012364 -0.02967,0.012364 -0.01401,0 -0.02473,-0.00824 -0.01072,-0.00824 -0.01484,-0.02143 l -0.03214,-0.1104474 h -0.183804 l -0.03214,0.1104474 q -0.0041,0.013188 -0.01566,0.02143 -0.01071,0.00824 -0.02473,0.00824 -0.01731,0 -0.0305,-0.012364 -0.01236,-0.012364 -0.01236,-0.029673 z m 0.14012,-0.1813314 h 0.13435 l -0.06759,-0.2291371 z" style="fill:#ffffff" id="path1214"/>
        </g>
        <g aria-label="6 GPA" id="text49490-8-16-4-6-6-8-18" style="font-size:0.824234px;line-height:1.25;font-family:OCRA;-inkscape-font-specification:'OCRA, Normal';text-align:center;text-anchor:middle;display:inline;stroke-width:0.264583">
          <path d="M -32.484908,4.4140397 V 3.8543848 q 0,-0.016485 0.01154,-0.028848 0.01236,-0.012364 0.02967,-0.012364 h 0.04121 q 0.01731,0 0.02885,0.012364 0.01236,0.012364 0.01236,0.028848 0,0.017309 -0.01236,0.029672 -0.01154,0.012364 -0.02885,0.012364 v 0.2662276 h 0.286009 q 0.01731,0 0.02967,0.012364 0.01236,0.012363 0.01236,0.029672 v 0.2093554 q 0,0.017309 -0.01236,0.029673 -0.01236,0.012364 -0.02967,0.012364 h -0.327221 q -0.01731,0 -0.02967,-0.012364 -0.01154,-0.012364 -0.01154,-0.029673 z m 0.08242,-0.041212 h 0.244797 V 4.245896 h -0.244797 z" style="fill:#ffffff" id="path1217"/>
          <path d="M -33.080829,5.3610846 V 5.1377172 q 0,-0.056872 0.03462,-0.1013808 l 0.112096,-0.1450652 q 0.03709,-0.047805 0.09891,-0.047805 h 0.122811 q 0.01731,0 0.02967,0.012363 0.01236,0.012364 0.01236,0.028848 0,0.017309 -0.01236,0.029672 -0.01236,0.012364 -0.02967,0.012364 h -0.122811 q -0.0206,0 -0.03297,0.016485 l -0.112096,0.1434167 q -0.01731,0.023078 -0.01731,0.051102 v 0.2233674 q 0,0.017309 0.01236,0.029672 0.01236,0.012364 0.02885,0.012364 h 0.160726 q 0.01648,0 0.02885,-0.012364 0.01319,-0.012364 0.01319,-0.029672 v -0.084896 h -0.0816 q -0.01731,0 -0.02967,-0.011539 -0.01154,-0.012364 -0.01154,-0.029672 0,-0.017309 0.01154,-0.029672 0.01236,-0.012364 0.02967,-0.012364 h 0.164847 v 0.1681437 q 0,0.051102 -0.03709,0.088193 -0.03709,0.037091 -0.08819,0.037091 h -0.160726 q -0.05193,0 -0.08819,-0.036266 -0.03627,-0.03709 -0.03627,-0.089017 z" style="fill:#ffffff" id="path1219"/>
          <path d="M -32.484908,5.4443322 V 4.8434657 h 0.285184 q 0.0511,0 0.08819,0.03709 0.03709,0.036266 0.03709,0.087369 v 0.1483621 q 0,0.051102 -0.03709,0.088193 -0.03709,0.037091 -0.08819,0.037091 h -0.201937 v 0.2027615 q 0,0.017309 -0.01236,0.029673 -0.01236,0.012364 -0.02967,0.012364 -0.01731,0 -0.02967,-0.012364 -0.01154,-0.012364 -0.01154,-0.029673 z m 0.08325,-0.2860092 h 0.201937 q 0.01649,0 0.02885,-0.012364 0.01319,-0.012364 0.01319,-0.029672 V 4.967925 q 0,-0.016485 -0.01319,-0.028848 -0.01236,-0.012363 -0.02885,-0.012363 h -0.201937 z" style="fill:#ffffff" id="path1221"/>
          <path d="m -31.89146,5.4443322 0.167319,-0.5711941 q 0.0041,-0.013188 0.01484,-0.02143 0.01072,-0.00824 0.02473,-0.00824 0.01401,0 0.02555,0.00824 0.01154,0.00824 0.01484,0.02143 l 0.166495,0.5711941 q 0,0.017309 -0.01319,0.029673 -0.01236,0.012364 -0.02967,0.012364 -0.01401,0 -0.02473,-0.00824 -0.01072,-0.00824 -0.01484,-0.02143 l -0.03214,-0.1104474 h -0.183805 l -0.03214,0.1104474 q -0.0041,0.013188 -0.01566,0.02143 -0.01072,0.00824 -0.02473,0.00824 -0.01731,0 -0.0305,-0.012364 -0.01236,-0.012364 -0.01236,-0.029673 z m 0.140119,-0.1813314 h 0.134351 l -0.06759,-0.2291371 z" style="fill:#ffffff" id="path1223"/>
        </g>
        <g aria-label="7 GPA" id="text49490-8-16-4-6-6-8-96" style="font-size:0.824234px;line-height:1.25;font-family:OCRA;-inkscape-font-specification:'OCRA, Normal';text-align:center;text-anchor:middle;display:inline;stroke-width:0.264583">
          <path d="m -34.716213,3.8898474 v -0.035442 q 0,-0.016485 0.01154,-0.028848 0.01236,-0.012364 0.02967,-0.012364 h 0.369257 V 4.064585 q 0,0.018957 -0.01484,0.032145 l -0.149187,0.1269321 v 0.190398 q 0,0.017309 -0.01236,0.029673 -0.01236,0.012364 -0.02885,0.012364 -0.01731,0 -0.02967,-0.012364 -0.01236,-0.012364 -0.01236,-0.029673 V 4.2047048 q 0,-0.018957 0.01484,-0.032145 l 0.149186,-0.1269321 V 3.8964413 h -0.244797 q -0.0025,0.014836 -0.01401,0.024727 -0.01154,0.00989 -0.0272,0.00989 -0.01731,0 -0.02967,-0.011539 -0.01154,-0.012364 -0.01154,-0.029672 z" style="fill:#ffffff" id="path1226"/>
          <path d="M -35.312133,5.3611051 V 5.1377377 q 0,-0.056872 0.03462,-0.1013808 l 0.112096,-0.1450652 q 0.03709,-0.047805 0.09891,-0.047805 h 0.122811 q 0.01731,0 0.02967,0.012364 0.01236,0.012363 0.01236,0.028848 0,0.017309 -0.01236,0.029672 -0.01236,0.012364 -0.02967,0.012364 h -0.122811 q -0.02061,0 -0.03297,0.016485 l -0.112096,0.1434167 q -0.01731,0.023079 -0.01731,0.051102 v 0.2233674 q 0,0.017309 0.01236,0.029672 0.01236,0.012363 0.02885,0.012363 h 0.160725 q 0.01649,0 0.02885,-0.012363 0.01319,-0.012364 0.01319,-0.029672 V 5.276209 h -0.0816 q -0.01731,0 -0.02967,-0.011539 -0.01154,-0.012364 -0.01154,-0.029672 0,-0.017309 0.01154,-0.029672 0.01236,-0.012364 0.02967,-0.012364 h 0.164847 v 0.1681437 q 0,0.051103 -0.03709,0.088193 -0.03709,0.03709 -0.08819,0.03709 h -0.160725 q -0.05193,0 -0.08819,-0.036266 -0.03627,-0.03709 -0.03627,-0.089017 z" style="fill:#ffffff" id="path1228"/>
          <path d="M -34.716213,5.4443527 V 4.8434862 h 0.285185 q 0.0511,0 0.08819,0.03709 0.03709,0.036266 0.03709,0.087369 v 0.1483621 q 0,0.051102 -0.03709,0.088193 -0.03709,0.037091 -0.08819,0.037091 h -0.201937 v 0.2027615 q 0,0.017309 -0.01236,0.029673 -0.01236,0.012364 -0.02967,0.012364 -0.01731,0 -0.02967,-0.012364 -0.01154,-0.012364 -0.01154,-0.029673 z m 0.08325,-0.2860092 h 0.201937 q 0.01648,0 0.02885,-0.012364 0.01319,-0.012364 0.01319,-0.029672 V 4.9679455 q 0,-0.016485 -0.01319,-0.028848 -0.01236,-0.012364 -0.02885,-0.012364 h -0.201937 z" style="fill:#ffffff" id="path1230"/>
          <path d="m -34.122764,5.4443527 0.167319,-0.5711941 q 0.0041,-0.013188 0.01484,-0.02143 0.01072,-0.00824 0.02473,-0.00824 0.01401,0 0.02555,0.00824 0.01154,0.00824 0.01484,0.02143 l 0.166495,0.5711941 q 0,0.017309 -0.01319,0.029673 -0.01236,0.012364 -0.02967,0.012364 -0.01401,0 -0.02473,-0.00824 -0.01071,-0.00824 -0.01484,-0.02143 l -0.03215,-0.1104474 h -0.183804 l -0.03214,0.1104474 q -0.0041,0.013188 -0.01566,0.02143 -0.01071,0.00824 -0.02473,0.00824 -0.01731,0 -0.0305,-0.012364 -0.01236,-0.012364 -0.01236,-0.029673 z m 0.140119,-0.1813314 h 0.13435 l -0.06759,-0.2291371 z" style="fill:#ffffff" id="path1232"/>
        </g>
      </g>
    </g>
  </g>
</svg>