<!-- Created with Inkscape (http://www.inkscape.org/) --><svg xmlns:inkscape="http://www.inkscape.org/namespaces/inkscape" xmlns:sodipodi="http://sodipodi.sourceforge.net/DTD/sodipodi-0.dtd" xmlns="http://www.w3.org/2000/svg" xmlns:svg="http://www.w3.org/2000/svg" width="35.560001mm" height="8.6359968mm" viewBox="0 0 35.560001 8.6359969" version="1.1" id="svg5" inkscape:version="1.1.1 (3bf5ae0d25, 2021-09-20)" sodipodi:docname="input.svg">
  <sodipodi:namedview id="namedview7" pagecolor="#ffffff" bordercolor="#666666" borderopacity="1.0" inkscape:pageshadow="2" inkscape:pageopacity="0.0" inkscape:pagecheckerboard="0" inkscape:document-units="mm" showgrid="true" inkscape:zoom="8" inkscape:cx="51.8125" inkscape:cy="66.1875" inkscape:window-width="1783" inkscape:window-height="1240" inkscape:window-x="1589" inkscape:window-y="1264" inkscape:window-maximized="0" inkscape:current-layer="g177390" objecttolerance="20" inkscape:snap-global="true" inkscape:snap-nodes="true" inkscape:snap-others="true" inkscape:snap-to-guides="true" guidetolerance="10000" inkscape:snap-object-midpoints="true" inkscape:snap-bbox="true" inkscape:snap-bbox-midpoints="true" inkscape:snap-bbox-edge-midpoints="true" inkscape:object-nodes="false" inkscape:snap-center="true" fit-margin-top="0" fit-margin-left="0" fit-margin-right="0" fit-margin-bottom="0" showguides="true" inkscape:guide-bbox="true" inkscape:bbox-nodes="true" inkscape:bbox-paths="true">
    <inkscape:grid type="xygrid" id="grid9" spacingx="0.254" spacingy="0.254" originx="36.167954" originy="-1.9429781"/>
    <sodipodi:guide position="0.099956618,2.9589753" orientation="1,0" id="guide137901"/>
  </sodipodi:namedview>
  <defs id="defs2">
    <linearGradient id="linearGradient2068" inkscape:swatch="solid">
      <stop style="stop-color:#7f3f98;stop-opacity:1;" offset="0" id="stop2066"/>
    </linearGradient>
  </defs>
  <g inkscape:label="Layer 1" inkscape:groupmode="layer" id="layer1" style="display:inline" transform="translate(36.040956,-2.0699781)">
    <g id="breadboard" transform="matrix(1.0857143,0,0,1.0545455,0.4971143,0.50107273)">
      <g id="breadboard-5" transform="matrix(0.3249269,0,0,0.33453064,-34.823222,-0.43914474)" style="display:inline" inkscape:label="original">
        <g id="g177390" inkscape:label="Pins">
          <path id="connector1pin" style="fill:#999999" d="m 5.7600002,27.360001 h 2.8800001 v 2.88 H 5.7600002 Z"/>
          <path id="connector2pin" style="fill:#999999" d="m 12.96,27.360001 h 2.88 v 2.88 h -2.88 z"/>
          <path id="connector3pin" style="fill:#999999" d="m 20.16,27.360001 h 2.88 v 2.88 h -2.88 z"/>
          <path id="connector4pin" style="fill:#999999" d="m 27.360001,27.360001 h 2.88 v 2.88 h -2.88 z"/>
          <path id="connector5pin" style="fill:#999999" d="m 34.560001,27.360001 h 2.88 v 2.88 h -2.88 z"/>
          <path id="connector6pin" style="fill:#999999" d="m 41.759998,27.360001 h 2.88 v 2.88 h -2.88 z"/>
          <path id="connector7pin" style="fill:#999999" d="m 48.959999,27.360001 h 2.88 v 2.88 h -2.88 z"/>
          <path id="connector8pin" style="fill:#999999" d="m 56.16,27.360001 h 2.88 v 2.88 h -2.88 z"/>
          <path id="connector9pin" style="fill:#999999" d="m 63.360001,27.360001 h 2.88 v 2.88 h -2.88 z"/>
          <path id="connector10pin" style="fill:#999999" d="m 70.559998,27.360001 h 2.88 v 2.88 h -2.88 z"/>
          <path id="connector11pin" style="fill:#999999" d="m 77.754044,27.36001 h 2.88 v 2.88 h -2.88 z"/>
          <path id="connector12pin" style="fill:#999999" d="m 84.95433,27.36001 h 2.88 v 2.88 h -2.88 z"/>
          <path id="connector13pin" style="fill:#999999" d="m 92.159996,27.36001 h 2.88 v 2.88 h -2.88 z"/>
          <path id="connector14pin" style="fill:#999999" d="M 99.360001,27.36001 H 102.24 v 2.88 h -2.879999 z"/>
        </g>
        <path d="M 12.96,27.36 11.88,26.64 V 25.2 h 5.04 v 1.44 l -1.08,0.72" id="path5756" fill-opacity="1" style="color:#000000;display:inline;overflow:visible;visibility:visible;fill-rule:nonzero;marker:none;enable-background:accumulate" stroke="none" stroke-width="0" fill="#999999"/>
        <path d="M 5.76,27.36 V 25.2 h 3.96 v 1.44 l -1.08,0.72" id="path5758" fill-opacity="1" style="color:#000000;display:inline;overflow:visible;visibility:visible;fill-rule:nonzero;marker:none;enable-background:accumulate" stroke="none" stroke-width="0" fill="#999999"/>
        <path d="M 20.16,27.36 19.08,26.64 V 25.2 h 5.04 v 1.44 l -1.08,0.72" id="path5760" fill-opacity="1" style="color:#000000;display:inline;overflow:visible;visibility:visible;fill-rule:nonzero;marker:none;enable-background:accumulate" stroke="none" stroke-width="0" fill="#999999"/>
        <path d="M 27.36,27.36 26.28,26.64 V 25.2 h 5.04 v 1.44 l -1.08,0.72" id="path5762" fill-opacity="1" style="color:#000000;display:inline;overflow:visible;visibility:visible;fill-rule:nonzero;marker:none;enable-background:accumulate" stroke="none" stroke-width="0" fill="#999999"/>
        <path d="M 34.56,27.36 33.48,26.64 V 25.2 h 5.04 v 1.44 l -1.08,0.72" id="path5764" fill-opacity="1" style="color:#000000;display:inline;overflow:visible;visibility:visible;fill-rule:nonzero;marker:none;enable-background:accumulate" stroke="none" stroke-width="0" fill="#999999"/>
        <path d="M 41.76,27.36 40.68,26.64 V 25.2 h 5.04 v 1.44 l -1.08,0.72" id="path5766" fill-opacity="1" style="color:#000000;display:inline;overflow:visible;visibility:visible;fill-rule:nonzero;marker:none;enable-background:accumulate" stroke="none" stroke-width="0" fill="#999999"/>
        <path d="M 48.96,27.36 47.88,26.64 V 25.2 h 5.04 v 1.44 l -1.08,0.72" id="path5768" fill-opacity="1" style="color:#000000;display:inline;overflow:visible;visibility:visible;fill-rule:nonzero;marker:none;enable-background:accumulate" stroke="none" stroke-width="0" fill="#999999"/>
        <path d="M 102.24,27.36 V 25.2 h -3.96 v 1.44 l 1.08,0.72" id="path5770" fill-opacity="1" style="color:#000000;display:inline;overflow:visible;visibility:visible;fill-rule:nonzero;marker:none;enable-background:accumulate" stroke="none" stroke-width="0" fill="#999999"/>
        <path id="connector16pin" style="fill:#999999" d="m 92.160004,5.7600098 h 2.88 v 2.8800001 h -2.88 z"/>
        <path id="connector15pin" style="fill:#999999" d="M 99.360001,5.7600098 H 102.24 v 2.8800001 h -2.879999 z"/>
        <g transform="scale(-1)" id="g40927"/>
        <g transform="scale(-1)" id="g40930"/>
        <g transform="scale(-1)" id="g40933"/>
        <g transform="scale(-1)" id="g40936"/>
        <path d="m 12.96,8.64 -1.08,0.72 v 1.44 h 5.04 V 9.36 L 15.84,8.64" id="path5772" fill-opacity="1" style="color:#000000;display:inline;overflow:visible;visibility:visible;fill-rule:nonzero;marker:none;enable-background:accumulate" stroke="none" stroke-width="0" fill="#999999"/>
        <path d="M 5.76,8.64 V 10.8 H 9.72 V 9.36 L 8.64,8.64" id="path5774" fill-opacity="1" style="color:#000000;display:inline;overflow:visible;visibility:visible;fill-rule:nonzero;marker:none;enable-background:accumulate" stroke="none" stroke-width="0" fill="#999999"/>
        <path d="m 20.16,8.64 -1.08,0.72 v 1.44 h 5.04 V 9.36 L 23.04,8.64" id="path5776" fill-opacity="1" style="color:#000000;display:inline;overflow:visible;visibility:visible;fill-rule:nonzero;marker:none;enable-background:accumulate" stroke="none" stroke-width="0" fill="#999999"/>
        <path d="m 27.36,8.64 -1.08,0.72 v 1.44 h 5.04 V 9.36 L 30.24,8.64" id="path5778" fill-opacity="1" style="color:#000000;display:inline;overflow:visible;visibility:visible;fill-rule:nonzero;marker:none;enable-background:accumulate" stroke="none" stroke-width="0" fill="#999999"/>
        <path d="m 34.56,8.64 -1.08,0.72 v 1.44 h 5.04 V 9.36 L 37.44,8.64" id="path5780" fill-opacity="1" style="color:#000000;display:inline;overflow:visible;visibility:visible;fill-rule:nonzero;marker:none;enable-background:accumulate" stroke="none" stroke-width="0" fill="#999999"/>
        <path d="m 41.76,8.64 -1.08,0.72 v 1.44 h 5.04 V 9.36 L 44.64,8.64" id="path5782" fill-opacity="1" style="color:#000000;display:inline;overflow:visible;visibility:visible;fill-rule:nonzero;marker:none;enable-background:accumulate" stroke="none" stroke-width="0" fill="#999999"/>
        <path d="m 77.76,8.64 -1.08,0.72 v 1.44 h 5.04 V 9.36 L 80.64,8.64" id="path5784" fill-opacity="1" style="color:#000000;display:inline;overflow:visible;visibility:visible;fill-rule:nonzero;marker:none;enable-background:accumulate" stroke="none" stroke-width="0" fill="#999999"/>
        <path d="M 102.24,8.64 V 10.8 H 98.28 V 9.36 l 1.08,-0.72" id="path5786" fill-opacity="1" style="color:#000000;display:inline;overflow:visible;visibility:visible;fill-rule:nonzero;marker:none;enable-background:accumulate" stroke="none" stroke-width="0" fill="#999999"/>
        <path id="rect5716" style="display:inline;fill:#333333;fill-rule:evenodd" d="M 3.5999999,10.7934 H 104.4 V 25.2 H 3.5999999 Z"/>
        <g transform="translate(7.20831,-360.48)" id="g40952">
          <g xml:space="preserve" id="text5796" fill-opacity="1" style="font-style:normal;font-variant:normal;font-weight:normal;font-stretch:normal;line-height:125%;font-family:OCRA;-inkscape-font-specification:OCRA;text-align:center;letter-spacing:0px;word-spacing:0px;text-anchor:middle;display:inline" stroke="none" font-size="6.4px" fill="#000000">
<g id="tspan5798" fill-opacity="1" fill="#e2e2e2">
<g aria-label="MCP23017" id="tspan7125" style="fill:#ffffff;fill-opacity:0.235294"><path d="m 29.022512,380.6736 v -4.6656 h 0.8064 l 0.7872,1.12 0.7808,-1.12 h 0.8128 v 4.6656 q 0,0.1344 -0.096,0.2304 -0.096,0.096 -0.2304,0.096 -0.1344,0 -0.2304,-0.096 -0.0896,-0.096 -0.0896,-0.2304 v -3.776 l -0.6272,0.896 v 0.1664 q 0,0.1344 -0.096,0.2304 -0.096,0.096 -0.224,0.096 -0.1344,0 -0.2304,-0.096 -0.096,-0.096 -0.096,-0.2304 v -0.1664 l -0.6208,-0.8832 v 3.7632 q 0,0.1344 -0.096,0.2304 -0.096,0.096 -0.2304,0.096 -0.1344,0 -0.2304,-0.096 -0.0896,-0.096 -0.0896,-0.2304 z" style="font-size:6.4px;-inkscape-font-specification:'OCRA, Normal'" id="path950"/><path d="m 33.64971,378.504 q 0,-0.3392 0.1536,-0.6592 l 0.6464,-1.3056 q 0.1024,-0.2304 0.3392,-0.3776 0.2432,-0.1536 0.5312,-0.1536 h 1.1904 q 0.1344,0 0.2304,0.096 0.096,0.096 0.096,0.224 0,0.1344 -0.096,0.2304 -0.096,0.096 -0.2304,0.096 h -1.1904 q -0.1984,0 -0.2816,0.1792 l -0.6592,1.2992 q -0.0832,0.1792 -0.0832,0.3712 0,0.192 0.0832,0.3712 l 0.6592,1.2992 q 0.0832,0.1792 0.2816,0.1792 h 1.1904 q 0.1344,0 0.2304,0.096 0.096,0.096 0.096,0.224 0,0.1344 -0.096,0.2304 -0.096,0.096 -0.2304,0.096 h -1.1904 q -0.2816,0 -0.5184,-0.1536 -0.2304,-0.1536 -0.3456,-0.384 -0.4736,-0.9024 -0.6528,-1.2992 -0.1536,-0.3264 -0.1536,-0.6592 z" style="font-size:6.4px;-inkscape-font-specification:'OCRA, Normal'" id="path952"/><path d="m 38.276907,380.6736 v -4.6656 h 2.2144 q 0.3968,0 0.6848,0.288 0.288,0.2816 0.288,0.6784 v 1.152 q 0,0.3968 -0.288,0.6848 -0.288,0.288 -0.6848,0.288 h -1.568 v 1.5744 q 0,0.1344 -0.096,0.2304 -0.096,0.096 -0.2304,0.096 -0.1344,0 -0.2304,-0.096 -0.0896,-0.096 -0.0896,-0.2304 z m 0.6464,-2.2208 h 1.568 q 0.128,0 0.224,-0.096 0.1024,-0.096 0.1024,-0.2304 v -1.152 q 0,-0.128 -0.1024,-0.224 -0.096,-0.096 -0.224,-0.096 h -1.568 z" style="font-size:6.4px;-inkscape-font-specification:'OCRA, Normal'" id="path954"/><path d="m 42.904104,381 v -2.176 q 0,-0.2624 0.192,-0.448 0.192,-0.192 0.4544,-0.192 h 1.8944 v -1.5296 h -2.2208 q -0.1344,0 -0.2304,-0.096 -0.0896,-0.096 -0.0896,-0.2304 0,-0.128 0.0896,-0.224 0.096,-0.096 0.2304,-0.096 h 2.2208 q 0.256,0 0.448,0.192 0.1984,0.192 0.1984,0.4544 v 1.5296 q 0,0.256 -0.192,0.448 -0.192,0.192 -0.4544,0.192 h -1.8944 v 1.5296 h 2.2144 q 0.1344,0 0.2304,0.096 0.096,0.096 0.096,0.224 0,0.1344 -0.096,0.2304 -0.096,0.096 -0.2304,0.096 z" style="font-size:6.4px;-inkscape-font-specification:'OCRA, Normal'" id="path956"/><path d="m 47.531301,380.6736 q 0,-0.128 0.0896,-0.224 0.096,-0.096 0.2304,-0.096 h 2.2208 v -1.2032 q 0,-0.128 -0.1024,-0.224 -0.096,-0.1024 -0.224,-0.1024 h -1.2608 q -0.1344,0 -0.2304,-0.0896 -0.0896,-0.096 -0.0896,-0.2304 0,-0.1344 0.0896,-0.2304 0.096,-0.096 0.2304,-0.096 h 1.2608 q 0.1344,0 0.2304,-0.096 0.096,-0.096 0.096,-0.224 v -1.2032 h -2.2208 q -0.1344,0 -0.2304,-0.096 -0.0896,-0.096 -0.0896,-0.2304 0,-0.128 0.0896,-0.224 0.096,-0.096 0.2304,-0.096 h 2.2208 q 0.256,0 0.448,0.192 0.1984,0.192 0.1984,0.4544 v 1.2032 q 0,0.3712 -0.256,0.6464 0.256,0.2752 0.256,0.6464 v 1.2032 q 0,0.2624 -0.1984,0.4544 -0.192,0.192 -0.448,0.192 h -2.2208 q -0.1344,0 -0.2304,-0.096 -0.0896,-0.096 -0.0896,-0.2304 z" style="font-size:6.4px;-inkscape-font-specification:'OCRA, Normal'" id="path958"/><path d="m 52.158499,380.3536 v -3.6992 q 0,-0.2624 0.192,-0.4544 0.192,-0.192 0.4544,-0.192 h 1.8944 q 0.256,0 0.448,0.192 0.1984,0.192 0.1984,0.4544 v 3.6992 q 0,0.2624 -0.1984,0.4544 -0.192,0.192 -0.448,0.192 h -1.8944 q -0.2624,0 -0.4544,-0.192 -0.192,-0.192 -0.192,-0.4544 z m 0.6464,0 h 1.8944 v -3.6992 h -1.8944 z" style="font-size:6.4px;-inkscape-font-specification:'OCRA, Normal'" id="path960"/><path d="m 56.785696,380.6736 q 0,-0.128 0.0896,-0.224 0.096,-0.096 0.2304,-0.096 h 0.9472 v -3.6992 h -0.9472 q -0.1344,0 -0.2304,-0.096 -0.0896,-0.096 -0.0896,-0.2304 0,-0.128 0.0896,-0.224 0.096,-0.096 0.2304,-0.096 h 1.5936 v 4.3456 h 0.6272 v -1.3056 q 0,-0.1344 0.0896,-0.2304 0.096,-0.096 0.2304,-0.096 0.1344,0 0.2304,0.096 0.096,0.096 0.096,0.2304 v 1.6256 q 0,0.1344 -0.096,0.2304 -0.096,0.096 -0.2304,0.096 h -2.5408 q -0.1344,0 -0.2304,-0.096 -0.0896,-0.096 -0.0896,-0.2304 z" style="font-size:6.4px;-inkscape-font-specification:'OCRA, Normal'" id="path962"/><path d="m 61.412893,376.6032 v -0.2752 q 0,-0.128 0.0896,-0.224 0.096,-0.096 0.2304,-0.096 h 2.8672 v 1.952 q 0,0.1472 -0.1152,0.2496 l -1.1584,0.9856 v 1.4784 q 0,0.1344 -0.096,0.2304 -0.096,0.096 -0.224,0.096 -0.1344,0 -0.2304,-0.096 -0.096,-0.096 -0.096,-0.2304 v -1.6256 q 0,-0.1472 0.1152,-0.2496 l 1.1584,-0.9856 v -1.1584 h -1.9008 q -0.0192,0.1152 -0.1088,0.192 -0.0896,0.0768 -0.2112,0.0768 -0.1344,0 -0.2304,-0.0896 -0.0896,-0.096 -0.0896,-0.2304 z" style="font-size:6.4px;-inkscape-font-specification:'OCRA, Normal'" id="path964"/></g>
</g>
</g>
        </g>
        <path d="M 56.16,27.36 55.08,26.64 V 25.2 h 5.04 v 1.44 l -1.08,0.72" id="path3050" fill-opacity="1" style="color:#000000;display:inline;overflow:visible;visibility:visible;fill-rule:nonzero;marker:none;enable-background:accumulate" stroke="none" stroke-width="0" fill="#999999"/>
        <path d="M 63.36,27.36 62.28,26.64 V 25.2 h 5.04 v 1.44 l -1.08,0.72" id="path3052" fill-opacity="1" style="color:#000000;display:inline;overflow:visible;visibility:visible;fill-rule:nonzero;marker:none;enable-background:accumulate" stroke="none" stroke-width="0" fill="#999999"/>
        <path d="m 92.16,8.64 -1.08,0.72 v 1.44 h 5.04 V 9.36 L 95.04,8.64" id="path3054" fill-opacity="1" style="color:#000000;display:inline;overflow:visible;visibility:visible;fill-rule:nonzero;marker:none;enable-background:accumulate" stroke="none" stroke-width="0" fill="#999999"/>
        <path d="m 84.96,8.64 -1.08,0.72 v 1.44 h 5.04 V 9.36 L 87.84,8.64" id="path3056" fill-opacity="1" style="color:#000000;display:inline;overflow:visible;visibility:visible;fill-rule:nonzero;marker:none;enable-background:accumulate" stroke="none" stroke-width="0" fill="#999999"/>
        <path id="connector20pin" style="fill:#999999" d="m 63.360001,5.7600098 h 2.88 v 2.8800001 h -2.88 z"/>
        <path id="connector19pin" style="fill:#999999" d="m 70.559998,5.7600098 h 2.88 v 2.8800001 h -2.88 z"/>
        <path id="connector18pin-1" style="fill:#999999" d="m 77.760002,5.7600098 h 2.88 v 2.8800001 h -2.88 z"/>
        <path id="connector17pin-2" style="fill:#999999" d="m 84.959999,5.7600098 h 2.88 v 2.8800001 h -2.88 z"/>
        <path d="m 3.6,10.8 v 0.725 3.6 h 0.65 c 1.45882,0.153911 2.6,1.37442 2.6,2.875 0,1.50491 -1.13508,2.72687 -2.6,2.875 H 3.6 V 25.2 l 1.45,-1.45 v -1.6 c 1.84118,-0.486329 3.2,-2.15801 3.2,-4.15 0,-1.99199 -1.35882,-3.66367 -3.2,-4.15 v -1.6 h 69.1 28.8 L 104.4,10.8 H 75.6 74.15 4.325 Z" id="path3842" fill-opacity="0.156863" style="color:#000000;font-style:normal;font-variant:normal;font-weight:normal;font-stretch:normal;line-height:normal;font-family:Sans;-inkscape-font-specification:OCRA;text-indent:0;text-align:start;text-decoration:none;text-decoration-line:none;letter-spacing:normal;word-spacing:normal;text-transform:none;writing-mode:lr-tb;direction:ltr;baseline-shift:baseline;text-anchor:start;display:inline;overflow:visible;visibility:visible;marker:none;enable-background:accumulate" stroke="none" font-size="medium" stroke-width="1.41732" fill="#ffffff"/>
        <path d="M 3.6,25.2 H 104.4 V 10.8 l -1.44,1.44 V 23.76 H 5.04 L 3.6,25.2" id="path7926" fill-opacity="0.235294" style="color:#000000;display:inline;overflow:visible;visibility:visible;marker:none;enable-background:accumulate" stroke="none" stroke-width="0.144" fill="#000000"/>
        <path d="M 70.56,27.36 69.48,26.64 V 25.2 h 5.04 v 1.44 l -1.08,0.72" id="path8471" fill-opacity="1" style="color:#000000;display:inline;overflow:visible;visibility:visible;fill-rule:nonzero;marker:none;enable-background:accumulate" stroke="none" stroke-width="0" fill="#999999"/>
        <path d="M 77.76,27.36 76.68,26.64 V 25.2 h 5.04 v 1.44 l -1.08,0.72" id="path8473" fill-opacity="1" style="color:#000000;display:inline;overflow:visible;visibility:visible;fill-rule:nonzero;marker:none;enable-background:accumulate" stroke="none" stroke-width="0" fill="#999999"/>
        <path d="M 84.96,27.36 83.88,26.64 V 25.2 h 5.04 v 1.44 l -1.08,0.72" id="path8475" fill-opacity="1" style="color:#000000;display:inline;overflow:visible;visibility:visible;fill-rule:nonzero;marker:none;enable-background:accumulate" stroke="none" stroke-width="0" fill="#999999"/>
        <path d="M 92.16,27.36 91.08,26.64 V 25.2 h 5.04 v 1.44 l -1.08,0.72" id="path8477" fill-opacity="1" style="color:#000000;display:inline;overflow:visible;visibility:visible;fill-rule:nonzero;marker:none;enable-background:accumulate" stroke="none" stroke-width="0" fill="#999999"/>
        <path d="m 48.96,8.64 -1.08,0.72 v 1.44 h 5.04 V 9.36 L 51.84,8.64" id="path8479" fill-opacity="1" style="color:#000000;display:inline;overflow:visible;visibility:visible;fill-rule:nonzero;marker:none;enable-background:accumulate" stroke="none" stroke-width="0" fill="#999999"/>
        <path d="m 63.36,8.64 -1.08,0.72 v 1.44 h 5.04 V 9.36 L 66.24,8.64" id="path8481" fill-opacity="1" style="color:#000000;display:inline;overflow:visible;visibility:visible;fill-rule:nonzero;marker:none;enable-background:accumulate" stroke="none" stroke-width="0" fill="#999999"/>
        <path d="m 56.16,8.64 -1.08,0.72 v 1.44 h 5.04 V 9.36 L 59.04,8.64" id="path8483" fill-opacity="1" style="color:#000000;display:inline;overflow:visible;visibility:visible;fill-rule:nonzero;marker:none;enable-background:accumulate" stroke="none" stroke-width="0" fill="#999999"/>
        <path d="m 70.56,8.64 -1.08,0.72 v 1.44 h 5.04 V 9.36 L 73.44,8.64" id="path8485" fill-opacity="1" style="color:#000000;display:inline;overflow:visible;visibility:visible;fill-rule:nonzero;marker:none;enable-background:accumulate" stroke="none" stroke-width="0" fill="#999999"/>
        <path id="connector22pin" style="fill:#999999" d="m 48.959999,5.7600098 h 2.88 v 2.8800001 h -2.88 z"/>
        <path id="connector21pin" style="fill:#999999" d="m 56.16,5.7600098 h 2.88 v 2.8800001 h -2.88 z"/>
        <path id="connector26pin" style="fill:#999999" d="m 20.16,5.7600098 h 2.88 v 2.8800001 h -2.88 z"/>
        <path id="connector25pin" style="fill:#999999" d="m 27.360001,5.7600098 h 2.88 v 2.8800001 h -2.88 z"/>
        <path id="connector24pin" style="fill:#999999" d="m 34.560001,5.7600098 h 2.88 v 2.8800001 h -2.88 z"/>
        <path id="connector23pin" style="fill:#999999" d="m 41.759998,5.7600098 h 2.88 v 2.8800001 h -2.88 z"/>
        <path id="connector28pin" style="fill:#999999" d="M 5.7600002,5.7600098 H 8.6400003 V 8.6400099 H 5.7600002 Z"/>
        <path id="connector27pin" style="fill:#999999" d="m 12.96,5.7600098 h 2.88 v 2.8800001 h -2.88 z"/>
      </g>
      <g id="g125744" inkscape:label="PinNames" transform="translate(2.1188237,-1.2325594)">
        <g aria-label="GPB 0" id="text49490" style="font-size:0.881944px;line-height:1.25;font-family:OCRA;-inkscape-font-specification:OCRA;text-align:center;text-anchor:middle;stroke-width:0.264583">
          <path d="M -35.367756,8.6575581 V 8.4185513 q 0,-0.060854 0.03704,-0.1084791 L -35.21077,8.15485 q 0.03969,-0.051153 0.105833,-0.051153 h 0.13141 q 0.01852,0 0.03175,0.013229 0.01323,0.013229 0.01323,0.030868 0,0.018521 -0.01323,0.03175 -0.01323,0.013229 -0.03175,0.013229 h -0.13141 q -0.02205,0 -0.03528,0.017639 l -0.119944,0.1534582 q -0.01852,0.024695 -0.01852,0.054681 v 0.2390068 q 0,0.018521 0.01323,0.03175 0.01323,0.013229 0.03087,0.013229 h 0.171979 q 0.01764,0 0.03087,-0.013229 0.01411,-0.013229 0.01411,-0.03175 v -0.09084 h -0.08731 q -0.01852,0 -0.03175,-0.012347 -0.01235,-0.013229 -0.01235,-0.03175 0,-0.018521 0.01235,-0.03175 0.01323,-0.013229 0.03175,-0.013229 h 0.176389 v 0.1799166 q 0,0.05468 -0.03969,0.094368 -0.03969,0.039687 -0.09437,0.039687 h -0.171979 q -0.05556,0 -0.09437,-0.038806 -0.0388,-0.039687 -0.0388,-0.09525 z" style="fill:#ffffff" id="path979"/>
          <path d="M -34.730111,8.7466344 V 8.1036973 h 0.305153 q 0.05468,0 0.09437,0.039687 0.03969,0.038806 0.03969,0.093486 v 0.1587499 q 0,0.054681 -0.03969,0.094368 -0.03969,0.039688 -0.09437,0.039688 h -0.216077 v 0.2169582 q 0,0.018521 -0.01323,0.03175 -0.01323,0.013229 -0.03175,0.013229 -0.01852,0 -0.03175,-0.013229 -0.01235,-0.013229 -0.01235,-0.03175 z m 0.08908,-0.3060345 h 0.216077 q 0.01764,0 0.03087,-0.013229 0.01411,-0.013229 0.01411,-0.03175 V 8.2368708 q 0,-0.017639 -0.01411,-0.030868 -0.01323,-0.013229 -0.03087,-0.013229 h -0.216077 z" style="fill:#ffffff" id="path981"/>
          <path d="M -34.092466,8.7916136 V 8.1036973 h 0.261055 q 0.07232,0 0.125237,0.052917 0.05292,0.052917 0.05292,0.125236 v 0.032632 q 0,0.078493 -0.06174,0.1331735 0.06174,0.05468 0.06174,0.1331736 v 0.032632 q 0,0.072319 -0.05292,0.125236 -0.05292,0.052917 -0.125237,0.052917 z m 0.08908,-0.089076 h 0.171979 q 0.03616,0 0.06262,-0.026458 0.02646,-0.02734 0.02646,-0.062618 V 8.580829 q 0,-0.03616 -0.02646,-0.062618 -0.02646,-0.026458 -0.06262,-0.026458 h -0.171979 z m 0,-0.2998609 h 0.171979 q 0.03616,0 0.06262,-0.026458 0.02646,-0.026458 0.02646,-0.061736 v -0.032632 q 0,-0.035278 -0.02646,-0.061736 -0.02646,-0.02734 -0.06262,-0.02734 h -0.171979 z" style="fill:#ffffff" id="path983"/>
          <path d="M -34.730111,9.8049672 V 9.2952036 q 0,-0.03616 0.02646,-0.062618 0.02646,-0.026458 0.06262,-0.026458 h 0.261056 q 0.03528,0 0.06174,0.026458 0.02734,0.026458 0.02734,0.062618 v 0.5097636 q 0,0.03616 -0.02734,0.062618 -0.02646,0.026458 -0.06174,0.026458 h -0.261056 q -0.03616,0 -0.06262,-0.026458 -0.02646,-0.026458 -0.02646,-0.062618 z m 0.08908,0 h 0.261056 V 9.2952036 h -0.261056 z" style="fill:#ffffff" id="path985"/>
        </g>
        <g aria-label="GPB 1" id="text49490-8" style="font-size:0.881944px;line-height:1.25;font-family:OCRA;-inkscape-font-specification:OCRA;text-align:center;text-anchor:middle;display:inline;stroke-width:0.264583">
          <path d="M -33.134167,8.6791302 V 8.4401234 q 0,-0.060854 0.03704,-0.1084791 l 0.119944,-0.1552222 q 0.03969,-0.051153 0.105833,-0.051153 h 0.13141 q 0.01852,0 0.03175,0.013229 0.01323,0.013229 0.01323,0.030868 0,0.018521 -0.01323,0.03175 -0.01323,0.013229 -0.03175,0.013229 h -0.13141 q -0.02205,0 -0.03528,0.017639 l -0.119945,0.1534583 q -0.01852,0.024694 -0.01852,0.05468 v 0.2390068 q 0,0.018521 0.01323,0.03175 0.01323,0.013229 0.03087,0.013229 h 0.171979 q 0.01764,0 0.03087,-0.013229 0.01411,-0.013229 0.01411,-0.03175 V 8.58829 h -0.08731 q -0.01852,0 -0.03175,-0.012347 -0.01235,-0.013229 -0.01235,-0.03175 0,-0.018521 0.01235,-0.03175 0.01323,-0.013229 0.03175,-0.013229 h 0.176389 v 0.1799166 q 0,0.05468 -0.03969,0.094368 -0.03969,0.039687 -0.09437,0.039687 h -0.171979 q -0.05556,0 -0.09437,-0.038806 -0.0388,-0.039687 -0.0388,-0.09525 z" style="fill:#ffffff" id="path988"/>
          <path d="M -32.496522,8.7682065 V 8.1252694 h 0.305153 q 0.05468,0 0.09437,0.039687 0.03969,0.038806 0.03969,0.093486 v 0.1587499 q 0,0.054681 -0.03969,0.094368 -0.03969,0.039687 -0.09437,0.039687 h -0.216077 v 0.2169582 q 0,0.018521 -0.01323,0.03175 -0.01323,0.013229 -0.03175,0.013229 -0.01852,0 -0.03175,-0.013229 -0.01235,-0.013229 -0.01235,-0.03175 z m 0.08908,-0.3060345 h 0.216077 q 0.01764,0 0.03087,-0.013229 0.01411,-0.013229 0.01411,-0.03175 V 8.2584429 q 0,-0.017639 -0.01411,-0.030868 -0.01323,-0.013229 -0.03087,-0.013229 h -0.216077 z" style="fill:#ffffff" id="path990"/>
          <path d="M -31.858877,8.8131857 V 8.1252694 h 0.261056 q 0.07232,0 0.125236,0.052917 0.05292,0.052917 0.05292,0.1252361 v 0.032632 q 0,0.078493 -0.06174,0.1331735 0.06174,0.054681 0.06174,0.1331736 v 0.032632 q 0,0.072319 -0.05292,0.1252361 -0.05292,0.052917 -0.125236,0.052917 z m 0.08908,-0.089076 h 0.171979 q 0.03616,0 0.06262,-0.026458 0.02646,-0.02734 0.02646,-0.062618 v -0.032632 q 0,-0.03616 -0.02646,-0.062618 -0.02646,-0.026458 -0.06262,-0.026458 H -31.7698 Z m 0,-0.2998609 h 0.171979 q 0.03616,0 0.06262,-0.026458 0.02646,-0.026458 0.02646,-0.061736 v -0.032632 q 0,-0.035278 -0.02646,-0.061736 -0.02646,-0.02734 -0.06262,-0.02734 H -31.7698 Z" style="fill:#ffffff" id="path992"/>
          <path d="m -32.496522,9.8706365 q 0,-0.017639 0.01235,-0.030868 0.01323,-0.013229 0.03175,-0.013229 h 0.130528 V 9.3167757 h -0.130528 q -0.01852,0 -0.03175,-0.013229 -0.01235,-0.013229 -0.01235,-0.03175 0,-0.017639 0.01235,-0.030868 0.01323,-0.013229 0.03175,-0.013229 h 0.219604 v 0.5988399 h 0.08643 V 9.6466228 q 0,-0.018521 0.01235,-0.03175 0.01323,-0.013229 0.03175,-0.013229 0.01852,0 0.03175,0.013229 0.01323,0.013229 0.01323,0.03175 v 0.2240137 q 0,0.018521 -0.01323,0.03175 -0.01323,0.013229 -0.03175,0.013229 h -0.350132 q -0.01852,0 -0.03175,-0.013229 -0.01235,-0.013229 -0.01235,-0.03175 z" style="fill:#ffffff" id="path994"/>
        </g>
        <g aria-label="GPB 2" id="text49490-8-0" style="font-size:0.881944px;line-height:1.25;font-family:OCRA;-inkscape-font-specification:OCRA;text-align:center;text-anchor:middle;display:inline;stroke-width:0.264583">
          <path d="M -30.791123,8.6793686 V 8.4403618 q 0,-0.060854 0.03704,-0.1084791 l 0.119944,-0.1552222 q 0.03969,-0.051153 0.105834,-0.051153 h 0.131409 q 0.01852,0 0.03175,0.013229 0.01323,0.013229 0.01323,0.030868 0,0.018521 -0.01323,0.03175 -0.01323,0.013229 -0.03175,0.013229 h -0.131409 q -0.02205,0 -0.03528,0.017639 l -0.119945,0.1534583 q -0.01852,0.024694 -0.01852,0.05468 v 0.2390068 q 0,0.018521 0.01323,0.03175 0.01323,0.013229 0.03087,0.013229 h 0.171979 q 0.01764,0 0.03087,-0.013229 0.01411,-0.013229 0.01411,-0.03175 v -0.09084 h -0.08731 q -0.01852,0 -0.03175,-0.012347 -0.01235,-0.013229 -0.01235,-0.03175 0,-0.018521 0.01235,-0.03175 0.01323,-0.013229 0.03175,-0.013229 h 0.176388 v 0.1799166 q 0,0.054681 -0.03969,0.094368 -0.03969,0.039688 -0.09437,0.039688 h -0.171979 q -0.05556,0 -0.09437,-0.038806 -0.03881,-0.039687 -0.03881,-0.09525 z" style="fill:#ffffff" id="path997"/>
          <path d="M -30.153478,8.768445 V 8.1255078 h 0.305153 q 0.05468,0 0.09437,0.039688 0.03969,0.038805 0.03969,0.093486 v 0.15875 q 0,0.05468 -0.03969,0.094368 -0.03969,0.039687 -0.09437,0.039687 h -0.216076 V 8.768445 q 0,0.018521 -0.01323,0.03175 -0.01323,0.013229 -0.03175,0.013229 -0.01852,0 -0.03175,-0.013229 -0.01235,-0.013229 -0.01235,-0.03175 z m 0.08908,-0.3060346 h 0.216076 q 0.01764,0 0.03087,-0.013229 0.01411,-0.013229 0.01411,-0.03175 v -0.15875 q 0,-0.017639 -0.01411,-0.030868 -0.01323,-0.013229 -0.03087,-0.013229 h -0.216076 z" style="fill:#ffffff" id="path999"/>
          <path d="M -29.515833,8.8134241 V 8.1255078 h 0.261056 q 0.07232,0 0.125236,0.052917 0.05292,0.052917 0.05292,0.1252361 v 0.032632 q 0,0.078493 -0.06174,0.1331736 0.06174,0.05468 0.06174,0.1331735 v 0.032632 q 0,0.072319 -0.05292,0.1252361 -0.05292,0.052917 -0.125236,0.052917 z m 0.08908,-0.089076 h 0.171979 q 0.03616,0 0.06262,-0.026458 0.02646,-0.02734 0.02646,-0.062618 v -0.032632 q 0,-0.03616 -0.02646,-0.062618 -0.02646,-0.026458 -0.06262,-0.026458 h -0.171979 z m 0,-0.299861 h 0.171979 q 0.03616,0 0.06262,-0.026458 0.02646,-0.026458 0.02646,-0.061736 v -0.032632 q 0,-0.035278 -0.02646,-0.061736 -0.02646,-0.02734 -0.06262,-0.02734 h -0.171979 z" style="fill:#ffffff" id="path1001"/>
          <path d="M -30.153478,9.9158541 V 9.6159932 q 0,-0.03616 0.02646,-0.061736 0.02646,-0.026458 0.06262,-0.026458 h 0.261055 V 9.3170141 h -0.306034 q -0.01852,0 -0.03175,-0.013229 -0.01235,-0.013229 -0.01235,-0.03175 0,-0.017639 0.01235,-0.030868 0.01323,-0.013229 0.03175,-0.013229 h 0.306034 q 0.03528,0 0.06174,0.026458 0.02734,0.026458 0.02734,0.062618 v 0.2107847 q 0,0.035278 -0.02646,0.061736 -0.02646,0.026458 -0.06262,0.026458 h -0.261055 v 0.2107846 h 0.305152 q 0.01852,0 0.03175,0.013229 0.01323,0.013229 0.01323,0.030868 0,0.018521 -0.01323,0.03175 -0.01323,0.013229 -0.03175,0.013229 z" style="fill:#ffffff" id="path1003"/>
        </g>
        <g aria-label="GPB 3" transform="scale(0.99987767,1.0001223)" id="text49490-8-8" style="font-size:0.881836px;line-height:1.25;font-family:OCRA;-inkscape-font-specification:OCRA;text-align:center;text-anchor:middle;display:inline;stroke-width:0.264551">
          <path d="M -28.437563,8.6783064 V 8.4393289 q 0,-0.060847 0.03704,-0.1084658 l 0.11993,-0.1552032 q 0.03968,-0.051146 0.10582,-0.051146 h 0.131393 q 0.01852,0 0.03175,0.013228 0.01323,0.013227 0.01323,0.030864 0,0.018519 -0.01323,0.031746 -0.01323,0.013228 -0.03175,0.013228 h -0.131393 q -0.02205,0 -0.03527,0.017637 l -0.119929,0.1534394 q -0.01852,0.024691 -0.01852,0.054674 v 0.2389775 q 0,0.018519 0.01323,0.031746 0.01323,0.013228 0.03086,0.013228 h 0.171958 q 0.01764,0 0.03086,-0.013228 0.01411,-0.013227 0.01411,-0.031746 v -0.090829 h -0.0873 q -0.01852,0 -0.03175,-0.012346 -0.01235,-0.013228 -0.01235,-0.031746 0,-0.018518 0.01235,-0.031746 0.01323,-0.013227 0.03175,-0.013227 h 0.176367 v 0.1798945 q 0,0.054674 -0.03968,0.094356 -0.03968,0.039683 -0.09436,0.039683 h -0.171958 q -0.05556,0 -0.09436,-0.038801 -0.0388,-0.039683 -0.0388,-0.095238 z" style="fill:#ffffff" id="path1006"/>
          <path d="M -27.799996,8.7673719 V 8.1245134 h 0.305115 q 0.05467,0 0.09436,0.039683 0.03968,0.038801 0.03968,0.093475 v 0.1587304 q 0,0.054674 -0.03968,0.094356 -0.03968,0.039683 -0.09436,0.039683 h -0.21605 v 0.2169317 q 0,0.018518 -0.01323,0.031746 -0.01323,0.013227 -0.03175,0.013227 -0.01852,0 -0.03175,-0.013227 -0.01235,-0.013228 -0.01235,-0.031746 z m 0.08907,-0.3059971 h 0.21605 q 0.01764,0 0.03086,-0.013228 0.01411,-0.013227 0.01411,-0.031746 V 8.2576707 q 0,-0.017637 -0.01411,-0.030864 -0.01323,-0.013227 -0.03086,-0.013227 h -0.21605 z" style="fill:#ffffff" id="path1008"/>
          <path d="M -27.162429,8.8123455 V 8.1245134 h 0.261023 q 0.07231,0 0.125221,0.05291 0.05291,0.05291 0.05291,0.1252207 v 0.032628 q 0,0.078483 -0.06173,0.1331573 0.06173,0.054674 0.06173,0.1331572 v 0.032628 q 0,0.072311 -0.05291,0.1252207 -0.05291,0.05291 -0.125221,0.05291 z m 0.08906,-0.089065 h 0.171958 q 0.03616,0 0.06261,-0.026455 0.02646,-0.027337 0.02646,-0.06261 v -0.032628 q 0,-0.036155 -0.02646,-0.06261 -0.02645,-0.026455 -0.06261,-0.026455 h -0.171958 z m 0,-0.2998243 h 0.171958 q 0.03616,0 0.06261,-0.026455 0.02646,-0.026455 0.02646,-0.061729 v -0.032628 q 0,-0.035273 -0.02646,-0.061729 -0.02645,-0.027337 -0.06261,-0.027337 h -0.171958 z" style="fill:#ffffff" id="path1010"/>
          <path d="m -27.799996,9.8696669 q 0,-0.017637 0.01235,-0.030864 0.01323,-0.013227 0.03175,-0.013227 h 0.305997 V 9.6597899 q 0,-0.017637 -0.01411,-0.030864 -0.01323,-0.014109 -0.03086,-0.014109 h -0.173722 q -0.01852,0 -0.03175,-0.012346 -0.01234,-0.013228 -0.01234,-0.031746 0,-0.018519 0.01234,-0.031746 0.01323,-0.013228 0.03175,-0.013228 h 0.173722 q 0.01852,0 0.03175,-0.013228 0.01323,-0.013228 0.01323,-0.030864 V 9.3158739 h -0.305997 q -0.01852,0 -0.03175,-0.013228 -0.01235,-0.013227 -0.01235,-0.031746 0,-0.017637 0.01235,-0.030864 0.01323,-0.013228 0.03175,-0.013228 h 0.305997 q 0.03527,0 0.06173,0.026455 0.02734,0.026455 0.02734,0.06261 V 9.481659 q 0,0.051146 -0.03527,0.089066 0.03527,0.037919 0.03527,0.089065 v 0.1657852 q 0,0.036155 -0.02734,0.06261 -0.02645,0.026455 -0.06173,0.026455 h -0.305997 q -0.01852,0 -0.03175,-0.013228 -0.01235,-0.013228 -0.01235,-0.031746 z" style="fill:#ffffff" id="path1012"/>
        </g>
        <g aria-label="GPB 4" id="text49490-8-1" style="font-size:0.881944px;line-height:1.25;font-family:OCRA;-inkscape-font-specification:OCRA;text-align:center;text-anchor:middle;display:inline;stroke-width:0.264583">
          <path d="M -26.109482,8.6793686 V 8.4403618 q 0,-0.060854 0.03704,-0.1084791 l 0.119944,-0.1552222 q 0.03969,-0.051153 0.105833,-0.051153 h 0.13141 q 0.01852,0 0.03175,0.013229 0.01323,0.013229 0.01323,0.030868 0,0.018521 -0.01323,0.03175 -0.01323,0.013229 -0.03175,0.013229 h -0.13141 q -0.02205,0 -0.03528,0.017639 l -0.119944,0.1534583 q -0.01852,0.024694 -0.01852,0.05468 v 0.2390068 q 0,0.018521 0.01323,0.03175 0.01323,0.013229 0.03087,0.013229 h 0.171979 q 0.01764,0 0.03087,-0.013229 0.01411,-0.013229 0.01411,-0.03175 v -0.09084 h -0.08731 q -0.01852,0 -0.03175,-0.012347 -0.01235,-0.013229 -0.01235,-0.03175 0,-0.018521 0.01235,-0.03175 0.01323,-0.013229 0.03175,-0.013229 h 0.176389 v 0.1799166 q 0,0.054681 -0.03969,0.094368 -0.03969,0.039688 -0.09437,0.039688 h -0.171979 q -0.05556,0 -0.09437,-0.038806 -0.0388,-0.039687 -0.0388,-0.09525 z" style="fill:#ffffff" id="path1015"/>
          <path d="M -25.471837,8.768445 V 8.1255078 h 0.305153 q 0.05468,0 0.09437,0.039688 0.03969,0.038805 0.03969,0.093486 v 0.15875 q 0,0.05468 -0.03969,0.094368 -0.03969,0.039687 -0.09437,0.039687 h -0.216077 V 8.768445 q 0,0.018521 -0.01323,0.03175 -0.01323,0.013229 -0.03175,0.013229 -0.01852,0 -0.03175,-0.013229 -0.01235,-0.013229 -0.01235,-0.03175 z m 0.08908,-0.3060346 h 0.216077 q 0.01764,0 0.03087,-0.013229 0.01411,-0.013229 0.01411,-0.03175 v -0.15875 q 0,-0.017639 -0.01411,-0.030868 -0.01323,-0.013229 -0.03087,-0.013229 h -0.216077 z" style="fill:#ffffff" id="path1017"/>
          <path d="M -24.834192,8.8134241 V 8.1255078 h 0.261056 q 0.07232,0 0.125236,0.052917 0.05292,0.052917 0.05292,0.1252361 v 0.032632 q 0,0.078493 -0.06174,0.1331736 0.06174,0.05468 0.06174,0.1331735 v 0.032632 q 0,0.072319 -0.05292,0.1252361 -0.05292,0.052917 -0.125236,0.052917 z m 0.08908,-0.089076 h 0.17198 q 0.03616,0 0.06262,-0.026458 0.02646,-0.02734 0.02646,-0.062618 v -0.032632 q 0,-0.03616 -0.02646,-0.062618 -0.02646,-0.026458 -0.06262,-0.026458 h -0.17198 z m 0,-0.299861 h 0.17198 q 0.03616,0 0.06262,-0.026458 0.02646,-0.026458 0.02646,-0.061736 v -0.032632 q 0,-0.035278 -0.02646,-0.061736 -0.02646,-0.02734 -0.06262,-0.02734 h -0.17198 z" style="fill:#ffffff" id="path1019"/>
          <path d="M -25.45067,9.6909584 V 9.272035 q 0,-0.017639 0.01323,-0.030868 0.01323,-0.013229 0.03175,-0.013229 0.01852,0 0.03087,0.013229 0.01323,0.013229 0.01323,0.030868 v 0.329847 h 0.173743 V 9.3470002 q 0,-0.018521 0.01323,-0.030868 0.01323,-0.013229 0.03175,-0.013229 0.01764,0 0.03087,0.013229 0.01323,0.012347 0.01323,0.030868 V 9.601882 q 0.01852,0 0.03087,0.013229 0.01323,0.013229 0.01323,0.03175 0,0.018521 -0.01323,0.03175 -0.01235,0.012347 -0.03087,0.012347 V 9.870875 q 0,0.018521 -0.01323,0.03175 -0.01323,0.013229 -0.03087,0.013229 -0.01852,0 -0.03175,-0.013229 -0.01323,-0.013229 -0.01323,-0.03175 V 9.6909584 Z" style="fill:#ffffff" id="path1021"/>
        </g>
        <g aria-label="GPB 5" id="text49490-8-5" style="font-size:0.881944px;line-height:1.25;font-family:OCRA;-inkscape-font-specification:OCRA;text-align:center;text-anchor:middle;display:inline;stroke-width:0.264583">
          <path d="M -23.768725,8.6793686 V 8.4403618 q 0,-0.060854 0.03704,-0.1084791 l 0.119944,-0.1552222 q 0.03969,-0.051153 0.105834,-0.051153 h 0.131409 q 0.01852,0 0.03175,0.013229 0.01323,0.013229 0.01323,0.030868 0,0.018521 -0.01323,0.03175 -0.01323,0.013229 -0.03175,0.013229 h -0.131409 q -0.02205,0 -0.03528,0.017639 l -0.119945,0.1534583 q -0.01852,0.024694 -0.01852,0.05468 v 0.2390068 q 0,0.018521 0.01323,0.03175 0.01323,0.013229 0.03087,0.013229 h 0.171979 q 0.01764,0 0.03087,-0.013229 0.01411,-0.013229 0.01411,-0.03175 v -0.09084 h -0.08731 q -0.01852,0 -0.03175,-0.012347 -0.01235,-0.013229 -0.01235,-0.03175 0,-0.018521 0.01235,-0.03175 0.01323,-0.013229 0.03175,-0.013229 h 0.176388 v 0.1799166 q 0,0.054681 -0.03969,0.094368 -0.03969,0.039688 -0.09437,0.039688 h -0.171979 q -0.05556,0 -0.09437,-0.038806 -0.03881,-0.039687 -0.03881,-0.09525 z" style="fill:#ffffff" id="path1024"/>
          <path d="M -23.13108,8.768445 V 8.1255078 h 0.305153 q 0.05468,0 0.09437,0.039688 0.03969,0.038805 0.03969,0.093486 v 0.15875 q 0,0.05468 -0.03969,0.094368 -0.03969,0.039687 -0.09437,0.039687 h -0.216076 V 8.768445 q 0,0.018521 -0.01323,0.03175 -0.01323,0.013229 -0.03175,0.013229 -0.01852,0 -0.03175,-0.013229 -0.01235,-0.013229 -0.01235,-0.03175 z m 0.08908,-0.3060346 h 0.216076 q 0.01764,0 0.03087,-0.013229 0.01411,-0.013229 0.01411,-0.03175 v -0.15875 q 0,-0.017639 -0.01411,-0.030868 -0.01323,-0.013229 -0.03087,-0.013229 h -0.216076 z" style="fill:#ffffff" id="path1026"/>
          <path d="M -22.493435,8.8134241 V 8.1255078 h 0.261056 q 0.07232,0 0.125236,0.052917 0.05292,0.052917 0.05292,0.1252361 v 0.032632 q 0,0.078493 -0.06174,0.1331736 0.06174,0.05468 0.06174,0.1331735 v 0.032632 q 0,0.072319 -0.05292,0.1252361 -0.05292,0.052917 -0.125236,0.052917 z m 0.08908,-0.089076 h 0.171979 q 0.03616,0 0.06262,-0.026458 0.02646,-0.02734 0.02646,-0.062618 v -0.032632 q 0,-0.03616 -0.02646,-0.062618 -0.02646,-0.026458 -0.06262,-0.026458 h -0.171979 z m 0,-0.299861 h 0.171979 q 0.03616,0 0.06262,-0.026458 0.02646,-0.026458 0.02646,-0.061736 v -0.032632 q 0,-0.035278 -0.02646,-0.061736 -0.02646,-0.02734 -0.06262,-0.02734 h -0.171979 z" style="fill:#ffffff" id="path1028"/>
          <path d="m -23.13108,9.8338333 q 0,-0.018521 0.01235,-0.030868 0.01323,-0.013229 0.03175,-0.013229 0.01058,0 0.01764,0.00353 l 0.07938,0.033514 h 0.209021 V 9.6159932 h -0.262819 V 9.2279378 h 0.306916 q 0.01852,0 0.03175,0.013229 0.01323,0.013229 0.01323,0.030868 0,0.018521 -0.01323,0.03175 -0.01323,0.013229 -0.03175,0.013229 h -0.21784 v 0.2099027 h 0.173743 q 0.03528,0 0.06174,0.02734 0.02734,0.026458 0.02734,0.061736 v 0.2107846 q 0,0.03616 -0.02734,0.062618 -0.02646,0.026458 -0.06174,0.026458 h -0.200201 q -0.01764,0 -0.03616,-0.00441 -0.01764,-0.00441 -0.0291,-0.00882 -0.01146,-0.00529 -0.03087,-0.014111 -0.0194,-0.0097 -0.02734,-0.013229 -0.02646,-0.011465 -0.02646,-0.041451 z" style="fill:#ffffff" id="path1030"/>
        </g>
        <g aria-label="GPB 6" id="text49490-8-53" style="font-size:0.881944px;line-height:1.25;font-family:OCRA;-inkscape-font-specification:OCRA;text-align:center;text-anchor:middle;display:inline;stroke-width:0.264583">
          <path d="M -21.418597,8.6793686 V 8.4403618 q 0,-0.060854 0.03704,-0.1084791 l 0.119944,-0.1552222 q 0.03969,-0.051153 0.105834,-0.051153 h 0.131409 q 0.01852,0 0.03175,0.013229 0.01323,0.013229 0.01323,0.030868 0,0.018521 -0.01323,0.03175 -0.01323,0.013229 -0.03175,0.013229 h -0.131409 q -0.02205,0 -0.03528,0.017639 l -0.119944,0.1534583 q -0.01852,0.024694 -0.01852,0.05468 v 0.2390068 q 0,0.018521 0.01323,0.03175 0.01323,0.013229 0.03087,0.013229 h 0.171979 q 0.01764,0 0.03087,-0.013229 0.01411,-0.013229 0.01411,-0.03175 v -0.09084 h -0.08731 q -0.01852,0 -0.03175,-0.012347 -0.01235,-0.013229 -0.01235,-0.03175 0,-0.018521 0.01235,-0.03175 0.01323,-0.013229 0.03175,-0.013229 h 0.176389 v 0.1799166 q 0,0.054681 -0.03969,0.094368 -0.03969,0.039688 -0.09437,0.039688 h -0.171979 q -0.05556,0 -0.09437,-0.038806 -0.03881,-0.039687 -0.03881,-0.09525 z" style="fill:#ffffff" id="path1033"/>
          <path d="M -20.780951,8.768445 V 8.1255078 h 0.305152 q 0.05468,0 0.09437,0.039688 0.03969,0.038805 0.03969,0.093486 v 0.15875 q 0,0.05468 -0.03969,0.094368 -0.03969,0.039687 -0.09437,0.039687 h -0.216076 V 8.768445 q 0,0.018521 -0.01323,0.03175 -0.01323,0.013229 -0.03175,0.013229 -0.01852,0 -0.03175,-0.013229 -0.01235,-0.013229 -0.01235,-0.03175 z m 0.08908,-0.3060346 h 0.216076 q 0.01764,0 0.03087,-0.013229 0.01411,-0.013229 0.01411,-0.03175 v -0.15875 q 0,-0.017639 -0.01411,-0.030868 -0.01323,-0.013229 -0.03087,-0.013229 h -0.216076 z" style="fill:#ffffff" id="path1035"/>
          <path d="M -20.143306,8.8134241 V 8.1255078 h 0.261055 q 0.07232,0 0.125236,0.052917 0.05292,0.052917 0.05292,0.1252361 v 0.032632 q 0,0.078493 -0.06174,0.1331736 0.06174,0.05468 0.06174,0.1331735 v 0.032632 q 0,0.072319 -0.05292,0.1252361 -0.05292,0.052917 -0.125236,0.052917 z m 0.08908,-0.089076 h 0.171979 q 0.03616,0 0.06262,-0.026458 0.02646,-0.02734 0.02646,-0.062618 v -0.032632 q 0,-0.03616 -0.02646,-0.062618 -0.02646,-0.026458 -0.06262,-0.026458 h -0.171979 z m 0,-0.299861 h 0.171979 q 0.03616,0 0.06262,-0.026458 0.02646,-0.026458 0.02646,-0.061736 v -0.032632 q 0,-0.035278 -0.02646,-0.061736 -0.02646,-0.02734 -0.06262,-0.02734 h -0.171979 z" style="fill:#ffffff" id="path1037"/>
          <path d="m -20.780951,9.870875 v -0.59884 q 0,-0.017639 0.01235,-0.030868 0.01323,-0.013229 0.03175,-0.013229 h 0.0441 q 0.01852,0 0.03087,0.013229 0.01323,0.013229 0.01323,0.030868 0,0.018521 -0.01323,0.03175 -0.01235,0.013229 -0.03087,0.013229 V 9.601882 h 0.306035 q 0.01852,0 0.03175,0.013229 0.01323,0.013229 0.01323,0.03175 V 9.870875 q 0,0.018521 -0.01323,0.03175 -0.01323,0.013229 -0.03175,0.013229 h -0.350132 q -0.01852,0 -0.03175,-0.013229 -0.01235,-0.013229 -0.01235,-0.03175 z m 0.08819,-0.044097 h 0.261937 V 9.6909584 h -0.261937 z" style="fill:#ffffff" id="path1039"/>
        </g>
        <g aria-label="GPB 7" id="text49490-8-16" style="font-size:0.881944px;line-height:1.25;font-family:OCRA;-inkscape-font-specification:OCRA;text-align:center;text-anchor:middle;display:inline;stroke-width:0.264583">
          <path d="M -19.081827,8.6793686 V 8.4403618 q 0,-0.060854 0.03704,-0.1084791 l 0.119945,-0.1552222 q 0.03969,-0.051153 0.105833,-0.051153 h 0.131409 q 0.01852,0 0.03175,0.013229 0.01323,0.013229 0.01323,0.030868 0,0.018521 -0.01323,0.03175 -0.01323,0.013229 -0.03175,0.013229 h -0.131409 q -0.02205,0 -0.03528,0.017639 l -0.119944,0.1534583 q -0.01852,0.024694 -0.01852,0.05468 v 0.2390068 q 0,0.018521 0.01323,0.03175 0.01323,0.013229 0.03087,0.013229 h 0.171979 q 0.01764,0 0.03087,-0.013229 0.01411,-0.013229 0.01411,-0.03175 v -0.09084 h -0.08731 q -0.01852,0 -0.03175,-0.012347 -0.01235,-0.013229 -0.01235,-0.03175 0,-0.018521 0.01235,-0.03175 0.01323,-0.013229 0.03175,-0.013229 h 0.176389 v 0.1799166 q 0,0.054681 -0.03969,0.094368 -0.03969,0.039688 -0.09437,0.039688 h -0.171979 q -0.05556,0 -0.09437,-0.038806 -0.0388,-0.039687 -0.0388,-0.09525 z" style="fill:#ffffff" id="path1042"/>
          <path d="M -18.444182,8.768445 V 8.1255078 h 0.305152 q 0.05468,0 0.09437,0.039688 0.03969,0.038805 0.03969,0.093486 v 0.15875 q 0,0.05468 -0.03969,0.094368 -0.03969,0.039687 -0.09437,0.039687 h -0.216076 V 8.768445 q 0,0.018521 -0.01323,0.03175 -0.01323,0.013229 -0.03175,0.013229 -0.01852,0 -0.03175,-0.013229 -0.01235,-0.013229 -0.01235,-0.03175 z m 0.08908,-0.3060346 h 0.216076 q 0.01764,0 0.03087,-0.013229 0.01411,-0.013229 0.01411,-0.03175 v -0.15875 q 0,-0.017639 -0.01411,-0.030868 -0.01323,-0.013229 -0.03087,-0.013229 h -0.216076 z" style="fill:#ffffff" id="path1044"/>
          <path d="M -17.806537,8.8134241 V 8.1255078 h 0.261055 q 0.07232,0 0.125236,0.052917 0.05292,0.052917 0.05292,0.1252361 v 0.032632 q 0,0.078493 -0.06174,0.1331736 0.06174,0.05468 0.06174,0.1331735 v 0.032632 q 0,0.072319 -0.05292,0.1252361 -0.05292,0.052917 -0.125236,0.052917 z m 0.08908,-0.089076 h 0.171979 q 0.03616,0 0.06262,-0.026458 0.02646,-0.02734 0.02646,-0.062618 v -0.032632 q 0,-0.03616 -0.02646,-0.062618 -0.02646,-0.026458 -0.06262,-0.026458 h -0.171979 z m 0,-0.299861 h 0.171979 q 0.03616,0 0.06262,-0.026458 0.02646,-0.026458 0.02646,-0.061736 v -0.032632 q 0,-0.035278 -0.02646,-0.061736 -0.02646,-0.02734 -0.06262,-0.02734 h -0.171979 z" style="fill:#ffffff" id="path1046"/>
          <path d="M -18.444182,9.3099586 V 9.272035 q 0,-0.017639 0.01235,-0.030868 0.01323,-0.013229 0.03175,-0.013229 h 0.395111 v 0.2689929 q 0,0.020285 -0.01587,0.034396 l -0.159632,0.1358194 V 9.870875 q 0,0.018521 -0.01323,0.03175 -0.01323,0.013229 -0.03087,0.013229 -0.01852,0 -0.03175,-0.013229 -0.01323,-0.013229 -0.01323,-0.03175 V 9.6468612 q 0,-0.020285 0.01587,-0.034396 L -18.094051,9.476646 V 9.3170141 h -0.261937 q -0.0026,0.015875 -0.01499,0.026458 -0.01235,0.010583 -0.0291,0.010583 -0.01852,0 -0.03175,-0.012347 -0.01235,-0.013229 -0.01235,-0.03175 z" style="fill:#ffffff" id="path1048"/>
        </g>
        <g aria-label="VDD" id="text49490-8-16-4" style="font-size:0.881944px;line-height:1.25;font-family:OCRA;-inkscape-font-specification:OCRA;text-align:center;text-anchor:middle;display:inline;stroke-width:0.264583">
          <path d="M -16.730508,8.3292369 V 8.169605 q 0,-0.017639 0.01235,-0.030868 0.01323,-0.013229 0.03175,-0.013229 0.01852,0 0.03175,0.013229 0.01323,0.013229 0.01323,0.030868 v 0.141993 l 0.130528,0.3333748 0.130528,-0.3333748 V 8.169605 q 0,-0.017639 0.01235,-0.030868 0.01323,-0.013229 0.03175,-0.013229 0.01852,0 0.03175,0.013229 0.01323,0.013229 0.01323,0.030868 v 0.1587499 l -0.178153,0.456847 q -0.01146,0.028222 -0.04145,0.028222 -0.03087,0 -0.04233,-0.028222 z" style="fill:#ffffff" id="path1051"/>
          <path d="m -16.092863,8.768445 q 0,-0.017639 0.01235,-0.030868 0.01323,-0.013229 0.03175,-0.013229 h 0.04322 V 8.2145841 h -0.04322 q -0.01852,0 -0.03175,-0.013229 -0.01235,-0.013229 -0.01235,-0.03175 0,-0.017639 0.01235,-0.030868 0.01323,-0.013229 0.03175,-0.013229 h 0.164042 q 0.0388,0 0.07056,0.021167 0.03263,0.021167 0.04851,0.052917 l 0.08996,0.1790346 q 0.02205,0.045861 0.02205,0.09084 0,0.044979 -0.02205,0.09084 l -0.08908,0.1799166 q -0.01411,0.03175 -0.04763,0.052917 -0.03263,0.020285 -0.07232,0.020285 h -0.164042 q -0.01852,0 -0.03175,-0.013229 -0.01235,-0.013229 -0.01235,-0.03175 z m 0.176389,-0.044097 h 0.03175 q 0.02734,0 0.0388,-0.024695 l 0.09084,-0.1790346 q 0.01235,-0.029986 0.01235,-0.051153 0,-0.026458 -0.01235,-0.051153 l -0.09084,-0.1790346 q -0.01146,-0.024695 -0.0388,-0.024695 h -0.03175 z" style="fill:#ffffff" id="path1053"/>
          <path d="m -15.455218,8.768445 q 0,-0.017639 0.01235,-0.030868 0.01323,-0.013229 0.03175,-0.013229 h 0.04322 V 8.2145841 h -0.04322 q -0.01852,0 -0.03175,-0.013229 -0.01235,-0.013229 -0.01235,-0.03175 0,-0.017639 0.01235,-0.030868 0.01323,-0.013229 0.03175,-0.013229 h 0.164042 q 0.0388,0 0.07055,0.021167 0.03263,0.021167 0.04851,0.052917 l 0.08996,0.1790346 q 0.02205,0.045861 0.02205,0.09084 0,0.044979 -0.02205,0.09084 l -0.08908,0.1799166 q -0.01411,0.03175 -0.04762,0.052917 -0.03263,0.020285 -0.07232,0.020285 h -0.164042 q -0.01852,0 -0.03175,-0.013229 -0.01235,-0.013229 -0.01235,-0.03175 z m 0.176389,-0.044097 h 0.03175 q 0.02734,0 0.0388,-0.024695 l 0.09084,-0.1790346 q 0.01235,-0.029986 0.01235,-0.051153 0,-0.026458 -0.01235,-0.051153 l -0.09084,-0.1790346 q -0.01147,-0.024695 -0.0388,-0.024695 h -0.03175 z" style="fill:#ffffff" id="path1055"/>
        </g>
        <g aria-label="VSS" id="text49490-8-16-4-6" style="font-size:0.881944px;line-height:1.25;font-family:OCRA;-inkscape-font-specification:OCRA;text-align:center;text-anchor:middle;display:inline;stroke-width:0.264583">
          <path d="M -14.391034,8.3292369 V 8.169605 q 0,-0.017639 0.01235,-0.030868 0.01323,-0.013229 0.03175,-0.013229 0.01852,0 0.03175,0.013229 0.01323,0.013229 0.01323,0.030868 v 0.141993 l 0.130528,0.3333748 0.130527,-0.3333748 V 8.169605 q 0,-0.017639 0.01235,-0.030868 0.01323,-0.013229 0.03175,-0.013229 0.01852,0 0.03175,0.013229 0.01323,0.013229 0.01323,0.030868 v 0.1587499 l -0.178153,0.456847 q -0.01146,0.028222 -0.04145,0.028222 -0.03087,0 -0.04233,-0.028222 z" style="fill:#ffffff" id="path1058"/>
          <path d="m -13.753389,8.6943617 q 0,-0.018521 0.01235,-0.03175 0.01323,-0.013229 0.03175,-0.013229 0.01852,0 0.03175,0.013229 0.01323,0.013229 0.01323,0.03175 0,0.012347 0.0088,0.021167 0.0088,0.00882 0.02117,0.00882 h 0.219604 q 0.01147,0 0.01147,-0.011465 l -0.329847,-0.425097 q -0.02028,-0.028222 -0.02028,-0.061736 v -0.00265 q 0,-0.039687 0.0291,-0.068792 0.02999,-0.029104 0.07056,-0.029104 h 0.219604 q 0.04851,0 0.08378,0.035278 0.03616,0.035278 0.03616,0.083785 0,0.018521 -0.01323,0.03175 -0.01323,0.013229 -0.03175,0.013229 -0.01852,0 -0.03175,-0.013229 -0.01235,-0.013229 -0.01235,-0.03175 0,-0.011465 -0.0097,-0.020285 -0.0088,-0.0097 -0.02117,-0.0097 h -0.219604 q -0.01058,0 -0.01058,0.00882 v 0.00265 0.00353 l 0.328083,0.4215692 q 0.02205,0.026458 0.02205,0.061736 -0.0018,0.041451 -0.03087,0.071438 -0.02822,0.029104 -0.06967,0.029104 h -0.219604 q -0.04851,0 -0.08378,-0.035278 -0.03528,-0.035278 -0.03528,-0.083785 z" style="fill:#ffffff" id="path1060"/>
          <path d="m -13.115744,8.6943617 q 0,-0.018521 0.01235,-0.03175 0.01323,-0.013229 0.03175,-0.013229 0.01852,0 0.03175,0.013229 0.01323,0.013229 0.01323,0.03175 0,0.012347 0.0088,0.021167 0.0088,0.00882 0.02117,0.00882 h 0.219604 q 0.01147,0 0.01147,-0.011465 l -0.329847,-0.425097 q -0.02028,-0.028222 -0.02028,-0.061736 v -0.00265 q 0,-0.039687 0.0291,-0.068792 0.02999,-0.029104 0.07055,-0.029104 h 0.219605 q 0.04851,0 0.08378,0.035278 0.03616,0.035278 0.03616,0.083785 0,0.018521 -0.01323,0.03175 -0.01323,0.013229 -0.03175,0.013229 -0.01852,0 -0.03175,-0.013229 -0.01235,-0.013229 -0.01235,-0.03175 0,-0.011465 -0.0097,-0.020285 -0.0088,-0.0097 -0.02117,-0.0097 h -0.219605 q -0.01058,0 -0.01058,0.00882 v 0.00265 0.00353 l 0.328083,0.4215692 q 0.02205,0.026458 0.02205,0.061736 -0.0018,0.041451 -0.03087,0.071438 -0.02822,0.029104 -0.06967,0.029104 h -0.219604 q -0.04851,0 -0.08378,-0.035278 -0.03528,-0.035278 -0.03528,-0.083785 z" style="fill:#ffffff" id="path1062"/>
        </g>
        <g aria-label="NC" id="text49490-8-16-4-6-0" style="font-size:0.881944px;line-height:1.25;font-family:OCRA;-inkscape-font-specification:OCRA;text-align:center;text-anchor:middle;display:inline;stroke-width:0.264583">
          <path d="M -11.750723,8.768445 V 8.1255078 h 0.117299 l 0.232833,0.5309303 V 8.169605 q 0,-0.017639 0.01235,-0.030868 0.01323,-0.013229 0.03175,-0.013229 0.01852,0 0.03175,0.013229 0.01323,0.013229 0.01323,0.030868 v 0.6438191 h -0.118181 L -11.661646,8.2842577 V 8.768445 q 0,0.018521 -0.01323,0.03175 -0.01323,0.013229 -0.03175,0.013229 -0.01852,0 -0.03175,-0.013229 -0.01235,-0.013229 -0.01235,-0.03175 z" style="fill:#ffffff" id="path1065"/>
          <path d="m -11.113077,8.469466 q 0,-0.046743 0.02117,-0.09084 l 0.08908,-0.1799166 q 0.01411,-0.03175 0.04674,-0.052035 0.03351,-0.021167 0.0732,-0.021167 h 0.164042 q 0.01852,0 0.03175,0.013229 0.01323,0.013229 0.01323,0.030868 0,0.018521 -0.01323,0.03175 -0.01323,0.013229 -0.03175,0.013229 h -0.164042 q -0.02734,0 -0.03881,0.024695 l -0.09084,0.1790346 q -0.01146,0.024694 -0.01146,0.051153 0,0.026458 0.01146,0.051153 l 0.09084,0.1790346 q 0.01147,0.024695 0.03881,0.024695 h 0.164042 q 0.01852,0 0.03175,0.013229 0.01323,0.013229 0.01323,0.030868 0,0.018521 -0.01323,0.03175 -0.01323,0.013229 -0.03175,0.013229 h -0.164042 q -0.03881,0 -0.07144,-0.021167 -0.03175,-0.021167 -0.04762,-0.052917 -0.06526,-0.1243541 -0.08996,-0.1790346 -0.02117,-0.044979 -0.02117,-0.09084 z" style="fill:#ffffff" id="path1067"/>
        </g>
        <g aria-label="SCL" id="text49490-8-16-4-6-9" style="font-size:0.881944px;line-height:1.25;font-family:OCRA;-inkscape-font-specification:OCRA;text-align:center;text-anchor:middle;display:inline;stroke-width:0.264583">
          <path d="m -9.712087,8.6943617 q 0,-0.018521 0.012347,-0.03175 0.013229,-0.013229 0.03175,-0.013229 0.018521,0 0.03175,0.013229 0.013229,0.013229 0.013229,0.03175 0,0.012347 0.00882,0.021167 0.00882,0.00882 0.021167,0.00882 h 0.2196041 q 0.011465,0 0.011465,-0.011465 l -0.3298471,-0.425097 q -0.020285,-0.028222 -0.020285,-0.061736 v -0.00265 q 0,-0.039687 0.029104,-0.068792 0.029986,-0.029104 0.070555,-0.029104 h 0.219604 q 0.048507,0 0.083785,0.035278 0.03616,0.035278 0.03616,0.083785 0,0.018521 -0.013229,0.03175 -0.013229,0.013229 -0.03175,0.013229 -0.018521,0 -0.03175,-0.013229 -0.012347,-0.013229 -0.012347,-0.03175 0,-0.011465 -0.0097,-0.020285 -0.00882,-0.0097 -0.021167,-0.0097 h -0.219604 q -0.010583,0 -0.010583,0.00882 v 0.00265 0.00353 l 0.3280832,0.4215692 q 0.022049,0.026458 0.022049,0.061736 -0.00176,0.041451 -0.030868,0.071438 -0.028222,0.029104 -0.069674,0.029104 h -0.2196041 q -0.048507,0 -0.083785,-0.035278 -0.035278,-0.035278 -0.035278,-0.083785 z" style="fill:#ffffff" id="path1070"/>
          <path d="m -9.0744419,8.469466 q 0,-0.046743 0.021167,-0.09084 l 0.089076,-0.1799166 q 0.014111,-0.03175 0.046743,-0.052035 0.033514,-0.021167 0.073201,-0.021167 h 0.1640416 q 0.018521,0 0.03175,0.013229 0.013229,0.013229 0.013229,0.030868 0,0.018521 -0.013229,0.03175 -0.013229,0.013229 -0.03175,0.013229 h -0.1640416 q -0.02734,0 -0.038806,0.024695 l -0.09084,0.1790346 q -0.011465,0.024694 -0.011465,0.051153 0,0.026458 0.011465,0.051153 l 0.09084,0.1790346 q 0.011465,0.024695 0.038806,0.024695 h 0.1640416 q 0.018521,0 0.03175,0.013229 0.013229,0.013229 0.013229,0.030868 0,0.018521 -0.013229,0.03175 -0.013229,0.013229 -0.03175,0.013229 h -0.1640416 q -0.038806,0 -0.071438,-0.021167 -0.03175,-0.021167 -0.047625,-0.052917 -0.065264,-0.1243541 -0.089958,-0.1790346 -0.021167,-0.044979 -0.021167,-0.09084 z" style="fill:#ffffff" id="path1072"/>
          <path d="M -8.4367967,8.8134241 V 8.169605 q 0,-0.017639 0.012347,-0.030868 0.013229,-0.013229 0.03175,-0.013229 0.018521,0 0.03175,0.013229 0.013229,0.013229 0.013229,0.030868 v 0.5547428 h 0.3051526 q 0.018521,0 0.03175,0.013229 0.013229,0.013229 0.013229,0.030868 0,0.018521 -0.013229,0.03175 -0.013229,0.013229 -0.03175,0.013229 z" style="fill:#ffffff" id="path1074"/>
        </g>
        <g aria-label="SDA" id="text49490-8-16-4-6-1" style="font-size:0.881944px;line-height:1.25;font-family:OCRA;-inkscape-font-specification:OCRA;text-align:center;text-anchor:middle;display:inline;stroke-width:0.264583">
          <path d="m -7.4050935,8.6943617 q 0,-0.018521 0.012347,-0.03175 0.013229,-0.013229 0.03175,-0.013229 0.018521,0 0.03175,0.013229 0.013229,0.013229 0.013229,0.03175 0,0.012347 0.00882,0.021167 0.00882,0.00882 0.021167,0.00882 h 0.2196041 q 0.011465,0 0.011465,-0.011465 l -0.3298471,-0.425097 q -0.020285,-0.028222 -0.020285,-0.061736 v -0.00265 q 0,-0.039687 0.029104,-0.068792 0.029986,-0.029104 0.070556,-0.029104 h 0.219604 q 0.048507,0 0.083785,0.035278 0.03616,0.035278 0.03616,0.083785 0,0.018521 -0.013229,0.03175 -0.013229,0.013229 -0.03175,0.013229 -0.018521,0 -0.03175,-0.013229 -0.012347,-0.013229 -0.012347,-0.03175 0,-0.011465 -0.0097,-0.020285 -0.00882,-0.0097 -0.021167,-0.0097 h -0.219604 q -0.010583,0 -0.010583,0.00882 v 0.00265 0.00353 l 0.3280832,0.4215692 q 0.022049,0.026458 0.022049,0.061736 -0.00176,0.041451 -0.030868,0.071438 -0.028222,0.029104 -0.069674,0.029104 h -0.2196041 q -0.048507,0 -0.083785,-0.035278 -0.035278,-0.035278 -0.035278,-0.083785 z" style="fill:#ffffff" id="path1077"/>
          <path d="m -6.7674484,8.768445 q 0,-0.017639 0.012347,-0.030868 0.013229,-0.013229 0.03175,-0.013229 h 0.043215 V 8.2145841 h -0.043215 q -0.018521,0 -0.03175,-0.013229 -0.012347,-0.013229 -0.012347,-0.03175 0,-0.017639 0.012347,-0.030868 0.013229,-0.013229 0.03175,-0.013229 h 0.1640416 q 0.038805,0 0.070555,0.021167 0.032632,0.021167 0.048507,0.052917 l 0.089958,0.1790346 q 0.022049,0.045861 0.022049,0.09084 0,0.044979 -0.022049,0.09084 l -0.089076,0.1799166 q -0.014111,0.03175 -0.047625,0.052917 -0.032632,0.020285 -0.072319,0.020285 h -0.1640416 q -0.018521,0 -0.03175,-0.013229 -0.012347,-0.013229 -0.012347,-0.03175 z m 0.1763888,-0.044097 h 0.03175 q 0.02734,0 0.038805,-0.024695 l 0.09084,-0.1790346 q 0.012347,-0.029986 0.012347,-0.051153 0,-0.026458 -0.012347,-0.051153 l -0.09084,-0.1790346 q -0.011465,-0.024695 -0.038805,-0.024695 h -0.03175 z" style="fill:#ffffff" id="path1079"/>
          <path d="m -6.1324491,8.768445 0.1790346,-0.6111872 q 0.00441,-0.014111 0.015875,-0.022931 0.011465,-0.00882 0.026458,-0.00882 0.014993,0 0.02734,0.00882 0.012347,0.00882 0.015875,0.022931 l 0.1781527,0.6111872 q 0,0.018521 -0.014111,0.03175 -0.013229,0.013229 -0.03175,0.013229 -0.014993,0 -0.026458,-0.00882 -0.011465,-0.00882 -0.015875,-0.022931 l -0.034396,-0.1181805 h -0.1966735 l -0.034396,0.1181805 q -0.00441,0.014111 -0.016757,0.022931 -0.011465,0.00882 -0.026458,0.00882 -0.018521,0 -0.032632,-0.013229 -0.013229,-0.013229 -0.013229,-0.03175 z m 0.1499305,-0.1940277 h 0.1437569 l -0.072319,-0.2451804 z" style="fill:#ffffff" id="path1081"/>
        </g>
        <g aria-label="NC" id="text49490-8-16-4-6-6" style="font-size:0.881944px;line-height:1.25;font-family:OCRA;-inkscape-font-specification:OCRA;text-align:center;text-anchor:middle;display:inline;stroke-width:0.264583">
          <path d="M -4.8801381,8.768445 V 8.1255078 h 0.1172986 l 0.2328332,0.5309303 V 8.169605 q 0,-0.017639 0.012347,-0.030868 0.013229,-0.013229 0.03175,-0.013229 0.018521,0 0.03175,0.013229 0.013229,0.013229 0.013229,0.030868 V 8.8134241 H -4.5591104 L -4.7910617,8.2842577 V 8.768445 q 0,0.018521 -0.013229,0.03175 -0.013229,0.013229 -0.03175,0.013229 -0.018521,0 -0.03175,-0.013229 -0.012347,-0.013229 -0.012347,-0.03175 z" style="fill:#ffffff" id="path1084"/>
          <path d="m -4.2424929,8.469466 q 0,-0.046743 0.021167,-0.09084 l 0.089076,-0.1799166 q 0.014111,-0.03175 0.046743,-0.052035 0.033514,-0.021167 0.073201,-0.021167 h 0.1640415 q 0.018521,0 0.03175,0.013229 0.013229,0.013229 0.013229,0.030868 0,0.018521 -0.013229,0.03175 -0.013229,0.013229 -0.03175,0.013229 h -0.1640415 q -0.02734,0 -0.038806,0.024695 l -0.09084,0.1790346 q -0.011465,0.024694 -0.011465,0.051153 0,0.026458 0.011465,0.051153 l 0.09084,0.1790346 q 0.011465,0.024695 0.038806,0.024695 h 0.1640415 q 0.018521,0 0.03175,0.013229 0.013229,0.013229 0.013229,0.030868 0,0.018521 -0.013229,0.03175 -0.013229,0.013229 -0.03175,0.013229 h -0.1640415 q -0.038806,0 -0.071438,-0.021167 -0.03175,-0.021167 -0.047625,-0.052917 -0.065264,-0.1243541 -0.089958,-0.1790346 -0.021167,-0.044979 -0.021167,-0.09084 z" style="fill:#ffffff" id="path1086"/>
        </g>
      </g>
    </g>
  </g>
</svg>